font.ufo
<glyph name="exclam" format="1">
  <advance width="330"/>
  <unicode hex="0021"/>
  <outline>
    <contour>
      <point x="75" y="622" type="line"/>
      <point x="103" y="206" type="line"/>
      <point x="229" y="206" type="line"/>
      <point x="256" y="622" type="line"/>
    </contour>
    <contour>
      <point x="81" y="0" type="line"/>
      <point x="249" y="0" type="line"/>
      <point x="249" y="131" type="line"/>
      <point x="81" y="131" type="line"/>
    </contour>
  </outline>
</glyph>
<glyph name="quotedbl" format="1">
  <advance width="453"/>
  <unicode hex="0022"/>
  <outline>
    <contour>
      <point x="56" y="622" type="line"/>
      <point x="56" y="382" type="line"/>
      <point x="195" y="382" type="line"/>
      <point x="195" y="622" type="line"/>
    </contour>
    <contour>
      <point x="258" y="622" type="line"/>
      <point x="258" y="382" type="line"/>
      <point x="398" y="382" type="line"/>
      <point x="398" y="622" type="line"/>
    </contour>
  </outline>
</glyph>
<glyph name="numbersign" format="1">
  <advance width="950"/>
  <unicode hex="0023"/>
  <outline>
    <contour>
      <point x="342" y="622" type="line"/>
      <point x="137" y="0" type="line"/>
      <point x="271" y="0" type="line"/>
      <point x="475" y="622" type="line"/>
    </contour>
    <contour>
      <point x="899" y="470" type="line"/>
      <point x="105" y="470" type="line"/>
      <point x="105" y="388" type="line"/>
      <point x="899" y="388" type="line"/>
    </contour>
    <contour>
      <point x="618" y="0" type="line"/>
      <point x="823" y="622" type="line"/>
      <point x="689" y="622" type="line"/>
      <point x="484" y="0" type="line"/>
    </contour>
    <contour>
      <point x="51" y="152" type="line"/>
      <point x="844" y="152" type="line"/>
      <point x="844" y="234" type="line"/>
      <point x="51" y="234" type="line"/>
    </contour>
  </outline>
</glyph>
<glyph name="dollar" format="1">
  <advance width="668"/>
  <unicode hex="0024"/>
  <outline>
    <contour>
      <point x="409" y="607" type="line"/>
      <point x="409" y="714" type="line"/>
      <point x="253" y="714" type="line"/>
      <point x="253" y="607" type="line"/>
    </contour>
    <contour>
      <point x="409" y="-91" type="line"/>
      <point x="409" y="16" type="line"/>
      <point x="253" y="16" type="line"/>
      <point x="253" y="-91" type="line"/>
    </contour>
    <contour>
      <point x="445" y="90" type="line"/>
      <point x="445" y="64"/>
      <point x="440" y="59"/>
      <point x="414" y="59" type="curve" smooth="yes"/>
      <point x="254" y="59" type="line" smooth="yes"/>
      <point x="228" y="59"/>
      <point x="223" y="64"/>
      <point x="223" y="90" type="curve" smooth="yes"/>
      <point x="223" y="186" type="line"/>
      <point x="64" y="186" type="line"/>
      <point x="64" y="79" type="line" smooth="yes"/>
      <point x="64" y="26"/>
      <point x="90" y="0"/>
      <point x="143" y="0" type="curve" smooth="yes"/>
      <point x="524" y="0" type="line" smooth="yes"/>
      <point x="577" y="0"/>
      <point x="603" y="26"/>
      <point x="603" y="79" type="curve" smooth="yes"/>
      <point x="603" y="264" type="line" smooth="yes"/>
      <point x="603" y="317"/>
      <point x="577" y="343"/>
      <point x="524" y="343" type="curve" smooth="yes"/>
      <point x="252" y="343" type="line" smooth="yes"/>
      <point x="226" y="343"/>
      <point x="221" y="348"/>
      <point x="221" y="374" type="curve" smooth="yes"/>
      <point x="221" y="532" type="line" smooth="yes"/>
      <point x="221" y="558"/>
      <point x="226" y="563"/>
      <point x="252" y="563" type="curve" smooth="yes"/>
      <point x="411" y="563" type="line" smooth="yes"/>
      <point x="437" y="563"/>
      <point x="442" y="558"/>
      <point x="442" y="532" type="curve" smooth="yes"/>
      <point x="442" y="436" type="line"/>
      <point x="600" y="436" type="line"/>
      <point x="600" y="543" type="line" smooth="yes"/>
      <point x="600" y="596"/>
      <point x="574" y="622"/>
      <point x="521" y="622" type="curve" smooth="yes"/>
      <point x="141" y="622" type="line" smooth="yes"/>
      <point x="88" y="622"/>
      <point x="62" y="596"/>
      <point x="62" y="543" type="curve" smooth="yes"/>
      <point x="62" y="363" type="line" smooth="yes"/>
      <point x="62" y="310"/>
      <point x="88" y="284"/>
      <point x="141" y="284" type="curve" smooth="yes"/>
      <point x="414" y="284" type="line" smooth="yes"/>
      <point x="440" y="284"/>
      <point x="445" y="279"/>
      <point x="445" y="253" type="curve" smooth="yes"/>
    </contour>
  </outline>
</glyph>
<glyph name="percent" format="1">
  <advance width="1159"/>
  <unicode hex="0025"/>
  <outline>
    <contour>
      <point x="1112" y="290" type="line"/>
      <point x="1112" y="330"/>
      <point x="1094" y="350"/>
      <point x="1055" y="350" type="curve" smooth="yes"/>
      <point x="773" y="350" type="line" smooth="yes"/>
      <point x="735" y="350"/>
      <point x="716" y="330"/>
      <point x="716" y="290" type="curve" smooth="yes"/>
      <point x="716" y="61" type="line" smooth="yes"/>
      <point x="716" y="20"/>
      <point x="735" y="1"/>
      <point x="773" y="1" type="curve" smooth="yes"/>
      <point x="1055" y="1" type="line" smooth="yes"/>
      <point x="1094" y="1"/>
      <point x="1112" y="20"/>
      <point x="1112" y="61" type="curve" smooth="yes"/>
    </contour>
    <contour>
      <point x="992" y="74" type="line"/>
      <point x="992" y="54"/>
      <point x="989" y="50"/>
      <point x="969" y="50" type="curve" smooth="yes"/>
      <point x="860" y="50" type="line" smooth="yes"/>
      <point x="840" y="50"/>
      <point x="837" y="54"/>
      <point x="837" y="74" type="curve" smooth="yes"/>
      <point x="837" y="276" type="line" smooth="yes"/>
      <point x="837" y="296"/>
      <point x="840" y="300"/>
      <point x="860" y="300" type="curve" smooth="yes"/>
      <point x="969" y="300" type="line" smooth="yes"/>
      <point x="989" y="300"/>
      <point x="992" y="296"/>
      <point x="992" y="276" type="curve" smooth="yes"/>
    </contour>
    <contour>
      <point x="750" y="622" type="line"/>
      <point x="282" y="0" type="line"/>
      <point x="406" y="0" type="line"/>
      <point x="875" y="622" type="line"/>
    </contour>
    <contour>
      <point x="443" y="562" type="line"/>
      <point x="443" y="602"/>
      <point x="425" y="621"/>
      <point x="386" y="621" type="curve" smooth="yes"/>
      <point x="104" y="621" type="line" smooth="yes"/>
      <point x="65" y="621"/>
      <point x="47" y="602"/>
      <point x="47" y="562" type="curve" smooth="yes"/>
      <point x="47" y="332" type="line" smooth="yes"/>
      <point x="47" y="292"/>
      <point x="65" y="273"/>
      <point x="104" y="273" type="curve" smooth="yes"/>
      <point x="386" y="273" type="line" smooth="yes"/>
      <point x="425" y="273"/>
      <point x="443" y="292"/>
      <point x="443" y="332" type="curve" smooth="yes"/>
    </contour>
    <contour>
      <point x="323" y="346" type="line"/>
      <point x="323" y="326"/>
      <point x="320" y="322"/>
      <point x="299" y="322" type="curve" smooth="yes"/>
      <point x="191" y="322" type="line" smooth="yes"/>
      <point x="171" y="322"/>
      <point x="168" y="326"/>
      <point x="168" y="346" type="curve" smooth="yes"/>
      <point x="168" y="548" type="line" smooth="yes"/>
      <point x="168" y="568"/>
      <point x="171" y="572"/>
      <point x="191" y="572" type="curve" smooth="yes"/>
      <point x="299" y="572" type="line" smooth="yes"/>
      <point x="320" y="572"/>
      <point x="323" y="568"/>
      <point x="323" y="548" type="curve" smooth="yes"/>
    </contour>
  </outline>
</glyph>
<glyph name="ampersand" format="1">
  <advance width="861"/>
  <unicode hex="0026"/>
  <outline>
    <contour>
      <point x="834" y="-45" type="line"/>
      <point x="388" y="328" type="line" smooth="yes"/>
      <point x="317" y="387"/>
      <point x="291" y="405"/>
      <point x="291" y="453" type="curve" smooth="yes"/>
      <point x="291" y="532" type="line" smooth="yes"/>
      <point x="291" y="558"/>
      <point x="296" y="563"/>
      <point x="322" y="563" type="curve" smooth="yes"/>
      <point x="463" y="563" type="line" smooth="yes"/>
      <point x="489" y="563"/>
      <point x="494" y="558"/>
      <point x="494" y="532" type="curve" smooth="yes"/>
      <point x="494" y="434" type="line" smooth="yes"/>
      <point x="494" y="400"/>
      <point x="475" y="384"/>
      <point x="429" y="368" type="curve" smooth="yes"/>
      <point x="161" y="270" type="line" smooth="yes"/>
      <point x="89" y="245"/>
      <point x="64" y="222"/>
      <point x="64" y="164" type="curve" smooth="yes"/>
      <point x="64" y="79" type="line" smooth="yes"/>
      <point x="64" y="26"/>
      <point x="90" y="0"/>
      <point x="143" y="0" type="curve" smooth="yes"/>
      <point x="721" y="0" type="line" smooth="yes"/>
      <point x="779" y="0"/>
      <point x="810" y="31"/>
      <point x="810" y="89" type="curve" smooth="yes"/>
      <point x="810" y="234" type="line"/>
      <point x="684" y="234" type="line"/>
      <point x="684" y="90" type="line" smooth="yes"/>
      <point x="684" y="64"/>
      <point x="679" y="59"/>
      <point x="653" y="59" type="curve" smooth="yes"/>
      <point x="249" y="59" type="line" smooth="yes"/>
      <point x="223" y="59"/>
      <point x="218" y="64"/>
      <point x="218" y="90" type="curve" smooth="yes"/>
      <point x="218" y="162" type="line" smooth="yes"/>
      <point x="218" y="190"/>
      <point x="228" y="203"/>
      <point x="257" y="214" type="curve" smooth="yes"/>
      <point x="535" y="316" type="line" smooth="yes"/>
      <point x="609" y="343"/>
      <point x="648" y="375"/>
      <point x="648" y="448" type="curve" smooth="yes"/>
      <point x="648" y="543" type="line" smooth="yes"/>
      <point x="648" y="596"/>
      <point x="622" y="622"/>
      <point x="569" y="622" type="curve" smooth="yes"/>
      <point x="216" y="622" type="line" smooth="yes"/>
      <point x="163" y="622"/>
      <point x="137" y="596"/>
      <point x="137" y="543" type="curve" smooth="yes"/>
      <point x="137" y="445" type="line" smooth="yes"/>
      <point x="137" y="382"/>
      <point x="174" y="356"/>
      <point x="243" y="299" type="curve" smooth="yes"/>
      <point x="654" y="-45" type="line"/>
    </contour>
  </outline>
</glyph>
<glyph name="quotesingle" format="1">
  <advance width="253"/>
  <unicode hex="0027"/>
  <outline>
    <contour>
      <point x="56" y="622" type="line"/>
      <point x="56" y="382" type="line"/>
      <point x="198" y="382" type="line"/>
      <point x="198" y="622" type="line"/>
    </contour>
  </outline>
</glyph>
<glyph name="parenleft" format="1">
  <advance width="362"/>
  <unicode hex="0028"/>
  <outline>
    <contour>
      <point x="78" y="373" type="line"/>
      <point x="78" y="612"/>
      <point x="194" y="718"/>
      <point x="378" y="718" type="curve" smooth="yes"/>
      <point x="417" y="718" type="line"/>
      <point x="417" y="659" type="line"/>
      <point x="394" y="659" type="line" smooth="yes"/>
      <point x="287" y="655"/>
      <point x="239" y="563"/>
      <point x="239" y="397" type="curve" smooth="yes"/>
      <point x="239" y="101" type="line" smooth="yes"/>
      <point x="239" y="-66"/>
      <point x="287" y="-157"/>
      <point x="394" y="-160" type="curve" smooth="yes"/>
      <point x="417" y="-160" type="line"/>
      <point x="417" y="-219" type="line"/>
      <point x="378" y="-219" type="line" smooth="yes"/>
      <point x="194" y="-219"/>
      <point x="78" y="-114"/>
      <point x="78" y="126" type="curve" smooth="yes"/>
    </contour>
  </outline>
</glyph>
<glyph name="parenright" format="1">
  <advance width="362"/>
  <unicode hex="0029"/>
  <outline>
    <contour>
      <point x="284" y="126" type="line"/>
      <point x="284" y="-114"/>
      <point x="168" y="-219"/>
      <point x="-16" y="-219" type="curve" smooth="yes"/>
      <point x="-55" y="-219" type="line"/>
      <point x="-55" y="-160" type="line"/>
      <point x="-32" y="-160" type="line"/>
      <point x="75" y="-157"/>
      <point x="123" y="-66"/>
      <point x="123" y="101" type="curve" smooth="yes"/>
      <point x="123" y="397" type="line" smooth="yes"/>
      <point x="123" y="563"/>
      <point x="75" y="655"/>
      <point x="-32" y="659" type="curve"/>
      <point x="-55" y="659" type="line"/>
      <point x="-55" y="718" type="line"/>
      <point x="-16" y="718" type="line" smooth="yes"/>
      <point x="168" y="718"/>
      <point x="284" y="612"/>
      <point x="284" y="373" type="curve" smooth="yes"/>
    </contour>
  </outline>
</glyph>
<glyph name="asterisk" format="1">
  <advance width="529"/>
  <unicode hex="002A"/>
  <outline>
    <contour>
      <point x="208" y="658" type="line"/>
      <point x="208" y="596" type="line" smooth="yes"/>
      <point x="208" y="567"/>
      <point x="213" y="540"/>
      <point x="220" y="518" type="curve"/>
      <point x="200" y="533"/>
      <point x="176" y="547"/>
      <point x="149" y="557" type="curve" smooth="yes"/>
      <point x="90" y="576" type="line"/>
      <point x="53" y="463" type="line"/>
      <point x="112" y="444" type="line" smooth="yes"/>
      <point x="138" y="436"/>
      <point x="165" y="432"/>
      <point x="190" y="431" type="curve"/>
      <point x="170" y="418"/>
      <point x="148" y="399"/>
      <point x="131" y="376" type="curve" smooth="yes"/>
      <point x="95" y="325" type="line"/>
      <point x="190" y="256" type="line"/>
      <point x="227" y="306" type="line" smooth="yes"/>
      <point x="243" y="329"/>
      <point x="255" y="355"/>
      <point x="262" y="376" type="curve"/>
      <point x="269" y="354"/>
      <point x="281" y="327"/>
      <point x="297" y="303" type="curve" smooth="yes"/>
      <point x="334" y="252" type="line"/>
      <point x="430" y="323" type="line"/>
      <point x="393" y="372" type="line" smooth="yes"/>
      <point x="377" y="396"/>
      <point x="356" y="414"/>
      <point x="338" y="428" type="curve"/>
      <point x="362" y="427"/>
      <point x="390" y="430"/>
      <point x="418" y="439" type="curve" smooth="yes"/>
      <point x="478" y="458" type="line"/>
      <point x="440" y="571" type="line"/>
      <point x="382" y="551" type="line" smooth="yes"/>
      <point x="355" y="542"/>
      <point x="331" y="529"/>
      <point x="312" y="515" type="curve"/>
      <point x="320" y="538"/>
      <point x="326" y="566"/>
      <point x="326" y="596" type="curve" smooth="yes"/>
      <point x="326" y="658" type="line"/>
    </contour>
  </outline>
</glyph>
<glyph name="plus" format="1">
  <advance width="694"/>
  <unicode hex="002B"/>
  <outline>
    <contour>
      <point x="56" y="260" type="line"/>
      <point x="638" y="260" type="line"/>
      <point x="638" y="361" type="line"/>
      <point x="56" y="361" type="line"/>
    </contour>
    <contour>
      <point x="272" y="511" type="line"/>
      <point x="272" y="110" type="line"/>
      <point x="422" y="110" type="line"/>
      <point x="422" y="511" type="line"/>
    </contour>
  </outline>
</glyph>
<glyph name="comma" format="1">
  <advance width="276"/>
  <unicode hex="002C"/>
  <outline>
    <contour>
      <point x="58" y="141" type="line"/>
      <point x="226" y="141" type="line"/>
      <point x="226" y="63" type="line"/>
      <point x="113" y="-139" type="line"/>
      <point x="58" y="-139" type="line"/>
    </contour>
  </outline>
</glyph>
<glyph name="hyphen" format="1">
  <advance width="422"/>
  <unicode hex="002D"/>
  <outline>
    <contour>
      <point x="58" y="242" type="line"/>
      <point x="364" y="242" type="line"/>
      <point x="364" y="301" type="line"/>
      <point x="58" y="301" type="line"/>
    </contour>
  </outline>
</glyph>
<glyph name="period" format="1">
  <advance width="284"/>
  <unicode hex="002E"/>
  <outline>
    <contour>
      <point x="58" y="0" type="line"/>
      <point x="226" y="0" type="line"/>
      <point x="226" y="131" type="line"/>
      <point x="58" y="131" type="line"/>
    </contour>
  </outline>
</glyph>
<glyph name="slash" format="1">
  <advance width="456"/>
  <unicode hex="002F"/>
  <outline>
    <contour>
      <point x="395" y="699" type="line"/>
      <point x="-25" y="-136" type="line"/>
      <point x="114" y="-136" type="line"/>
      <point x="534" y="699" type="line"/>
    </contour>
  </outline>
</glyph>
<glyph name="zero" format="1">
  <advance width="699"/>
  <unicode hex="0030"/>
  <outline>
    <contour>
      <point x="625" y="543" type="line"/>
      <point x="625" y="596"/>
      <point x="599" y="622"/>
      <point x="546" y="622" type="curve" smooth="yes"/>
      <point x="153" y="622" type="line" smooth="yes"/>
      <point x="100" y="622"/>
      <point x="74" y="596"/>
      <point x="74" y="543" type="curve" smooth="yes"/>
      <point x="74" y="79" type="line" smooth="yes"/>
      <point x="74" y="26"/>
      <point x="100" y="0"/>
      <point x="153" y="0" type="curve" smooth="yes"/>
      <point x="546" y="0" type="line" smooth="yes"/>
      <point x="599" y="0"/>
      <point x="625" y="26"/>
      <point x="625" y="79" type="curve" smooth="yes"/>
    </contour>
    <contour>
      <point x="464" y="90" type="line"/>
      <point x="464" y="64"/>
      <point x="459" y="59"/>
      <point x="433" y="59" type="curve" smooth="yes"/>
      <point x="268" y="59" type="line" smooth="yes"/>
      <point x="242" y="59"/>
      <point x="237" y="64"/>
      <point x="237" y="90" type="curve" smooth="yes"/>
      <point x="237" y="532" type="line" smooth="yes"/>
      <point x="237" y="558"/>
      <point x="242" y="563"/>
      <point x="268" y="563" type="curve" smooth="yes"/>
      <point x="433" y="563" type="line" smooth="yes"/>
      <point x="459" y="563"/>
      <point x="464" y="558"/>
      <point x="464" y="532" type="curve" smooth="yes"/>
    </contour>
  </outline>
</glyph>
<glyph name="one" format="1">
  <advance width="388"/>
  <unicode hex="0031"/>
  <outline>
    <contour>
      <point x="243" y="622" type="line"/>
      <point x="21" y="622" type="line"/>
      <point x="21" y="563" type="line"/>
      <point x="243" y="563" type="line"/>
    </contour>
    <contour>
      <point x="148" y="622" type="line"/>
      <point x="148" y="0" type="line"/>
      <point x="314" y="0" type="line"/>
      <point x="314" y="622" type="line"/>
    </contour>
  </outline>
</glyph>
<glyph name="two" format="1">
  <advance width="648"/>
  <unicode hex="0032"/>
  <outline>
    <contour>
      <point x="215" y="532" type="line"/>
      <point x="215" y="558"/>
      <point x="220" y="563"/>
      <point x="246" y="563" type="curve" smooth="yes"/>
      <point x="406" y="563" type="line" smooth="yes"/>
      <point x="432" y="563"/>
      <point x="437" y="558"/>
      <point x="437" y="532" type="curve" smooth="yes"/>
      <point x="437" y="470" type="line" smooth="yes"/>
      <point x="437" y="420"/>
      <point x="421" y="395"/>
      <point x="381" y="358" type="curve" smooth="yes"/>
      <point x="52" y="59" type="line"/>
      <point x="52" y="0" type="line"/>
      <point x="602" y="0" type="line"/>
      <point x="602" y="59" type="line"/>
      <point x="263" y="59" type="line"/>
      <point x="535" y="306" type="line" smooth="yes"/>
      <point x="586" y="353"/>
      <point x="598" y="385"/>
      <point x="598" y="468" type="curve" smooth="yes"/>
      <point x="598" y="543" type="line" smooth="yes"/>
      <point x="598" y="596"/>
      <point x="572" y="622"/>
      <point x="519" y="622" type="curve" smooth="yes"/>
      <point x="131" y="622" type="line" smooth="yes"/>
      <point x="78" y="622"/>
      <point x="52" y="596"/>
      <point x="52" y="543" type="curve" smooth="yes"/>
      <point x="52" y="410" type="line"/>
      <point x="215" y="410" type="line"/>
    </contour>
  </outline>
</glyph>
<glyph name="three" format="1">
  <advance width="679"/>
  <unicode hex="0033"/>
  <outline>
    <contour>
      <point x="224" y="532" type="line"/>
      <point x="224" y="558"/>
      <point x="229" y="563"/>
      <point x="255" y="563" type="curve" smooth="yes"/>
      <point x="420" y="563" type="line" smooth="yes"/>
      <point x="446" y="563"/>
      <point x="451" y="558"/>
      <point x="451" y="532" type="curve" smooth="yes"/>
      <point x="451" y="376" type="line" smooth="yes"/>
      <point x="451" y="350"/>
      <point x="446" y="345"/>
      <point x="420" y="345" type="curve" smooth="yes"/>
      <point x="277" y="345" type="line"/>
      <point x="277" y="285" type="line"/>
      <point x="420" y="285" type="line" smooth="yes"/>
      <point x="446" y="285"/>
      <point x="451" y="280"/>
      <point x="451" y="254" type="curve" smooth="yes"/>
      <point x="451" y="90" type="line" smooth="yes"/>
      <point x="451" y="64"/>
      <point x="446" y="59"/>
      <point x="420" y="59" type="curve" smooth="yes"/>
      <point x="255" y="59" type="line" smooth="yes"/>
      <point x="229" y="59"/>
      <point x="224" y="64"/>
      <point x="224" y="90" type="curve" smooth="yes"/>
      <point x="224" y="196" type="line"/>
      <point x="62" y="196" type="line"/>
      <point x="62" y="79" type="line" smooth="yes"/>
      <point x="62" y="26"/>
      <point x="88" y="0"/>
      <point x="141" y="0" type="curve" smooth="yes"/>
      <point x="533" y="0" type="line" smooth="yes"/>
      <point x="586" y="0"/>
      <point x="612" y="26"/>
      <point x="612" y="79" type="curve" smooth="yes"/>
      <point x="612" y="254" type="line" smooth="yes"/>
      <point x="612" y="294"/>
      <point x="593" y="314"/>
      <point x="557" y="317" type="curve"/>
      <point x="593" y="319"/>
      <point x="612" y="341"/>
      <point x="612" y="381" type="curve" smooth="yes"/>
      <point x="612" y="543" type="line" smooth="yes"/>
      <point x="612" y="596"/>
      <point x="586" y="622"/>
      <point x="533" y="622" type="curve" smooth="yes"/>
      <point x="141" y="622" type="line" smooth="yes"/>
      <point x="88" y="622"/>
      <point x="62" y="596"/>
      <point x="62" y="543" type="curve" smooth="yes"/>
      <point x="62" y="425" type="line"/>
      <point x="224" y="425" type="line"/>
    </contour>
  </outline>
</glyph>
<glyph name="four" format="1">
  <advance width="687"/>
  <unicode hex="0034"/>
  <outline>
    <contour>
      <point x="81" y="101" type="line"/>
      <point x="671" y="101" type="line"/>
      <point x="671" y="160" type="line"/>
      <point x="81" y="160" type="line"/>
    </contour>
    <contour>
      <point x="31" y="101" type="line"/>
      <point x="157" y="101" type="line"/>
      <point x="477" y="622" type="line"/>
      <point x="311" y="622" type="line"/>
      <point x="31" y="178" type="line"/>
    </contour>
    <contour>
      <point x="415" y="328" type="line"/>
      <point x="415" y="0" type="line"/>
      <point x="567" y="0" type="line"/>
      <point x="567" y="328" type="line"/>
    </contour>
  </outline>
</glyph>
<glyph name="five" format="1">
  <advance width="661"/>
  <unicode hex="0035"/>
  <outline>
    <contour>
      <point x="234" y="205" type="line"/>
      <point x="72" y="205" type="line"/>
      <point x="72" y="79" type="line" smooth="yes"/>
      <point x="72" y="26"/>
      <point x="98" y="0"/>
      <point x="151" y="0" type="curve" smooth="yes"/>
      <point x="531" y="0" type="line" smooth="yes"/>
      <point x="584" y="0"/>
      <point x="610" y="26"/>
      <point x="610" y="79" type="curve" smooth="yes"/>
      <point x="610" y="300" type="line" smooth="yes"/>
      <point x="610" y="353"/>
      <point x="584" y="379"/>
      <point x="531" y="379" type="curve" smooth="yes"/>
      <point x="199" y="379" type="line"/>
      <point x="199" y="320" type="line"/>
      <point x="417" y="320" type="line" smooth="yes"/>
      <point x="443" y="320"/>
      <point x="448" y="315"/>
      <point x="448" y="289" type="curve" smooth="yes"/>
      <point x="448" y="90" type="line" smooth="yes"/>
      <point x="448" y="64"/>
      <point x="443" y="59"/>
      <point x="417" y="59" type="curve" smooth="yes"/>
      <point x="265" y="59" type="line" smooth="yes"/>
      <point x="239" y="59"/>
      <point x="234" y="64"/>
      <point x="234" y="90" type="curve" smooth="yes"/>
    </contour>
    <contour>
      <point x="245" y="320" type="line"/>
      <point x="245" y="563" type="line"/>
      <point x="598" y="563" type="line"/>
      <point x="598" y="622" type="line"/>
      <point x="78" y="622" type="line"/>
      <point x="78" y="320" type="line"/>
    </contour>
  </outline>
</glyph>
<glyph name="six" format="1">
  <advance width="676"/>
  <unicode hex="0036"/>
  <outline>
    <contour>
      <point x="449" y="206" type="line"/>
      <point x="449" y="90" type="line" smooth="yes"/>
      <point x="449" y="64"/>
      <point x="444" y="59"/>
      <point x="418" y="59" type="curve" smooth="yes"/>
      <point x="268" y="59" type="line" smooth="yes"/>
      <point x="242" y="59"/>
      <point x="237" y="64"/>
      <point x="237" y="90" type="curve" smooth="yes"/>
      <point x="237" y="532" type="line" smooth="yes"/>
      <point x="237" y="558"/>
      <point x="242" y="563"/>
      <point x="268" y="563" type="curve" smooth="yes"/>
      <point x="410" y="563" type="line" smooth="yes"/>
      <point x="436" y="563"/>
      <point x="441" y="558"/>
      <point x="441" y="532" type="curve" smooth="yes"/>
      <point x="441" y="429" type="line"/>
      <point x="602" y="429" type="line"/>
      <point x="602" y="543" type="line" smooth="yes"/>
      <point x="602" y="596"/>
      <point x="576" y="622"/>
      <point x="523" y="622" type="curve" smooth="yes"/>
      <point x="153" y="622" type="line" smooth="yes"/>
      <point x="100" y="622"/>
      <point x="74" y="596"/>
      <point x="74" y="543" type="curve" smooth="yes"/>
      <point x="74" y="79" type="line" smooth="yes"/>
      <point x="74" y="26"/>
      <point x="100" y="0"/>
      <point x="153" y="0" type="curve" smooth="yes"/>
      <point x="531" y="0" type="line" smooth="yes"/>
      <point x="584" y="0"/>
      <point x="610" y="26"/>
      <point x="610" y="79" type="curve" smooth="yes"/>
      <point x="610" y="206" type="line"/>
    </contour>
    <contour>
      <point x="610" y="169" type="line"/>
      <point x="610" y="279" type="line" smooth="yes"/>
      <point x="610" y="332"/>
      <point x="584" y="358"/>
      <point x="531" y="358" type="curve" smooth="yes"/>
      <point x="216" y="358" type="line"/>
      <point x="216" y="299" type="line"/>
      <point x="418" y="299" type="line" smooth="yes"/>
      <point x="444" y="299"/>
      <point x="449" y="294"/>
      <point x="449" y="268" type="curve" smooth="yes"/>
      <point x="449" y="169" type="line"/>
    </contour>
  </outline>
</glyph>
<glyph name="seven" format="1">
  <advance width="552"/>
  <unicode hex="0037"/>
  <outline>
    <contour>
      <point x="496" y="622" type="line"/>
      <point x="29" y="622" type="line"/>
      <point x="29" y="563" type="line"/>
      <point x="496" y="563" type="line"/>
    </contour>
    <contour>
      <point x="536" y="622" type="line"/>
      <point x="403" y="622" type="line"/>
      <point x="97" y="0" type="line"/>
      <point x="269" y="0" type="line"/>
      <point x="536" y="553" type="line"/>
    </contour>
  </outline>
</glyph>
<glyph name="eight" format="1">
  <advance width="681"/>
  <unicode hex="0038"/>
  <outline>
    <contour>
      <point x="151" y="622" type="line"/>
      <point x="98" y="622"/>
      <point x="72" y="596"/>
      <point x="72" y="543" type="curve" smooth="yes"/>
      <point x="72" y="377" type="line" smooth="yes"/>
      <point x="72" y="337"/>
      <point x="91" y="315"/>
      <point x="127" y="313" type="curve"/>
      <point x="91" y="310"/>
      <point x="72" y="290"/>
      <point x="72" y="250" type="curve" smooth="yes"/>
      <point x="72" y="79" type="line" smooth="yes"/>
      <point x="72" y="26"/>
      <point x="98" y="0"/>
      <point x="151" y="0" type="curve" smooth="yes"/>
      <point x="530" y="0" type="line" smooth="yes"/>
      <point x="583" y="0"/>
      <point x="609" y="26"/>
      <point x="609" y="79" type="curve" smooth="yes"/>
      <point x="609" y="250" type="line" smooth="yes"/>
      <point x="609" y="290"/>
      <point x="590" y="310"/>
      <point x="554" y="313" type="curve"/>
      <point x="590" y="315"/>
      <point x="609" y="337"/>
      <point x="609" y="377" type="curve" smooth="yes"/>
      <point x="609" y="543" type="line" smooth="yes"/>
      <point x="609" y="596"/>
      <point x="583" y="622"/>
      <point x="530" y="622" type="curve" smooth="yes"/>
    </contour>
    <contour>
      <point x="234" y="252" type="line"/>
      <point x="234" y="278"/>
      <point x="239" y="283"/>
      <point x="265" y="283" type="curve" smooth="yes"/>
      <point x="417" y="283" type="line" smooth="yes"/>
      <point x="443" y="283"/>
      <point x="448" y="278"/>
      <point x="448" y="252" type="curve" smooth="yes"/>
      <point x="448" y="90" type="line" smooth="yes"/>
      <point x="448" y="64"/>
      <point x="443" y="59"/>
      <point x="417" y="59" type="curve" smooth="yes"/>
      <point x="265" y="59" type="line" smooth="yes"/>
      <point x="239" y="59"/>
      <point x="234" y="64"/>
      <point x="234" y="90" type="curve" smooth="yes"/>
    </contour>
    <contour>
      <point x="448" y="374" type="line"/>
      <point x="448" y="348"/>
      <point x="443" y="343"/>
      <point x="417" y="343" type="curve" smooth="yes"/>
      <point x="265" y="343" type="line" smooth="yes"/>
      <point x="239" y="343"/>
      <point x="234" y="348"/>
      <point x="234" y="374" type="curve" smooth="yes"/>
      <point x="234" y="532" type="line" smooth="yes"/>
      <point x="234" y="558"/>
      <point x="239" y="563"/>
      <point x="265" y="563" type="curve" smooth="yes"/>
      <point x="417" y="563" type="line" smooth="yes"/>
      <point x="443" y="563"/>
      <point x="448" y="558"/>
      <point x="448" y="532" type="curve" smooth="yes"/>
    </contour>
  </outline>
</glyph>
<glyph name="nine" format="1">
  <advance width="679"/>
  <unicode hex="0039"/>
  <outline>
    <contour>
      <point x="239" y="187" type="line"/>
      <point x="78" y="187" type="line"/>
      <point x="78" y="79" type="line" smooth="yes"/>
      <point x="78" y="26"/>
      <point x="104" y="0"/>
      <point x="157" y="0" type="curve" smooth="yes"/>
      <point x="526" y="0" type="line" smooth="yes"/>
      <point x="579" y="0"/>
      <point x="605" y="26"/>
      <point x="605" y="79" type="curve" smooth="yes"/>
      <point x="605" y="543" type="line" smooth="yes"/>
      <point x="605" y="596"/>
      <point x="579" y="622"/>
      <point x="526" y="622" type="curve" smooth="yes"/>
      <point x="279" y="622" type="line"/>
      <point x="279" y="563" type="line"/>
      <point x="412" y="563" type="line" smooth="yes"/>
      <point x="438" y="563"/>
      <point x="443" y="558"/>
      <point x="443" y="532" type="curve" smooth="yes"/>
      <point x="443" y="90" type="line" smooth="yes"/>
      <point x="443" y="64"/>
      <point x="438" y="59"/>
      <point x="412" y="59" type="curve" smooth="yes"/>
      <point x="270" y="59" type="line" smooth="yes"/>
      <point x="244" y="59"/>
      <point x="239" y="64"/>
      <point x="239" y="90" type="curve" smooth="yes"/>
    </contour>
    <contour>
      <point x="231" y="532" type="line"/>
      <point x="231" y="558"/>
      <point x="236" y="563"/>
      <point x="262" y="563" type="curve" smooth="yes"/>
      <point x="288" y="563" type="line"/>
      <point x="288" y="622" type="line"/>
      <point x="148" y="622" type="line" smooth="yes"/>
      <point x="95" y="622"/>
      <point x="69" y="596"/>
      <point x="69" y="543" type="curve" smooth="yes"/>
      <point x="69" y="338" type="line" smooth="yes"/>
      <point x="69" y="285"/>
      <point x="95" y="259"/>
      <point x="148" y="259" type="curve" smooth="yes"/>
      <point x="463" y="259" type="line"/>
      <point x="463" y="318" type="line"/>
      <point x="262" y="318" type="line" smooth="yes"/>
      <point x="236" y="318"/>
      <point x="231" y="323"/>
      <point x="231" y="349" type="curve" smooth="yes"/>
    </contour>
  </outline>
</glyph>
<glyph name="colon" format="1">
  <advance width="284"/>
  <unicode hex="003A"/>
  <outline>
    <contour>
      <point x="58" y="168" type="line"/>
      <point x="226" y="168" type="line"/>
      <point x="226" y="299" type="line"/>
      <point x="58" y="299" type="line"/>
    </contour>
    <contour>
      <point x="58" y="186" type="line"/>
      <point x="226" y="186" type="line"/>
      <point x="226" y="317" type="line"/>
      <point x="58" y="317" type="line"/>
    </contour>
  </outline>
</glyph>
<glyph name="semicolon" format="1">
  <advance width="276"/>
  <unicode hex="003B"/>
  <outline>
    <contour>
      <point x="58" y="141" type="line"/>
      <point x="226" y="141" type="line"/>
      <point x="226" y="63" type="line"/>
      <point x="113" y="-139" type="line"/>
      <point x="58" y="-139" type="line"/>
    </contour>
    <contour>
      <point x="58" y="354" type="line"/>
      <point x="226" y="354" type="line"/>
      <point x="226" y="485" type="line"/>
      <point x="58" y="485" type="line"/>
    </contour>
  </outline>
</glyph>
<glyph name="less" format="1">
  <advance width="697"/>
  <unicode hex="003C"/>
  <outline>
    <contour>
      <point x="650" y="395" type="line"/>
      <point x="650" y="503" type="line"/>
      <point x="36" y="368" type="line"/>
      <point x="36" y="258" type="line"/>
      <point x="650" y="117" type="line"/>
      <point x="650" y="226" type="line"/>
      <point x="165" y="312" type="line"/>
    </contour>
  </outline>
</glyph>
<glyph name="equal" format="1">
  <advance width="716"/>
  <unicode hex="003D"/>
  <outline>
    <contour>
      <point x="67" y="358" type="line"/>
      <point x="649" y="358" type="line"/>
      <point x="649" y="459" type="line"/>
      <point x="67" y="459" type="line"/>
    </contour>
    <contour>
      <point x="67" y="161" type="line"/>
      <point x="649" y="161" type="line"/>
      <point x="649" y="262" type="line"/>
      <point x="67" y="262" type="line"/>
    </contour>
  </outline>
</glyph>
<glyph name="greater" format="1">
  <advance width="697"/>
  <unicode hex="003E"/>
  <outline>
    <contour>
      <point x="531" y="312" type="line"/>
      <point x="47" y="226" type="line"/>
      <point x="47" y="117" type="line"/>
      <point x="661" y="258" type="line"/>
      <point x="661" y="368" type="line"/>
      <point x="47" y="503" type="line"/>
      <point x="47" y="395" type="line"/>
    </contour>
  </outline>
</glyph>
<glyph name="question" format="1">
  <advance width="606"/>
  <unicode hex="003F"/>
  <outline>
    <contour>
      <point x="407" y="369" type="line"/>
      <point x="407" y="345"/>
      <point x="403" y="338"/>
      <point x="378" y="338" type="curve" smooth="yes"/>
      <point x="264" y="338" type="line"/>
      <point x="264" y="274" type="line"/>
      <point x="485" y="274" type="line" smooth="yes"/>
      <point x="539" y="274"/>
      <point x="564" y="303"/>
      <point x="564" y="352" type="curve" smooth="yes"/>
      <point x="564" y="544" type="line" smooth="yes"/>
      <point x="564" y="594"/>
      <point x="539" y="622"/>
      <point x="485" y="622" type="curve" smooth="yes"/>
      <point x="225" y="622" type="line"/>
      <point x="225" y="564" type="line"/>
      <point x="378" y="564" type="line" smooth="yes"/>
      <point x="403" y="564"/>
      <point x="407" y="556"/>
      <point x="407" y="531" type="curve" smooth="yes"/>
    </contour>
    <contour>
      <point x="209" y="338" type="line"/>
      <point x="222" y="206" type="line"/>
      <point x="352" y="206" type="line"/>
      <point x="366" y="338" type="line"/>
    </contour>
    <contour>
      <point x="201" y="0" type="line"/>
      <point x="369" y="0" type="line"/>
      <point x="369" y="131" type="line"/>
      <point x="201" y="131" type="line"/>
    </contour>
    <contour>
      <point x="182" y="531" type="line"/>
      <point x="182" y="556"/>
      <point x="186" y="564"/>
      <point x="212" y="564" type="curve" smooth="yes"/>
      <point x="356" y="564" type="line"/>
      <point x="356" y="622" type="line"/>
      <point x="105" y="622" type="line" smooth="yes"/>
      <point x="50" y="622"/>
      <point x="26" y="594"/>
      <point x="26" y="544" type="curve" smooth="yes"/>
      <point x="26" y="430" type="line"/>
      <point x="182" y="430" type="line"/>
    </contour>
  </outline>
</glyph>
<glyph name="at" format="1">
  <advance width="1140"/>
  <unicode hex="0040"/>
  <outline>
    <contour>
      <point x="409" y="426" type="line"/>
      <point x="363" y="426"/>
      <point x="340" y="403"/>
      <point x="340" y="357" type="curve" smooth="yes"/>
      <point x="340" y="147" type="line" smooth="yes"/>
      <point x="340" y="101"/>
      <point x="363" y="78"/>
      <point x="409" y="78" type="curve" smooth="yes"/>
      <point x="597" y="78" type="line" smooth="yes"/>
      <point x="626" y="78"/>
      <point x="647" y="88"/>
      <point x="651" y="114" type="curve"/>
      <point x="651" y="59" type="line"/>
      <point x="1002" y="59" type="line" smooth="yes"/>
      <point x="1048" y="59"/>
      <point x="1071" y="82"/>
      <point x="1071" y="128" type="curve" smooth="yes"/>
      <point x="1071" y="494" type="line" smooth="yes"/>
      <point x="1071" y="540"/>
      <point x="1048" y="563"/>
      <point x="1002" y="563" type="curve" smooth="yes"/>
      <point x="146" y="563" type="line" smooth="yes"/>
      <point x="99" y="563"/>
      <point x="77" y="540"/>
      <point x="77" y="494" type="curve" smooth="yes"/>
      <point x="77" y="-2" type="line" smooth="yes"/>
      <point x="77" y="-48"/>
      <point x="99" y="-71"/>
      <point x="146" y="-71" type="curve" smooth="yes"/>
      <point x="864" y="-71" type="line"/>
      <point x="864" y="-11" type="line"/>
      <point x="234" y="-11" type="line" smooth="yes"/>
      <point x="211" y="-11"/>
      <point x="207" y="-7"/>
      <point x="207" y="16" type="curve" smooth="yes"/>
      <point x="207" y="475" type="line" smooth="yes"/>
      <point x="207" y="498"/>
      <point x="211" y="503"/>
      <point x="234" y="503" type="curve" smooth="yes"/>
      <point x="914" y="503" type="line" smooth="yes"/>
      <point x="937" y="503"/>
      <point x="941" y="498"/>
      <point x="941" y="475" type="curve" smooth="yes"/>
      <point x="941" y="145" type="line" smooth="yes"/>
      <point x="941" y="122"/>
      <point x="937" y="118"/>
      <point x="914" y="118" type="curve" smooth="yes"/>
      <point x="777" y="118" type="line"/>
      <point x="777" y="426" type="line"/>
      <point x="647" y="426" type="line"/>
      <point x="647" y="399" type="line"/>
      <point x="639" y="417"/>
      <point x="622" y="426"/>
      <point x="597" y="426" type="curve" smooth="yes"/>
    </contour>
    <contour>
      <point x="470" y="340" type="line"/>
      <point x="470" y="362"/>
      <point x="474" y="367"/>
      <point x="497" y="367" type="curve" smooth="yes"/>
      <point x="615" y="367" type="line" smooth="yes"/>
      <point x="636" y="367"/>
      <point x="646" y="360"/>
      <point x="647" y="340" type="curve" smooth="yes"/>
      <point x="647" y="164" type="line" smooth="yes"/>
      <point x="646" y="144"/>
      <point x="636" y="137"/>
      <point x="615" y="137" type="curve" smooth="yes"/>
      <point x="497" y="137" type="line" smooth="yes"/>
      <point x="474" y="137"/>
      <point x="470" y="141"/>
      <point x="470" y="164" type="curve" smooth="yes"/>
    </contour>
  </outline>
</glyph>
<glyph name="A" format="1">
  <advance width="721"/>
  <unicode hex="0041"/>
  <outline>
    <contour>
      <point x="575" y="182" type="line"/>
      <point x="147" y="182" type="line"/>
      <point x="147" y="123" type="line"/>
      <point x="575" y="123" type="line"/>
    </contour>
    <contour>
      <point x="701" y="0" type="line"/>
      <point x="462" y="622" type="line"/>
      <point x="258" y="622" type="line"/>
      <point x="20" y="0" type="line"/>
      <point x="177" y="0" type="line"/>
      <point x="360" y="524" type="line"/>
      <point x="542" y="0" type="line"/>
    </contour>
  </outline>
</glyph>
<glyph name="B" format="1">
  <advance width="713"/>
  <unicode hex="0042"/>
  <outline>
    <contour>
      <point x="82" y="622" type="line"/>
      <point x="82" y="0" type="line"/>
      <point x="559" y="0" type="line" smooth="yes"/>
      <point x="612" y="0"/>
      <point x="638" y="26"/>
      <point x="638" y="79" type="curve" smooth="yes"/>
      <point x="638" y="249" type="line" smooth="yes"/>
      <point x="638" y="288"/>
      <point x="619" y="308"/>
      <point x="583" y="311" type="curve"/>
      <point x="619" y="313"/>
      <point x="638" y="335"/>
      <point x="638" y="375" type="curve" smooth="yes"/>
      <point x="638" y="543" type="line" smooth="yes"/>
      <point x="638" y="596"/>
      <point x="612" y="622"/>
      <point x="559" y="622" type="curve" smooth="yes"/>
    </contour>
    <contour>
      <point x="483" y="85" type="line"/>
      <point x="483" y="65"/>
      <point x="474" y="59"/>
      <point x="449" y="59" type="curve" smooth="yes"/>
      <point x="244" y="59" type="line"/>
      <point x="244" y="282" type="line"/>
      <point x="452" y="282" type="line" smooth="yes"/>
      <point x="478" y="282"/>
      <point x="483" y="277"/>
      <point x="483" y="251" type="curve" smooth="yes"/>
    </contour>
    <contour>
      <point x="483" y="372" type="line"/>
      <point x="483" y="346"/>
      <point x="478" y="341"/>
      <point x="452" y="341" type="curve" smooth="yes"/>
      <point x="244" y="341" type="line"/>
      <point x="244" y="563" type="line"/>
      <point x="452" y="563" type="line" smooth="yes"/>
      <point x="478" y="563"/>
      <point x="483" y="558"/>
      <point x="483" y="532" type="curve" smooth="yes"/>
    </contour>
  </outline>
</glyph>
<glyph name="C" format="1">
  <advance width="675"/>
  <unicode hex="0043"/>
  <outline>
    <contour>
      <point x="236" y="532" type="line"/>
      <point x="236" y="558"/>
      <point x="241" y="563"/>
      <point x="267" y="563" type="curve" smooth="yes"/>
      <point x="302" y="563" type="line"/>
      <point x="302" y="622" type="line"/>
      <point x="153" y="622" type="line" smooth="yes"/>
      <point x="100" y="622"/>
      <point x="74" y="596"/>
      <point x="74" y="543" type="curve" smooth="yes"/>
      <point x="74" y="79" type="line" smooth="yes"/>
      <point x="74" y="26"/>
      <point x="100" y="0"/>
      <point x="153" y="0" type="curve" smooth="yes"/>
      <point x="299" y="0" type="line"/>
      <point x="299" y="59" type="line"/>
      <point x="267" y="59" type="line" smooth="yes"/>
      <point x="241" y="59"/>
      <point x="236" y="64"/>
      <point x="236" y="90" type="curve" smooth="yes"/>
    </contour>
    <contour>
      <point x="460" y="403" type="line"/>
      <point x="622" y="403" type="line"/>
      <point x="622" y="543" type="line" smooth="yes"/>
      <point x="622" y="596"/>
      <point x="596" y="622"/>
      <point x="543" y="622" type="curve" smooth="yes"/>
      <point x="283" y="622" type="line"/>
      <point x="283" y="563" type="line"/>
      <point x="429" y="563" type="line" smooth="yes"/>
      <point x="455" y="563"/>
      <point x="460" y="558"/>
      <point x="460" y="532" type="curve" smooth="yes"/>
    </contour>
    <contour>
      <point x="460" y="90" type="line"/>
      <point x="460" y="64"/>
      <point x="455" y="59"/>
      <point x="429" y="59" type="curve" smooth="yes"/>
      <point x="283" y="59" type="line"/>
      <point x="283" y="0" type="line"/>
      <point x="543" y="0" type="line" smooth="yes"/>
      <point x="596" y="0"/>
      <point x="622" y="26"/>
      <point x="622" y="79" type="curve" smooth="yes"/>
      <point x="622" y="218" type="line"/>
      <point x="460" y="218" type="line"/>
    </contour>
  </outline>
</glyph>
<glyph name="D" format="1">
  <advance width="715"/>
  <unicode hex="0044"/>
  <outline>
    <contour>
      <point x="478" y="380" type="line"/>
      <point x="640" y="380" type="line"/>
      <point x="640" y="543" type="line" smooth="yes"/>
      <point x="640" y="596"/>
      <point x="614" y="622"/>
      <point x="561" y="622" type="curve" smooth="yes"/>
      <point x="143" y="622" type="line"/>
      <point x="143" y="563" type="line"/>
      <point x="447" y="563" type="line" smooth="yes"/>
      <point x="473" y="563"/>
      <point x="478" y="558"/>
      <point x="478" y="532" type="curve" smooth="yes"/>
    </contour>
    <contour>
      <point x="478" y="90" type="line"/>
      <point x="478" y="64"/>
      <point x="473" y="59"/>
      <point x="447" y="59" type="curve" smooth="yes"/>
      <point x="143" y="59" type="line"/>
      <point x="143" y="0" type="line"/>
      <point x="561" y="0" type="line" smooth="yes"/>
      <point x="614" y="0"/>
      <point x="640" y="26"/>
      <point x="640" y="79" type="curve" smooth="yes"/>
      <point x="640" y="398" type="line"/>
      <point x="478" y="398" type="line"/>
    </contour>
    <contour>
      <point x="82" y="622" type="line"/>
      <point x="82" y="0" type="line"/>
      <point x="244" y="0" type="line"/>
      <point x="244" y="622" type="line"/>
    </contour>
  </outline>
</glyph>
<glyph name="E" format="1">
  <advance width="611"/>
  <unicode hex="0045"/>
  <outline>
    <contour>
      <point x="82" y="622" type="line"/>
      <point x="82" y="0" type="line"/>
      <point x="249" y="0" type="line"/>
      <point x="249" y="622" type="line"/>
    </contour>
    <contour>
      <point x="518" y="348" type="line"/>
      <point x="158" y="348" type="line"/>
      <point x="158" y="289" type="line"/>
      <point x="518" y="289" type="line"/>
    </contour>
    <contour>
      <point x="559" y="622" type="line"/>
      <point x="149" y="622" type="line"/>
      <point x="149" y="563" type="line"/>
      <point x="559" y="563" type="line"/>
    </contour>
    <contour>
      <point x="572" y="59" type="line"/>
      <point x="149" y="59" type="line"/>
      <point x="149" y="0" type="line"/>
      <point x="572" y="0" type="line"/>
    </contour>
  </outline>
</glyph>
<glyph name="F" format="1">
  <advance width="587"/>
  <unicode hex="0046"/>
  <outline>
    <contour>
      <point x="82" y="622" type="line"/>
      <point x="82" y="0" type="line"/>
      <point x="249" y="0" type="line"/>
      <point x="249" y="622" type="line"/>
    </contour>
    <contour>
      <point x="520" y="324" type="line"/>
      <point x="159" y="324" type="line"/>
      <point x="159" y="265" type="line"/>
      <point x="520" y="265" type="line"/>
    </contour>
    <contour>
      <point x="559" y="622" type="line"/>
      <point x="149" y="622" type="line"/>
      <point x="149" y="563" type="line"/>
      <point x="559" y="563" type="line"/>
    </contour>
  </outline>
</glyph>
<glyph name="G" format="1">
  <advance width="689"/>
  <unicode hex="0047"/>
  <outline>
    <contour>
      <point x="236" y="532" type="line"/>
      <point x="236" y="558"/>
      <point x="241" y="563"/>
      <point x="267" y="563" type="curve" smooth="yes"/>
      <point x="302" y="563" type="line"/>
      <point x="302" y="622" type="line"/>
      <point x="153" y="622" type="line" smooth="yes"/>
      <point x="100" y="622"/>
      <point x="74" y="596"/>
      <point x="74" y="543" type="curve" smooth="yes"/>
      <point x="74" y="79" type="line" smooth="yes"/>
      <point x="74" y="26"/>
      <point x="100" y="0"/>
      <point x="153" y="0" type="curve" smooth="yes"/>
      <point x="297" y="0" type="line"/>
      <point x="297" y="59" type="line"/>
      <point x="267" y="59" type="line" smooth="yes"/>
      <point x="241" y="59"/>
      <point x="236" y="64"/>
      <point x="236" y="90" type="curve" smooth="yes"/>
    </contour>
    <contour>
      <point x="623" y="320" type="line"/>
      <point x="340" y="320" type="line"/>
      <point x="340" y="261" type="line"/>
      <point x="623" y="261" type="line"/>
    </contour>
    <contour>
      <point x="461" y="423" type="line"/>
      <point x="623" y="423" type="line"/>
      <point x="623" y="543" type="line" smooth="yes"/>
      <point x="623" y="596"/>
      <point x="597" y="622"/>
      <point x="544" y="622" type="curve" smooth="yes"/>
      <point x="283" y="622" type="line"/>
      <point x="283" y="563" type="line"/>
      <point x="430" y="563" type="line" smooth="yes"/>
      <point x="456" y="563"/>
      <point x="461" y="558"/>
      <point x="461" y="532" type="curve" smooth="yes"/>
    </contour>
    <contour>
      <point x="462" y="90" type="line"/>
      <point x="462" y="64"/>
      <point x="457" y="59"/>
      <point x="431" y="59" type="curve" smooth="yes"/>
      <point x="286" y="59" type="line"/>
      <point x="286" y="0" type="line"/>
      <point x="544" y="0" type="line" smooth="yes"/>
      <point x="597" y="0"/>
      <point x="623" y="26"/>
      <point x="623" y="79" type="curve" smooth="yes"/>
      <point x="623" y="275" type="line"/>
      <point x="462" y="275" type="line"/>
    </contour>
  </outline>
</glyph>
<glyph name="H" format="1">
  <advance width="761"/>
  <unicode hex="0048"/>
  <outline>
    <contour>
      <point x="554" y="341" type="line"/>
      <point x="204" y="341" type="line"/>
      <point x="204" y="282" type="line"/>
      <point x="554" y="282" type="line"/>
    </contour>
    <contour>
      <point x="82" y="622" type="line"/>
      <point x="82" y="0" type="line"/>
      <point x="244" y="0" type="line"/>
      <point x="244" y="622" type="line"/>
    </contour>
    <contour>
      <point x="517" y="622" type="line"/>
      <point x="517" y="0" type="line"/>
      <point x="679" y="0" type="line"/>
      <point x="679" y="622" type="line"/>
    </contour>
  </outline>
</glyph>
<glyph name="I" format="1">
  <advance width="346"/>
  <unicode hex="0049"/>
  <outline>
    <contour>
      <point x="90" y="622" type="line"/>
      <point x="90" y="0" type="line"/>
      <point x="256" y="0" type="line"/>
      <point x="256" y="622" type="line"/>
    </contour>
  </outline>
</glyph>
<glyph name="J" format="1">
  <advance width="620"/>
  <unicode hex="004A"/>
  <outline>
    <contour>
      <point x="31" y="232" type="line"/>
      <point x="31" y="79" type="line" smooth="yes"/>
      <point x="31" y="26"/>
      <point x="57" y="0"/>
      <point x="110" y="0" type="curve" smooth="yes"/>
      <point x="467" y="0" type="line" smooth="yes"/>
      <point x="520" y="0"/>
      <point x="546" y="26"/>
      <point x="546" y="79" type="curve" smooth="yes"/>
      <point x="546" y="622" type="line"/>
      <point x="384" y="622" type="line"/>
      <point x="384" y="90" type="line" smooth="yes"/>
      <point x="384" y="64"/>
      <point x="379" y="59"/>
      <point x="353" y="59" type="curve" smooth="yes"/>
      <point x="224" y="59" type="line" smooth="yes"/>
      <point x="198" y="59"/>
      <point x="193" y="64"/>
      <point x="193" y="90" type="curve" smooth="yes"/>
      <point x="193" y="232" type="line"/>
    </contour>
  </outline>
</glyph>
<glyph name="K" format="1">
  <advance width="708"/>
  <unicode hex="004B"/>
  <outline>
    <contour>
      <point x="502" y="622" type="line"/>
      <point x="256" y="318" type="line"/>
      <point x="509" y="0" type="line"/>
      <point x="689" y="0" type="line"/>
      <point x="429" y="318" type="line"/>
      <point x="680" y="622" type="line"/>
    </contour>
    <contour>
      <point x="82" y="622" type="line"/>
      <point x="82" y="0" type="line"/>
      <point x="240" y="0" type="line"/>
      <point x="240" y="622" type="line"/>
    </contour>
  </outline>
</glyph>
<glyph name="L" format="1">
  <advance width="565"/>
  <unicode hex="004C"/>
  <outline>
    <contour>
      <point x="82" y="622" type="line"/>
      <point x="82" y="0" type="line"/>
      <point x="244" y="0" type="line"/>
      <point x="244" y="622" type="line"/>
    </contour>
    <contour>
      <point x="144" y="0" type="line"/>
      <point x="544" y="0" type="line"/>
      <point x="544" y="59" type="line"/>
      <point x="144" y="59" type="line"/>
    </contour>
  </outline>
</glyph>
<glyph name="M" format="1">
  <advance width="902"/>
  <unicode hex="004D"/>
  <outline>
    <contour>
      <point x="504" y="135" type="line"/>
      <point x="675" y="468" type="line"/>
      <point x="675" y="0" type="line"/>
      <point x="820" y="0" type="line"/>
      <point x="820" y="622" type="line"/>
      <point x="647" y="622" type="line"/>
      <point x="448" y="233" type="line"/>
      <point x="255" y="622" type="line"/>
      <point x="82" y="622" type="line"/>
      <point x="82" y="0" type="line"/>
      <point x="227" y="0" type="line"/>
      <point x="227" y="467" type="line"/>
      <point x="394" y="135" type="line"/>
    </contour>
  </outline>
</glyph>
<glyph name="N" format="1">
  <advance width="737"/>
  <unicode hex="004E"/>
  <outline>
    <contour>
      <point x="506" y="622" type="line"/>
      <point x="506" y="158" type="line"/>
      <point x="228" y="622" type="line"/>
      <point x="82" y="622" type="line"/>
      <point x="82" y="0" type="line"/>
      <point x="231" y="0" type="line"/>
      <point x="231" y="465" type="line"/>
      <point x="512" y="0" type="line"/>
      <point x="655" y="0" type="line"/>
      <point x="655" y="622" type="line"/>
    </contour>
  </outline>
</glyph>
<glyph name="O" format="1">
  <advance width="695"/>
  <unicode hex="004F"/>
  <outline>
    <contour>
      <point x="621" y="543" type="line"/>
      <point x="621" y="596"/>
      <point x="595" y="622"/>
      <point x="542" y="622" type="curve" smooth="yes"/>
      <point x="153" y="622" type="line" smooth="yes"/>
      <point x="100" y="622"/>
      <point x="74" y="596"/>
      <point x="74" y="543" type="curve" smooth="yes"/>
      <point x="74" y="79" type="line" smooth="yes"/>
      <point x="74" y="26"/>
      <point x="100" y="0"/>
      <point x="153" y="0" type="curve" smooth="yes"/>
      <point x="542" y="0" type="line" smooth="yes"/>
      <point x="595" y="0"/>
      <point x="621" y="26"/>
      <point x="621" y="79" type="curve" smooth="yes"/>
    </contour>
    <contour>
      <point x="460" y="90" type="line"/>
      <point x="460" y="64"/>
      <point x="455" y="59"/>
      <point x="429" y="59" type="curve" smooth="yes"/>
      <point x="267" y="59" type="line" smooth="yes"/>
      <point x="241" y="59"/>
      <point x="236" y="64"/>
      <point x="236" y="90" type="curve" smooth="yes"/>
      <point x="236" y="532" type="line" smooth="yes"/>
      <point x="236" y="558"/>
      <point x="241" y="563"/>
      <point x="267" y="563" type="curve" smooth="yes"/>
      <point x="429" y="563" type="line" smooth="yes"/>
      <point x="455" y="563"/>
      <point x="460" y="558"/>
      <point x="460" y="532" type="curve" smooth="yes"/>
    </contour>
  </outline>
</glyph>
<glyph name="P" format="1">
  <advance width="688"/>
  <unicode hex="0050"/>
  <outline>
    <contour>
      <point x="481" y="293" type="line"/>
      <point x="481" y="267"/>
      <point x="476" y="262"/>
      <point x="450" y="262" type="curve" smooth="yes"/>
      <point x="144" y="262" type="line"/>
      <point x="144" y="203" type="line"/>
      <point x="563" y="203" type="line" smooth="yes"/>
      <point x="616" y="203"/>
      <point x="642" y="229"/>
      <point x="642" y="282" type="curve" smooth="yes"/>
      <point x="642" y="543" type="line" smooth="yes"/>
      <point x="642" y="596"/>
      <point x="616" y="622"/>
      <point x="563" y="622" type="curve" smooth="yes"/>
      <point x="124" y="622" type="line"/>
      <point x="124" y="563" type="line"/>
      <point x="450" y="563" type="line" smooth="yes"/>
      <point x="476" y="563"/>
      <point x="481" y="558"/>
      <point x="481" y="532" type="curve" smooth="yes"/>
    </contour>
    <contour>
      <point x="82" y="622" type="line"/>
      <point x="82" y="0" type="line"/>
      <point x="244" y="0" type="line"/>
      <point x="244" y="622" type="line"/>
    </contour>
  </outline>
</glyph>
<glyph name="Q" format="1">
  <advance width="674"/>
  <unicode hex="0051"/>
  <outline>
    <contour>
      <point x="264" y="47" type="line"/>
      <point x="432" y="-97" type="line"/>
      <point x="617" y="-97" type="line"/>
      <point x="436" y="47" type="line"/>
    </contour>
    <contour>
      <point x="610" y="543" type="line"/>
      <point x="610" y="596"/>
      <point x="584" y="622"/>
      <point x="531" y="622" type="curve" smooth="yes"/>
      <point x="142" y="622" type="line" smooth="yes"/>
      <point x="89" y="622"/>
      <point x="63" y="596"/>
      <point x="63" y="543" type="curve" smooth="yes"/>
      <point x="63" y="79" type="line" smooth="yes"/>
      <point x="63" y="26"/>
      <point x="89" y="0"/>
      <point x="142" y="0" type="curve" smooth="yes"/>
      <point x="531" y="0" type="line" smooth="yes"/>
      <point x="584" y="0"/>
      <point x="610" y="26"/>
      <point x="610" y="79" type="curve" smooth="yes"/>
    </contour>
    <contour>
      <point x="451" y="90" type="line"/>
      <point x="451" y="64"/>
      <point x="446" y="59"/>
      <point x="420" y="59" type="curve" smooth="yes"/>
      <point x="253" y="59" type="line" smooth="yes"/>
      <point x="227" y="59"/>
      <point x="222" y="64"/>
      <point x="222" y="90" type="curve" smooth="yes"/>
      <point x="222" y="532" type="line" smooth="yes"/>
      <point x="222" y="558"/>
      <point x="227" y="563"/>
      <point x="253" y="563" type="curve" smooth="yes"/>
      <point x="420" y="563" type="line" smooth="yes"/>
      <point x="446" y="563"/>
      <point x="451" y="558"/>
      <point x="451" y="532" type="curve" smooth="yes"/>
    </contour>
  </outline>
</glyph>
<glyph name="R" format="1">
  <advance width="707"/>
  <unicode hex="0052"/>
  <outline>
    <contour>
      <point x="481" y="313" type="line"/>
      <point x="481" y="287"/>
      <point x="476" y="282"/>
      <point x="450" y="282" type="curve" smooth="yes"/>
      <point x="144" y="282" type="line"/>
      <point x="144" y="223" type="line"/>
      <point x="563" y="223" type="line" smooth="yes"/>
      <point x="616" y="223"/>
      <point x="642" y="249"/>
      <point x="642" y="302" type="curve" smooth="yes"/>
      <point x="642" y="543" type="line" smooth="yes"/>
      <point x="642" y="596"/>
      <point x="616" y="622"/>
      <point x="563" y="622" type="curve" smooth="yes"/>
      <point x="124" y="622" type="line"/>
      <point x="124" y="563" type="line"/>
      <point x="450" y="563" type="line" smooth="yes"/>
      <point x="476" y="563"/>
      <point x="481" y="558"/>
      <point x="481" y="532" type="curve" smooth="yes"/>
    </contour>
    <contour>
      <point x="82" y="622" type="line"/>
      <point x="82" y="0" type="line"/>
      <point x="244" y="0" type="line"/>
      <point x="244" y="622" type="line"/>
    </contour>
    <contour>
      <point x="332" y="258" type="line"/>
      <point x="487" y="0" type="line"/>
      <point x="655" y="0" type="line"/>
      <point x="492" y="258" type="line"/>
    </contour>
  </outline>
</glyph>
<glyph name="S" format="1">
  <advance width="669"/>
  <unicode hex="0053"/>
  <outline>
    <contour>
      <point x="443" y="90" type="line"/>
      <point x="443" y="64"/>
      <point x="438" y="59"/>
      <point x="412" y="59" type="curve" smooth="yes"/>
      <point x="258" y="59" type="line" smooth="yes"/>
      <point x="232" y="59"/>
      <point x="227" y="64"/>
      <point x="227" y="90" type="curve" smooth="yes"/>
      <point x="227" y="190" type="line"/>
      <point x="66" y="190" type="line"/>
      <point x="66" y="79" type="line" smooth="yes"/>
      <point x="66" y="26"/>
      <point x="92" y="0"/>
      <point x="145" y="0" type="curve" smooth="yes"/>
      <point x="525" y="0" type="line" smooth="yes"/>
      <point x="578" y="0"/>
      <point x="604" y="26"/>
      <point x="604" y="79" type="curve" smooth="yes"/>
      <point x="604" y="264" type="line" smooth="yes"/>
      <point x="604" y="317"/>
      <point x="578" y="343"/>
      <point x="525" y="343" type="curve" smooth="yes"/>
      <point x="256" y="343" type="line" smooth="yes"/>
      <point x="230" y="343"/>
      <point x="225" y="348"/>
      <point x="225" y="374" type="curve" smooth="yes"/>
      <point x="225" y="532" type="line" smooth="yes"/>
      <point x="225" y="558"/>
      <point x="230" y="563"/>
      <point x="256" y="563" type="curve" smooth="yes"/>
      <point x="409" y="563" type="line" smooth="yes"/>
      <point x="435" y="563"/>
      <point x="440" y="558"/>
      <point x="440" y="532" type="curve" smooth="yes"/>
      <point x="440" y="432" type="line"/>
      <point x="601" y="432" type="line"/>
      <point x="601" y="543" type="line" smooth="yes"/>
      <point x="601" y="596"/>
      <point x="575" y="622"/>
      <point x="522" y="622" type="curve" smooth="yes"/>
      <point x="142" y="622" type="line" smooth="yes"/>
      <point x="89" y="622"/>
      <point x="63" y="596"/>
      <point x="63" y="543" type="curve" smooth="yes"/>
      <point x="63" y="363" type="line" smooth="yes"/>
      <point x="63" y="310"/>
      <point x="89" y="284"/>
      <point x="142" y="284" type="curve" smooth="yes"/>
      <point x="412" y="284" type="line" smooth="yes"/>
      <point x="438" y="284"/>
      <point x="443" y="279"/>
      <point x="443" y="253" type="curve" smooth="yes"/>
    </contour>
  </outline>
</glyph>
<glyph name="T" format="1">
  <advance width="583"/>
  <unicode hex="0054"/>
  <outline>
    <contour>
      <point x="210" y="598" type="line"/>
      <point x="210" y="0" type="line"/>
      <point x="371" y="0" type="line"/>
      <point x="371" y="598" type="line"/>
    </contour>
    <contour>
      <point x="575" y="622" type="line"/>
      <point x="8" y="622" type="line"/>
      <point x="8" y="563" type="line"/>
      <point x="575" y="563" type="line"/>
    </contour>
  </outline>
</glyph>
<glyph name="U" format="1">
  <advance width="705"/>
  <unicode hex="0055"/>
  <outline>
    <contour>
      <point x="236" y="622" type="line"/>
      <point x="74" y="622" type="line"/>
      <point x="74" y="79" type="line" smooth="yes"/>
      <point x="74" y="26"/>
      <point x="100" y="0"/>
      <point x="153" y="0" type="curve" smooth="yes"/>
      <point x="552" y="0" type="line" smooth="yes"/>
      <point x="605" y="0"/>
      <point x="631" y="26"/>
      <point x="631" y="79" type="curve" smooth="yes"/>
      <point x="631" y="622" type="line"/>
      <point x="470" y="622" type="line"/>
      <point x="470" y="90" type="line" smooth="yes"/>
      <point x="470" y="64"/>
      <point x="465" y="59"/>
      <point x="439" y="59" type="curve" smooth="yes"/>
      <point x="267" y="59" type="line" smooth="yes"/>
      <point x="241" y="59"/>
      <point x="236" y="64"/>
      <point x="236" y="90" type="curve" smooth="yes"/>
    </contour>
  </outline>
</glyph>
<glyph name="V" format="1">
  <advance width="711"/>
  <unicode hex="0056"/>
  <outline>
    <contour>
      <point x="526" y="622" type="line"/>
      <point x="355" y="107" type="line"/>
      <point x="186" y="622" type="line"/>
      <point x="23" y="622" type="line"/>
      <point x="256" y="0" type="line"/>
      <point x="454" y="0" type="line"/>
      <point x="688" y="622" type="line"/>
    </contour>
  </outline>
</glyph>
<glyph name="W" format="1">
  <advance width="1098"/>
  <unicode hex="0057"/>
  <outline>
    <contour>
      <point x="918" y="622" type="line"/>
      <point x="773" y="113" type="line"/>
      <point x="629" y="622" type="line"/>
      <point x="467" y="622" type="line"/>
      <point x="323" y="113" type="line"/>
      <point x="187" y="622" type="line"/>
      <point x="23" y="622" type="line"/>
      <point x="226" y="0" type="line"/>
      <point x="420" y="0" type="line"/>
      <point x="548" y="454" type="line"/>
      <point x="677" y="0" type="line"/>
      <point x="871" y="0" type="line"/>
      <point x="1075" y="622" type="line"/>
    </contour>
  </outline>
</glyph>
<glyph name="X" format="1">
  <advance width="698"/>
  <unicode hex="0058"/>
  <outline>
    <contour>
      <point x="435" y="322" type="line"/>
      <point x="656" y="622" type="line"/>
      <point x="489" y="622" type="line"/>
      <point x="346" y="412" type="line"/>
      <point x="202" y="622" type="line"/>
      <point x="28" y="622" type="line"/>
      <point x="258" y="312" type="line"/>
      <point x="20" y="0" type="line"/>
      <point x="186" y="0" type="line"/>
      <point x="346" y="224" type="line"/>
      <point x="505" y="0" type="line"/>
      <point x="678" y="0" type="line"/>
    </contour>
  </outline>
</glyph>
<glyph name="Y" format="1">
  <advance width="678"/>
  <unicode hex="0059"/>
  <outline>
    <contour>
      <point x="415" y="187" type="line"/>
      <point x="672" y="622" type="line"/>
      <point x="513" y="622" type="line"/>
      <point x="344" y="298" type="line"/>
      <point x="166" y="622" type="line"/>
      <point x="6" y="622" type="line"/>
      <point x="275" y="187" type="line"/>
    </contour>
    <contour>
      <point x="265" y="252" type="line"/>
      <point x="265" y="0" type="line"/>
      <point x="426" y="0" type="line"/>
      <point x="426" y="252" type="line"/>
    </contour>
  </outline>
</glyph>
<glyph name="Z" format="1">
  <advance width="641"/>
  <unicode hex="005A"/>
  <outline>
    <contour>
      <point x="595" y="622" type="line"/>
      <point x="61" y="622" type="line"/>
      <point x="61" y="563" type="line"/>
      <point x="595" y="563" type="line"/>
    </contour>
    <contour>
      <point x="411" y="563" type="line"/>
      <point x="47" y="59" type="line"/>
      <point x="230" y="59" type="line"/>
      <point x="595" y="563" type="line"/>
    </contour>
    <contour>
      <point x="585" y="59" type="line"/>
      <point x="47" y="59" type="line"/>
      <point x="47" y="0" type="line"/>
      <point x="585" y="0" type="line"/>
    </contour>
  </outline>
</glyph>
<glyph name="bracketleft" format="1">
  <advance width="353"/>
  <unicode hex="005B"/>
  <outline>
    <contour>
      <point x="142" y="661" type="line"/>
      <point x="390" y="661" type="line"/>
      <point x="390" y="720" type="line"/>
      <point x="142" y="720" type="line"/>
    </contour>
    <contour>
      <point x="80" y="720" type="line"/>
      <point x="80" y="-220" type="line"/>
      <point x="242" y="-220" type="line"/>
      <point x="242" y="720" type="line"/>
    </contour>
    <contour>
      <point x="136" y="-220" type="line"/>
      <point x="390" y="-220" type="line"/>
      <point x="390" y="-161" type="line"/>
      <point x="136" y="-161" type="line"/>
    </contour>
  </outline>
</glyph>
<glyph name="backslash" format="1">
  <advance width="451"/>
  <unicode hex="005C"/>
  <outline>
    <contour>
      <point x="-77" y="699" type="line"/>
      <point x="343" y="-136" type="line"/>
      <point x="481" y="-136" type="line"/>
      <point x="61" y="699" type="line"/>
    </contour>
  </outline>
</glyph>
<glyph name="bracketright" format="1">
  <advance width="353"/>
  <unicode hex="005D"/>
  <outline>
    <contour>
      <point x="212" y="720" type="line"/>
      <point x="-37" y="720" type="line"/>
      <point x="-37" y="661" type="line"/>
      <point x="212" y="661" type="line"/>
    </contour>
    <contour>
      <point x="112" y="720" type="line"/>
      <point x="112" y="-220" type="line"/>
      <point x="274" y="-220" type="line"/>
      <point x="274" y="720" type="line"/>
    </contour>
    <contour>
      <point x="217" y="-161" type="line"/>
      <point x="-37" y="-161" type="line"/>
      <point x="-37" y="-220" type="line"/>
      <point x="217" y="-220" type="line"/>
    </contour>
  </outline>
</glyph>
<glyph name="asciicircum" format="1">
  <advance width="652"/>
  <unicode hex="005E"/>
  <outline>
    <contour>
      <point x="234" y="668" type="line"/>
      <point x="34" y="328" type="line"/>
      <point x="180" y="328" type="line"/>
      <point x="326" y="580" type="line"/>
      <point x="471" y="328" type="line"/>
      <point x="618" y="328" type="line"/>
      <point x="418" y="668" type="line"/>
    </contour>
  </outline>
</glyph>
<glyph name="underscore" format="1">
  <advance width="624"/>
  <unicode hex="005F"/>
  <outline>
    <contour>
      <point x="4" y="-59" type="line"/>
      <point x="620" y="-59" type="line"/>
      <point x="620" y="0" type="line"/>
      <point x="4" y="0" type="line"/>
    </contour>
  </outline>
</glyph>
<glyph name="grave" format="1">
  <advance width="553"/>
  <unicode hex="0060"/>
  <outline>
    <contour>
      <point x="326" y="654" type="line"/>
      <point x="164" y="654" type="line"/>
      <point x="333" y="506" type="line"/>
      <point x="465" y="506" type="line"/>
    </contour>
  </outline>
</glyph>
<glyph name="a" format="1">
  <advance width="651"/>
  <unicode hex="0061"/>
  <outline>
    <contour>
      <point x="221" y="229" type="line"/>
      <point x="221" y="395" type="line" smooth="yes"/>
      <point x="221" y="421"/>
      <point x="226" y="426"/>
      <point x="252" y="426" type="curve" smooth="yes"/>
      <point x="387" y="426" type="line" smooth="yes"/>
      <point x="412" y="426"/>
      <point x="423" y="417"/>
      <point x="423" y="394" type="curve" smooth="yes"/>
      <point x="423" y="367" type="line"/>
      <point x="429" y="367" type="line"/>
      <point x="429" y="409" type="line" smooth="yes"/>
      <point x="429" y="459"/>
      <point x="415" y="485"/>
      <point x="366" y="485" type="curve" smooth="yes"/>
      <point x="146" y="485" type="line" smooth="yes"/>
      <point x="93" y="485"/>
      <point x="67" y="459"/>
      <point x="67" y="406" type="curve" smooth="yes"/>
      <point x="67" y="229" type="line"/>
    </contour>
    <contour>
      <point x="577" y="0" type="line"/>
      <point x="577" y="485" type="line"/>
      <point x="423" y="485" type="line"/>
      <point x="423" y="0" type="line"/>
    </contour>
    <contour>
      <point x="67" y="256" type="line"/>
      <point x="67" y="79" type="line" smooth="yes"/>
      <point x="67" y="26"/>
      <point x="93" y="0"/>
      <point x="146" y="0" type="curve" smooth="yes"/>
      <point x="366" y="0" type="line" smooth="yes"/>
      <point x="415" y="0"/>
      <point x="429" y="26"/>
      <point x="429" y="76" type="curve" smooth="yes"/>
      <point x="429" y="117" type="line"/>
      <point x="423" y="117" type="line"/>
      <point x="423" y="91" type="line" smooth="yes"/>
      <point x="423" y="68"/>
      <point x="412" y="59"/>
      <point x="387" y="59" type="curve" smooth="yes"/>
      <point x="252" y="59" type="line" smooth="yes"/>
      <point x="226" y="59"/>
      <point x="221" y="64"/>
      <point x="221" y="90" type="curve" smooth="yes"/>
      <point x="221" y="256" type="line"/>
    </contour>
  </outline>
</glyph>
<glyph name="b" format="1">
  <advance width="651"/>
  <unicode hex="0062"/>
  <outline>
    <contour>
      <point x="430" y="257" type="line"/>
      <point x="430" y="90" type="line" smooth="yes"/>
      <point x="430" y="64"/>
      <point x="425" y="59"/>
      <point x="399" y="59" type="curve" smooth="yes"/>
      <point x="265" y="59" type="line" smooth="yes"/>
      <point x="240" y="59"/>
      <point x="230" y="68"/>
      <point x="230" y="91" type="curve" smooth="yes"/>
      <point x="230" y="116" type="line"/>
      <point x="223" y="116" type="line"/>
      <point x="223" y="76" type="line" smooth="yes"/>
      <point x="223" y="26"/>
      <point x="237" y="0"/>
      <point x="286" y="0" type="curve" smooth="yes"/>
      <point x="506" y="0" type="line" smooth="yes"/>
      <point x="559" y="0"/>
      <point x="585" y="26"/>
      <point x="585" y="79" type="curve" smooth="yes"/>
      <point x="585" y="257" type="line"/>
    </contour>
    <contour>
      <point x="585" y="230" type="line"/>
      <point x="585" y="406" type="line" smooth="yes"/>
      <point x="585" y="459"/>
      <point x="559" y="485"/>
      <point x="506" y="485" type="curve" smooth="yes"/>
      <point x="286" y="485" type="line" smooth="yes"/>
      <point x="237" y="485"/>
      <point x="223" y="459"/>
      <point x="223" y="409" type="curve" smooth="yes"/>
      <point x="223" y="363" type="line"/>
      <point x="230" y="363" type="line"/>
      <point x="230" y="394" type="line" smooth="yes"/>
      <point x="230" y="417"/>
      <point x="240" y="426"/>
      <point x="265" y="426" type="curve" smooth="yes"/>
      <point x="399" y="426" type="line" smooth="yes"/>
      <point x="425" y="426"/>
      <point x="430" y="421"/>
      <point x="430" y="395" type="curve" smooth="yes"/>
      <point x="430" y="230" type="line"/>
    </contour>
    <contour>
      <point x="74" y="669" type="line"/>
      <point x="74" y="0" type="line"/>
      <point x="229" y="0" type="line"/>
      <point x="229" y="669" type="line"/>
    </contour>
  </outline>
</glyph>
<glyph name="c" format="1">
  <advance width="615"/>
  <unicode hex="0063"/>
  <outline>
    <contour>
      <point x="221" y="395" type="line"/>
      <point x="221" y="421"/>
      <point x="226" y="426"/>
      <point x="252" y="426" type="curve" smooth="yes"/>
      <point x="368" y="426" type="line"/>
      <point x="368" y="485" type="line"/>
      <point x="146" y="485" type="line" smooth="yes"/>
      <point x="93" y="485"/>
      <point x="67" y="459"/>
      <point x="67" y="406" type="curve" smooth="yes"/>
      <point x="67" y="79" type="line" smooth="yes"/>
      <point x="67" y="26"/>
      <point x="93" y="0"/>
      <point x="146" y="0" type="curve" smooth="yes"/>
      <point x="364" y="0" type="line"/>
      <point x="364" y="59" type="line"/>
      <point x="252" y="59" type="line" smooth="yes"/>
      <point x="226" y="59"/>
      <point x="221" y="64"/>
      <point x="221" y="90" type="curve" smooth="yes"/>
    </contour>
    <contour>
      <point x="415" y="316" type="line"/>
      <point x="566" y="316" type="line"/>
      <point x="566" y="406" type="line" smooth="yes"/>
      <point x="566" y="459"/>
      <point x="540" y="485"/>
      <point x="487" y="485" type="curve" smooth="yes"/>
      <point x="267" y="485" type="line"/>
      <point x="267" y="426" type="line"/>
      <point x="384" y="426" type="line" smooth="yes"/>
      <point x="410" y="426"/>
      <point x="415" y="421"/>
      <point x="415" y="395" type="curve" smooth="yes"/>
    </contour>
    <contour>
      <point x="415" y="90" type="line"/>
      <point x="415" y="64"/>
      <point x="410" y="59"/>
      <point x="384" y="59" type="curve" smooth="yes"/>
      <point x="267" y="59" type="line"/>
      <point x="267" y="0" type="line"/>
      <point x="487" y="0" type="line" smooth="yes"/>
      <point x="540" y="0"/>
      <point x="566" y="26"/>
      <point x="566" y="79" type="curve" smooth="yes"/>
      <point x="566" y="167" type="line"/>
      <point x="415" y="167" type="line"/>
    </contour>
  </outline>
</glyph>
<glyph name="e" format="1">
  <advance width="646"/>
  <unicode hex="0065"/>
  <outline>
    <contour>
      <point x="221" y="395" type="line"/>
      <point x="221" y="421"/>
      <point x="226" y="426"/>
      <point x="252" y="426" type="curve" smooth="yes"/>
      <point x="389" y="426" type="line"/>
      <point x="389" y="485" type="line"/>
      <point x="146" y="485" type="line" smooth="yes"/>
      <point x="93" y="485"/>
      <point x="67" y="459"/>
      <point x="67" y="406" type="curve" smooth="yes"/>
      <point x="67" y="79" type="line" smooth="yes"/>
      <point x="67" y="26"/>
      <point x="93" y="0"/>
      <point x="146" y="0" type="curve" smooth="yes"/>
      <point x="382" y="0" type="line"/>
      <point x="382" y="59" type="line"/>
      <point x="252" y="59" type="line" smooth="yes"/>
      <point x="226" y="59"/>
      <point x="221" y="64"/>
      <point x="221" y="90" type="curve" smooth="yes"/>
    </contour>
    <contour>
      <point x="437" y="243" type="line"/>
      <point x="587" y="243" type="line"/>
      <point x="587" y="406" type="line" smooth="yes"/>
      <point x="587" y="459"/>
      <point x="561" y="485"/>
      <point x="508" y="485" type="curve" smooth="yes"/>
      <point x="272" y="485" type="line"/>
      <point x="272" y="426" type="line"/>
      <point x="406" y="426" type="line" smooth="yes"/>
      <point x="432" y="426"/>
      <point x="437" y="421"/>
      <point x="437" y="395" type="curve" smooth="yes"/>
    </contour>
    <contour>
      <point x="435" y="90" type="line"/>
      <point x="435" y="64"/>
      <point x="430" y="59"/>
      <point x="404" y="59" type="curve" smooth="yes"/>
      <point x="272" y="59" type="line"/>
      <point x="272" y="0" type="line"/>
      <point x="506" y="0" type="line" smooth="yes"/>
      <point x="559" y="0"/>
      <point x="585" y="26"/>
      <point x="585" y="79" type="curve" smooth="yes"/>
      <point x="585" y="149" type="line"/>
      <point x="435" y="149" type="line"/>
    </contour>
    <contour>
      <point x="587" y="278" type="line"/>
      <point x="142" y="278" type="line"/>
      <point x="142" y="219" type="line"/>
      <point x="587" y="219" type="line"/>
    </contour>
  </outline>
</glyph>
<glyph name="f" format="1">
  <advance width="401"/>
  <unicode hex="0066"/>
  <outline>
    <contour>
      <point x="264" y="577" type="line"/>
      <point x="264" y="603"/>
      <point x="269" y="608"/>
      <point x="295" y="608" type="curve" smooth="yes"/>
      <point x="393" y="608" type="line"/>
      <point x="393" y="669" type="line"/>
      <point x="189" y="669" type="line" smooth="yes"/>
      <point x="136" y="669"/>
      <point x="110" y="643"/>
      <point x="110" y="590" type="curve" smooth="yes"/>
      <point x="110" y="0" type="line"/>
      <point x="264" y="0" type="line"/>
    </contour>
    <contour>
      <point x="393" y="485" type="line"/>
      <point x="38" y="485" type="line"/>
      <point x="38" y="426" type="line"/>
      <point x="393" y="426" type="line"/>
    </contour>
  </outline>
</glyph>
<glyph name="g" format="1">
  <advance width="646"/>
  <unicode hex="0067"/>
  <outline>
    <contour>
      <point x="67" y="257" type="line"/>
      <point x="67" y="79" type="line" smooth="yes"/>
      <point x="67" y="26"/>
      <point x="93" y="0"/>
      <point x="146" y="0" type="curve" smooth="yes"/>
      <point x="366" y="0" type="line" smooth="yes"/>
      <point x="415" y="0"/>
      <point x="429" y="26"/>
      <point x="429" y="76" type="curve" smooth="yes"/>
      <point x="429" y="116" type="line"/>
      <point x="423" y="116" type="line"/>
      <point x="423" y="91" type="line" smooth="yes"/>
      <point x="423" y="68"/>
      <point x="412" y="59"/>
      <point x="387" y="59" type="curve" smooth="yes"/>
      <point x="252" y="59" type="line" smooth="yes"/>
      <point x="226" y="59"/>
      <point x="221" y="64"/>
      <point x="221" y="90" type="curve" smooth="yes"/>
      <point x="221" y="257" type="line"/>
    </contour>
    <contour>
      <point x="221" y="229" type="line"/>
      <point x="221" y="395" type="line" smooth="yes"/>
      <point x="221" y="421"/>
      <point x="226" y="426"/>
      <point x="252" y="426" type="curve" smooth="yes"/>
      <point x="387" y="426" type="line" smooth="yes"/>
      <point x="412" y="426"/>
      <point x="423" y="417"/>
      <point x="423" y="394" type="curve" smooth="yes"/>
      <point x="423" y="364" type="line"/>
      <point x="429" y="364" type="line"/>
      <point x="429" y="409" type="line" smooth="yes"/>
      <point x="429" y="459"/>
      <point x="415" y="485"/>
      <point x="366" y="485" type="curve" smooth="yes"/>
      <point x="146" y="485" type="line" smooth="yes"/>
      <point x="93" y="485"/>
      <point x="67" y="459"/>
      <point x="67" y="406" type="curve" smooth="yes"/>
      <point x="67" y="229" type="line"/>
    </contour>
    <contour>
      <point x="423" y="-51" type="line"/>
      <point x="423" y="-77"/>
      <point x="418" y="-82"/>
      <point x="392" y="-82" type="curve" smooth="yes"/>
      <point x="91" y="-82" type="line"/>
      <point x="91" y="-141" type="line"/>
      <point x="499" y="-141" type="line" smooth="yes"/>
      <point x="552" y="-141"/>
      <point x="578" y="-115"/>
      <point x="578" y="-62" type="curve" smooth="yes"/>
      <point x="578" y="25" type="line"/>
      <point x="423" y="25" type="line"/>
    </contour>
    <contour>
      <point x="577" y="16" type="line"/>
      <point x="577" y="485" type="line"/>
      <point x="423" y="485" type="line"/>
      <point x="423" y="16" type="line"/>
    </contour>
  </outline>
</glyph>
<glyph name="i" format="1">
  <advance width="314"/>
  <unicode hex="0069"/>
  <outline>
    <contour>
      <point x="235" y="0" type="line"/>
      <point x="235" y="485" type="line"/>
      <point x="80" y="485" type="line"/>
      <point x="80" y="0" type="line"/>
    </contour>
    <contour>
      <point x="77" y="566" type="line"/>
      <point x="238" y="566" type="line"/>
      <point x="238" y="670" type="line"/>
      <point x="77" y="670" type="line"/>
    </contour>
  </outline>
</glyph>
<glyph name="j" format="1">
  <advance width="309"/>
  <unicode hex="006A"/>
  <outline>
    <contour>
      <point x="80" y="-51" type="line"/>
      <point x="80" y="-77"/>
      <point x="75" y="-82"/>
      <point x="49" y="-82" type="curve" smooth="yes"/>
      <point x="-34" y="-82" type="line"/>
      <point x="-34" y="-141" type="line"/>
      <point x="156" y="-141" type="line" smooth="yes"/>
      <point x="209" y="-141"/>
      <point x="235" y="-115"/>
      <point x="235" y="-62" type="curve" smooth="yes"/>
      <point x="235" y="485" type="line"/>
      <point x="80" y="485" type="line"/>
    </contour>
    <contour>
      <point x="77" y="566" type="line"/>
      <point x="238" y="566" type="line"/>
      <point x="238" y="670" type="line"/>
      <point x="77" y="670" type="line"/>
    </contour>
  </outline>
</glyph>
<glyph name="k" format="1">
  <advance width="639"/>
  <unicode hex="006B"/>
  <outline>
    <contour>
      <point x="229" y="0" type="line"/>
      <point x="229" y="669" type="line"/>
      <point x="74" y="669" type="line"/>
      <point x="74" y="0" type="line"/>
    </contour>
    <contour>
      <point x="246" y="245" type="line"/>
      <point x="450" y="0" type="line"/>
      <point x="620" y="0" type="line"/>
      <point x="409" y="245" type="line"/>
    </contour>
    <contour>
      <point x="409" y="245" type="line"/>
      <point x="620" y="485" type="line"/>
      <point x="451" y="485" type="line"/>
      <point x="246" y="245" type="line"/>
    </contour>
  </outline>
</glyph>
<glyph name="l" format="1">
  <advance width="319"/>
  <unicode hex="006C"/>
  <outline>
    <contour>
      <point x="237" y="0" type="line"/>
      <point x="237" y="669" type="line"/>
      <point x="82" y="669" type="line"/>
      <point x="82" y="0" type="line"/>
    </contour>
  </outline>
</glyph>
<glyph name="m" format="1">
  <advance width="988"/>
  <unicode hex="006D"/>
  <outline>
    <contour>
      <point x="579" y="0" type="line"/>
      <point x="579" y="406" type="line" smooth="yes"/>
      <point x="579" y="459"/>
      <point x="553" y="485"/>
      <point x="500" y="485" type="curve" smooth="yes"/>
      <point x="285" y="485" type="line" smooth="yes"/>
      <point x="236" y="485"/>
      <point x="222" y="459"/>
      <point x="222" y="409" type="curve" smooth="yes"/>
      <point x="222" y="364" type="line"/>
      <point x="229" y="364" type="line"/>
      <point x="229" y="394" type="line" smooth="yes"/>
      <point x="229" y="417"/>
      <point x="240" y="426"/>
      <point x="265" y="426" type="curve" smooth="yes"/>
      <point x="394" y="426" type="line" smooth="yes"/>
      <point x="420" y="426"/>
      <point x="425" y="421"/>
      <point x="425" y="395" type="curve" smooth="yes"/>
      <point x="425" y="0" type="line"/>
    </contour>
    <contour>
      <point x="922" y="0" type="line"/>
      <point x="922" y="406" type="line" smooth="yes"/>
      <point x="922" y="459"/>
      <point x="896" y="485"/>
      <point x="843" y="485" type="curve" smooth="yes"/>
      <point x="638" y="485" type="line" smooth="yes"/>
      <point x="591" y="485"/>
      <point x="570" y="459"/>
      <point x="570" y="409" type="curve" smooth="yes"/>
      <point x="570" y="359" type="line"/>
      <point x="579" y="359" type="line"/>
      <point x="579" y="389" type="line" smooth="yes"/>
      <point x="579" y="412"/>
      <point x="589" y="426"/>
      <point x="616" y="426" type="curve" smooth="yes"/>
      <point x="736" y="426" type="line" smooth="yes"/>
      <point x="762" y="426"/>
      <point x="767" y="421"/>
      <point x="767" y="395" type="curve" smooth="yes"/>
      <point x="767" y="0" type="line"/>
    </contour>
    <contour>
      <point x="229" y="0" type="line"/>
      <point x="229" y="485" type="line"/>
      <point x="74" y="485" type="line"/>
      <point x="74" y="0" type="line"/>
    </contour>
  </outline>
</glyph>
<glyph name="n" format="1">
  <advance width="651"/>
  <unicode hex="006E"/>
  <outline>
    <contour>
      <point x="229" y="0" type="line"/>
      <point x="229" y="485" type="line"/>
      <point x="74" y="485" type="line"/>
      <point x="74" y="0" type="line"/>
    </contour>
    <contour>
      <point x="585" y="0" type="line"/>
      <point x="585" y="406" type="line" smooth="yes"/>
      <point x="585" y="459"/>
      <point x="559" y="485"/>
      <point x="506" y="485" type="curve" smooth="yes"/>
      <point x="286" y="485" type="line" smooth="yes"/>
      <point x="237" y="485"/>
      <point x="223" y="459"/>
      <point x="223" y="409" type="curve" smooth="yes"/>
      <point x="223" y="364" type="line"/>
      <point x="230" y="364" type="line"/>
      <point x="230" y="394" type="line" smooth="yes"/>
      <point x="230" y="417"/>
      <point x="240" y="426"/>
      <point x="265" y="426" type="curve" smooth="yes"/>
      <point x="399" y="426" type="line" smooth="yes"/>
      <point x="425" y="426"/>
      <point x="430" y="421"/>
      <point x="430" y="395" type="curve" smooth="yes"/>
      <point x="430" y="0" type="line"/>
    </contour>
  </outline>
</glyph>
<glyph name="o" format="1">
  <advance width="647"/>
  <unicode hex="006F"/>
  <outline>
    <contour>
      <point x="426" y="90" type="line"/>
      <point x="426" y="64"/>
      <point x="421" y="59"/>
      <point x="395" y="59" type="curve" smooth="yes"/>
      <point x="268" y="59" type="line"/>
      <point x="268" y="0" type="line"/>
      <point x="501" y="0" type="line" smooth="yes"/>
      <point x="554" y="0"/>
      <point x="580" y="26"/>
      <point x="580" y="79" type="curve" smooth="yes"/>
      <point x="580" y="406" type="line" smooth="yes"/>
      <point x="580" y="459"/>
      <point x="554" y="485"/>
      <point x="501" y="485" type="curve" smooth="yes"/>
      <point x="366" y="485" type="line"/>
      <point x="366" y="426" type="line"/>
      <point x="395" y="426" type="line" smooth="yes"/>
      <point x="421" y="426"/>
      <point x="426" y="421"/>
      <point x="426" y="395" type="curve" smooth="yes"/>
    </contour>
    <contour>
      <point x="221" y="395" type="line"/>
      <point x="221" y="421"/>
      <point x="226" y="426"/>
      <point x="252" y="426" type="curve" smooth="yes"/>
      <point x="371" y="426" type="line"/>
      <point x="371" y="485" type="line"/>
      <point x="146" y="485" type="line" smooth="yes"/>
      <point x="93" y="485"/>
      <point x="67" y="459"/>
      <point x="67" y="406" type="curve" smooth="yes"/>
      <point x="67" y="79" type="line" smooth="yes"/>
      <point x="67" y="26"/>
      <point x="93" y="0"/>
      <point x="146" y="0" type="curve" smooth="yes"/>
      <point x="369" y="0" type="line"/>
      <point x="369" y="59" type="line"/>
      <point x="252" y="59" type="line" smooth="yes"/>
      <point x="226" y="59"/>
      <point x="221" y="64"/>
      <point x="221" y="90" type="curve" smooth="yes"/>
    </contour>
  </outline>
</glyph>
<glyph name="p" format="1">
  <advance width="657"/>
  <unicode hex="0070"/>
  <outline>
    <contour>
      <point x="590" y="229" type="line"/>
      <point x="590" y="406" type="line" smooth="yes"/>
      <point x="590" y="459"/>
      <point x="564" y="485"/>
      <point x="511" y="485" type="curve" smooth="yes"/>
      <point x="285" y="485" type="line" smooth="yes"/>
      <point x="236" y="485"/>
      <point x="222" y="459"/>
      <point x="222" y="409" type="curve" smooth="yes"/>
      <point x="222" y="363" type="line"/>
      <point x="229" y="363" type="line"/>
      <point x="229" y="393" type="line" smooth="yes"/>
      <point x="229" y="417"/>
      <point x="240" y="426"/>
      <point x="265" y="426" type="curve" smooth="yes"/>
      <point x="405" y="426" type="line" smooth="yes"/>
      <point x="431" y="426"/>
      <point x="436" y="421"/>
      <point x="436" y="395" type="curve" smooth="yes"/>
      <point x="436" y="229" type="line"/>
    </contour>
    <contour>
      <point x="229" y="-141" type="line"/>
      <point x="229" y="408" type="line"/>
      <point x="227" y="414" type="line"/>
      <point x="227" y="485" type="line"/>
      <point x="74" y="485" type="line"/>
      <point x="74" y="-141" type="line"/>
    </contour>
    <contour>
      <point x="436" y="257" type="line"/>
      <point x="436" y="90" type="line" smooth="yes"/>
      <point x="436" y="64"/>
      <point x="431" y="59"/>
      <point x="405" y="59" type="curve" smooth="yes"/>
      <point x="265" y="59" type="line" smooth="yes"/>
      <point x="240" y="59"/>
      <point x="229" y="68"/>
      <point x="229" y="91" type="curve" smooth="yes"/>
      <point x="229" y="116" type="line"/>
      <point x="222" y="116" type="line"/>
      <point x="222" y="76" type="line" smooth="yes"/>
      <point x="222" y="26"/>
      <point x="236" y="0"/>
      <point x="285" y="0" type="curve" smooth="yes"/>
      <point x="511" y="0" type="line" smooth="yes"/>
      <point x="564" y="0"/>
      <point x="590" y="26"/>
      <point x="590" y="79" type="curve" smooth="yes"/>
      <point x="590" y="257" type="line"/>
    </contour>
  </outline>
</glyph>
<glyph name="q" format="1">
  <advance width="653"/>
  <unicode hex="0071"/>
  <outline>
    <contour>
      <point x="241" y="229" type="line"/>
      <point x="241" y="395" type="line" smooth="yes"/>
      <point x="241" y="421"/>
      <point x="246" y="426"/>
      <point x="272" y="426" type="curve" smooth="yes"/>
      <point x="412" y="426" type="line" smooth="yes"/>
      <point x="437" y="426"/>
      <point x="447" y="417"/>
      <point x="447" y="393" type="curve" smooth="yes"/>
      <point x="447" y="363" type="line"/>
      <point x="454" y="363" type="line"/>
      <point x="454" y="409" type="line" smooth="yes"/>
      <point x="454" y="459"/>
      <point x="440" y="485"/>
      <point x="391" y="485" type="curve" smooth="yes"/>
      <point x="165" y="485" type="line" smooth="yes"/>
      <point x="112" y="485"/>
      <point x="86" y="459"/>
      <point x="86" y="406" type="curve" smooth="yes"/>
      <point x="86" y="229" type="line"/>
    </contour>
    <contour>
      <point x="602" y="-141" type="line"/>
      <point x="602" y="485" type="line"/>
      <point x="450" y="485" type="line"/>
      <point x="450" y="414" type="line"/>
      <point x="447" y="408" type="line"/>
      <point x="447" y="-141" type="line"/>
    </contour>
    <contour>
      <point x="86" y="257" type="line"/>
      <point x="86" y="79" type="line" smooth="yes"/>
      <point x="86" y="26"/>
      <point x="112" y="0"/>
      <point x="165" y="0" type="curve" smooth="yes"/>
      <point x="391" y="0" type="line" smooth="yes"/>
      <point x="440" y="0"/>
      <point x="454" y="26"/>
      <point x="454" y="76" type="curve" smooth="yes"/>
      <point x="454" y="116" type="line"/>
      <point x="447" y="116" type="line"/>
      <point x="447" y="91" type="line" smooth="yes"/>
      <point x="447" y="68"/>
      <point x="437" y="59"/>
      <point x="412" y="59" type="curve" smooth="yes"/>
      <point x="272" y="59" type="line" smooth="yes"/>
      <point x="246" y="59"/>
      <point x="241" y="64"/>
      <point x="241" y="90" type="curve" smooth="yes"/>
      <point x="241" y="257" type="line"/>
    </contour>
  </outline>
</glyph>
<glyph name="r" format="1">
  <advance width="413"/>
  <unicode hex="0072"/>
  <outline>
    <contour>
      <point x="405" y="486" type="line"/>
      <point x="329" y="486" type="line" smooth="yes"/>
      <point x="254" y="486"/>
      <point x="223" y="443"/>
      <point x="223" y="387" type="curve" smooth="yes"/>
      <point x="223" y="292" type="line"/>
      <point x="229" y="292" type="line"/>
      <point x="229" y="344" type="line" smooth="yes"/>
      <point x="229" y="391"/>
      <point x="251" y="420"/>
      <point x="300" y="420" type="curve" smooth="yes"/>
      <point x="405" y="420" type="line"/>
    </contour>
    <contour>
      <point x="229" y="0" type="line"/>
      <point x="229" y="485" type="line"/>
      <point x="74" y="485" type="line"/>
      <point x="74" y="0" type="line"/>
    </contour>
  </outline>
</glyph>
<glyph name="s" format="1">
  <advance width="601"/>
  <unicode hex="0073"/>
  <outline>
    <contour>
      <point x="391" y="89" type="line"/>
      <point x="391" y="63"/>
      <point x="386" y="58"/>
      <point x="360" y="58" type="curve" smooth="yes"/>
      <point x="245" y="58" type="line" smooth="yes"/>
      <point x="219" y="58"/>
      <point x="214" y="63"/>
      <point x="214" y="89" type="curve" smooth="yes"/>
      <point x="214" y="145" type="line"/>
      <point x="63" y="145" type="line"/>
      <point x="63" y="79" type="line" smooth="yes"/>
      <point x="63" y="26"/>
      <point x="89" y="0"/>
      <point x="142" y="0" type="curve" smooth="yes"/>
      <point x="466" y="0" type="line" smooth="yes"/>
      <point x="519" y="0"/>
      <point x="545" y="26"/>
      <point x="545" y="79" type="curve" smooth="yes"/>
      <point x="545" y="192" type="line" smooth="yes"/>
      <point x="545" y="245"/>
      <point x="519" y="271"/>
      <point x="466" y="271" type="curve" smooth="yes"/>
      <point x="245" y="271" type="line" smooth="yes"/>
      <point x="219" y="271"/>
      <point x="214" y="276"/>
      <point x="214" y="302" type="curve" smooth="yes"/>
      <point x="214" y="396" type="line" smooth="yes"/>
      <point x="214" y="422"/>
      <point x="219" y="427"/>
      <point x="245" y="427" type="curve" smooth="yes"/>
      <point x="358" y="427" type="line" smooth="yes"/>
      <point x="384" y="427"/>
      <point x="389" y="422"/>
      <point x="389" y="396" type="curve" smooth="yes"/>
      <point x="389" y="340" type="line"/>
      <point x="539" y="340" type="line"/>
      <point x="539" y="406" type="line" smooth="yes"/>
      <point x="539" y="459"/>
      <point x="513" y="485"/>
      <point x="460" y="485" type="curve" smooth="yes"/>
      <point x="139" y="485" type="line" smooth="yes"/>
      <point x="86" y="485"/>
      <point x="60" y="459"/>
      <point x="60" y="406" type="curve" smooth="yes"/>
      <point x="60" y="291" type="line" smooth="yes"/>
      <point x="60" y="238"/>
      <point x="86" y="212"/>
      <point x="139" y="212" type="curve" smooth="yes"/>
      <point x="360" y="212" type="line" smooth="yes"/>
      <point x="386" y="212"/>
      <point x="391" y="207"/>
      <point x="391" y="181" type="curve" smooth="yes"/>
    </contour>
  </outline>
</glyph>
<glyph name="t" format="1">
  <advance width="394"/>
  <unicode hex="0074"/>
  <outline>
    <contour>
      <point x="257" y="588" type="line"/>
      <point x="102" y="588" type="line"/>
      <point x="102" y="79" type="line" smooth="yes"/>
      <point x="102" y="26"/>
      <point x="128" y="0"/>
      <point x="181" y="0" type="curve" smooth="yes"/>
      <point x="363" y="0" type="line"/>
      <point x="363" y="62" type="line"/>
      <point x="288" y="62" type="line" smooth="yes"/>
      <point x="262" y="62"/>
      <point x="257" y="67"/>
      <point x="257" y="93" type="curve" smooth="yes"/>
    </contour>
    <contour>
      <point x="364" y="485" type="line"/>
      <point x="24" y="485" type="line"/>
      <point x="24" y="426" type="line"/>
      <point x="364" y="426" type="line"/>
    </contour>
  </outline>
</glyph>
<glyph name="u" format="1">
  <advance width="651"/>
  <unicode hex="0075"/>
  <outline>
    <contour>
      <point x="67" y="485" type="line"/>
      <point x="67" y="79" type="line" smooth="yes"/>
      <point x="67" y="26"/>
      <point x="93" y="0"/>
      <point x="146" y="0" type="curve" smooth="yes"/>
      <point x="366" y="0" type="line" smooth="yes"/>
      <point x="415" y="0"/>
      <point x="429" y="26"/>
      <point x="429" y="76" type="curve" smooth="yes"/>
      <point x="429" y="122" type="line"/>
      <point x="423" y="122" type="line"/>
      <point x="423" y="91" type="line" smooth="yes"/>
      <point x="423" y="68"/>
      <point x="412" y="59"/>
      <point x="387" y="59" type="curve" smooth="yes"/>
      <point x="252" y="59" type="line" smooth="yes"/>
      <point x="226" y="59"/>
      <point x="221" y="64"/>
      <point x="221" y="90" type="curve" smooth="yes"/>
      <point x="221" y="485" type="line"/>
    </contour>
    <contour>
      <point x="423" y="485" type="line"/>
      <point x="423" y="0" type="line"/>
      <point x="577" y="0" type="line"/>
      <point x="577" y="485" type="line"/>
    </contour>
  </outline>
</glyph>
<glyph name="v" format="1">
  <advance width="620"/>
  <unicode hex="0076"/>
  <outline>
    <contour>
      <point x="170" y="485" type="line"/>
      <point x="309" y="97" type="line"/>
      <point x="450" y="485" type="line"/>
      <point x="603" y="485" type="line"/>
      <point x="409" y="0" type="line"/>
      <point x="211" y="0" type="line"/>
      <point x="18" y="485" type="line"/>
    </contour>
  </outline>
</glyph>
<glyph name="w" format="1">
  <advance width="913"/>
  <unicode hex="0077"/>
  <outline>
    <contour>
      <point x="749" y="485" type="line"/>
      <point x="637" y="97" type="line"/>
      <point x="531" y="485" type="line"/>
      <point x="383" y="485" type="line"/>
      <point x="277" y="97" type="line"/>
      <point x="164" y="485" type="line"/>
      <point x="18" y="485" type="line"/>
      <point x="178" y="0" type="line"/>
      <point x="361" y="0" type="line"/>
      <point x="457" y="376" type="line"/>
      <point x="554" y="0" type="line"/>
      <point x="736" y="0" type="line"/>
      <point x="895" y="485" type="line"/>
    </contour>
  </outline>
</glyph>
<glyph name="x" format="1">
  <advance width="618"/>
  <unicode hex="0078"/>
  <outline>
    <contour>
      <point x="388" y="261" type="line"/>
      <point x="589" y="485" type="line"/>
      <point x="469" y="485" type="line"/>
      <point x="330" y="325" type="line"/>
      <point x="201" y="485" type="line"/>
      <point x="21" y="485" type="line"/>
      <point x="230" y="231" type="line"/>
      <point x="21" y="0" type="line"/>
      <point x="139" y="0" type="line"/>
      <point x="287" y="166" type="line"/>
      <point x="425" y="0" type="line"/>
      <point x="605" y="0" type="line"/>
    </contour>
  </outline>
</glyph>
<glyph name="y" format="1">
  <advance width="613"/>
  <unicode hex="0079"/>
  <outline>
    <contour>
      <point x="21" y="485" type="line"/>
      <point x="219" y="0" type="line"/>
      <point x="277" y="0" type="line"/>
      <point x="260" y="-37" type="line" smooth="yes"/>
      <point x="246" y="-69"/>
      <point x="225" y="-82"/>
      <point x="179" y="-82" type="curve" smooth="yes"/>
      <point x="113" y="-82" type="line"/>
      <point x="113" y="-141" type="line"/>
      <point x="230" y="-141" type="line" smooth="yes"/>
      <point x="339" y="-141"/>
      <point x="369" y="-100"/>
      <point x="397" y="-27" type="curve" smooth="yes"/>
      <point x="608" y="485" type="line"/>
      <point x="453" y="485" type="line"/>
      <point x="317" y="101" type="line"/>
      <point x="181" y="485" type="line"/>
    </contour>
  </outline>
</glyph>
<glyph name="z" format="1">
  <advance width="533"/>
  <unicode hex="007A"/>
  <outline>
    <contour>
      <point x="485" y="485" type="line"/>
      <point x="57" y="485" type="line"/>
      <point x="57" y="426" type="line"/>
      <point x="485" y="426" type="line"/>
    </contour>
    <contour>
      <point x="319" y="426" type="line"/>
      <point x="42" y="59" type="line"/>
      <point x="205" y="59" type="line"/>
      <point x="485" y="426" type="line"/>
    </contour>
    <contour>
      <point x="491" y="59" type="line"/>
      <point x="42" y="59" type="line"/>
      <point x="42" y="0" type="line"/>
      <point x="491" y="0" type="line"/>
    </contour>
  </outline>
</glyph>
<glyph name="braceleft" format="1">
  <advance width="422"/>
  <unicode hex="007B"/>
  <outline>
    <contour>
      <point x="320" y="583" type="line"/>
      <point x="320" y="632"/>
      <point x="328" y="661"/>
      <point x="371" y="661" type="curve" smooth="yes"/>
      <point x="450" y="661" type="line"/>
      <point x="450" y="720" type="line"/>
      <point x="339" y="720" type="line" smooth="yes"/>
      <point x="217" y="720"/>
      <point x="159" y="682"/>
      <point x="159" y="561" type="curve" smooth="yes"/>
      <point x="159" y="378" type="line" smooth="yes"/>
      <point x="159" y="309"/>
      <point x="133" y="279"/>
      <point x="67" y="279" type="curve" smooth="yes"/>
      <point x="53" y="279" type="line"/>
      <point x="53" y="220" type="line"/>
      <point x="67" y="220" type="line" smooth="yes"/>
      <point x="133" y="220"/>
      <point x="159" y="191"/>
      <point x="159" y="123" type="curve" smooth="yes"/>
      <point x="159" y="-63" type="line" smooth="yes"/>
      <point x="159" y="-184"/>
      <point x="217" y="-221"/>
      <point x="339" y="-221" type="curve" smooth="yes"/>
      <point x="450" y="-221" type="line"/>
      <point x="450" y="-162" type="line"/>
      <point x="371" y="-162" type="line" smooth="yes"/>
      <point x="328" y="-162"/>
      <point x="320" y="-133"/>
      <point x="320" y="-85" type="curve" smooth="yes"/>
      <point x="320" y="124" type="line" smooth="yes"/>
      <point x="320" y="193"/>
      <point x="291" y="244"/>
      <point x="232" y="248" type="curve"/>
      <point x="291" y="253"/>
      <point x="320" y="302"/>
      <point x="320" y="373" type="curve" smooth="yes"/>
    </contour>
  </outline>
</glyph>
<glyph name="bar" format="1">
  <advance width="313"/>
  <unicode hex="007C"/>
  <outline>
    <contour>
      <point x="84" y="763" type="line"/>
      <point x="84" y="-143" type="line"/>
      <point x="229" y="-143" type="line"/>
      <point x="229" y="763" type="line"/>
    </contour>
  </outline>
</glyph>
<glyph name="braceright" format="1">
  <advance width="431"/>
  <unicode hex="007D"/>
  <outline>
    <contour>
      <point x="111" y="373" type="line"/>
      <point x="111" y="302"/>
      <point x="140" y="253"/>
      <point x="199" y="248" type="curve"/>
      <point x="140" y="244"/>
      <point x="111" y="193"/>
      <point x="111" y="124" type="curve" smooth="yes"/>
      <point x="111" y="-85" type="line" smooth="yes"/>
      <point x="111" y="-133"/>
      <point x="103" y="-162"/>
      <point x="60" y="-162" type="curve" smooth="yes"/>
      <point x="-20" y="-162" type="line"/>
      <point x="-20" y="-221" type="line"/>
      <point x="92" y="-221" type="line" smooth="yes"/>
      <point x="214" y="-221"/>
      <point x="272" y="-184"/>
      <point x="272" y="-63" type="curve" smooth="yes"/>
      <point x="272" y="123" type="line" smooth="yes"/>
      <point x="272" y="191"/>
      <point x="298" y="220"/>
      <point x="363" y="220" type="curve" smooth="yes"/>
      <point x="377" y="220" type="line"/>
      <point x="377" y="279" type="line"/>
      <point x="363" y="279" type="line" smooth="yes"/>
      <point x="298" y="279"/>
      <point x="272" y="309"/>
      <point x="272" y="378" type="curve" smooth="yes"/>
      <point x="272" y="561" type="line" smooth="yes"/>
      <point x="272" y="682"/>
      <point x="214" y="720"/>
      <point x="92" y="720" type="curve" smooth="yes"/>
      <point x="-20" y="720" type="line"/>
      <point x="-20" y="661" type="line"/>
      <point x="60" y="661" type="line" smooth="yes"/>
      <point x="103" y="661"/>
      <point x="111" y="632"/>
      <point x="111" y="583" type="curve" smooth="yes"/>
    </contour>
  </outline>
</glyph>
<glyph name="asciitilde" format="1">
  <advance width="795"/>
  <unicode hex="007E"/>
  <outline>
    <contour>
      <point x="259" y="264" type="curve" smooth="yes"/>
      <point x="364" y="264"/>
      <point x="423" y="165"/>
      <point x="524" y="165" type="curve" smooth="yes"/>
      <point x="655" y="165" type="line" smooth="yes"/>
      <point x="709" y="165"/>
      <point x="733" y="193"/>
      <point x="733" y="243" type="curve" smooth="yes"/>
      <point x="733" y="334" type="line"/>
      <point x="581" y="334" type="line"/>
      <point x="581" y="273" type="line" smooth="yes"/>
      <point x="581" y="244"/>
      <point x="570" y="234"/>
      <point x="536" y="234" type="curve" smooth="yes"/>
      <point x="435" y="234"/>
      <point x="391" y="334"/>
      <point x="273" y="334" type="curve" smooth="yes"/>
      <point x="140" y="334" type="line" smooth="yes"/>
      <point x="86" y="334"/>
      <point x="62" y="307"/>
      <point x="62" y="256" type="curve" smooth="yes"/>
      <point x="62" y="165" type="line"/>
      <point x="215" y="165" type="line"/>
      <point x="215" y="226" type="line" smooth="yes"/>
      <point x="215" y="255"/>
      <point x="225" y="264"/>
    </contour>
  </outline>
</glyph>
<glyph name="exclamdown" format="1">
  <advance width="330"/>
  <unicode hex="00A1"/>
  <outline>
    <contour>
      <point x="102" y="279" type="line"/>
      <point x="74" y="-137" type="line"/>
      <point x="256" y="-137" type="line"/>
      <point x="228" y="279" type="line"/>
    </contour>
    <contour>
      <point x="81" y="485" type="line"/>
      <point x="81" y="354" type="line"/>
      <point x="249" y="354" type="line"/>
      <point x="249" y="485" type="line"/>
    </contour>
  </outline>
</glyph>
<glyph name="cent" format="1">
  <advance width="608"/>
  <unicode hex="00A2"/>
  <outline>
    <contour>
      <point x="390" y="463" type="line"/>
      <point x="390" y="562" type="line"/>
      <point x="234" y="562" type="line"/>
      <point x="234" y="463" type="line"/>
    </contour>
    <contour>
      <point x="390" y="-78" type="line"/>
      <point x="390" y="21" type="line"/>
      <point x="234" y="21" type="line"/>
      <point x="234" y="-78" type="line"/>
    </contour>
    <contour>
      <point x="218" y="395" type="line"/>
      <point x="218" y="421"/>
      <point x="223" y="426"/>
      <point x="249" y="426" type="curve" smooth="yes"/>
      <point x="364" y="426" type="line"/>
      <point x="364" y="485" type="line"/>
      <point x="142" y="485" type="line" smooth="yes"/>
      <point x="89" y="485"/>
      <point x="63" y="459"/>
      <point x="63" y="406" type="curve" smooth="yes"/>
      <point x="63" y="79" type="line" smooth="yes"/>
      <point x="63" y="26"/>
      <point x="89" y="0"/>
      <point x="142" y="0" type="curve" smooth="yes"/>
      <point x="360" y="0" type="line"/>
      <point x="360" y="59" type="line"/>
      <point x="249" y="59" type="line" smooth="yes"/>
      <point x="223" y="59"/>
      <point x="218" y="64"/>
      <point x="218" y="90" type="curve" smooth="yes"/>
    </contour>
    <contour>
      <point x="412" y="316" type="line"/>
      <point x="562" y="316" type="line"/>
      <point x="562" y="406" type="line" smooth="yes"/>
      <point x="562" y="459"/>
      <point x="536" y="485"/>
      <point x="483" y="485" type="curve" smooth="yes"/>
      <point x="264" y="485" type="line"/>
      <point x="264" y="426" type="line"/>
      <point x="381" y="426" type="line" smooth="yes"/>
      <point x="407" y="426"/>
      <point x="412" y="421"/>
      <point x="412" y="395" type="curve" smooth="yes"/>
    </contour>
    <contour>
      <point x="412" y="90" type="line"/>
      <point x="412" y="64"/>
      <point x="407" y="59"/>
      <point x="381" y="59" type="curve" smooth="yes"/>
      <point x="264" y="59" type="line"/>
      <point x="264" y="0" type="line"/>
      <point x="483" y="0" type="line" smooth="yes"/>
      <point x="536" y="0"/>
      <point x="562" y="26"/>
      <point x="562" y="79" type="curve" smooth="yes"/>
      <point x="562" y="167" type="line"/>
      <point x="412" y="167" type="line"/>
    </contour>
  </outline>
</glyph>
<glyph name="sterling" format="1">
  <advance width="702"/>
  <unicode hex="00A3"/>
  <outline>
    <contour>
      <point x="291" y="532" type="line"/>
      <point x="291" y="558"/>
      <point x="296" y="563"/>
      <point x="322" y="563" type="curve" smooth="yes"/>
      <point x="457" y="563" type="line" smooth="yes"/>
      <point x="483" y="563"/>
      <point x="488" y="558"/>
      <point x="488" y="532" type="curve" smooth="yes"/>
      <point x="488" y="426" type="line"/>
      <point x="649" y="426" type="line"/>
      <point x="649" y="543" type="line" smooth="yes"/>
      <point x="649" y="596"/>
      <point x="623" y="622"/>
      <point x="570" y="622" type="curve" smooth="yes"/>
      <point x="208" y="622" type="line" smooth="yes"/>
      <point x="155" y="622"/>
      <point x="129" y="596"/>
      <point x="129" y="543" type="curve" smooth="yes"/>
      <point x="129" y="195" type="line" smooth="yes"/>
      <point x="129" y="129"/>
      <point x="114" y="82"/>
      <point x="57" y="74" type="curve"/>
      <point x="57" y="0" type="line"/>
      <point x="659" y="0" type="line"/>
      <point x="659" y="90" type="line"/>
      <point x="254" y="90" type="line"/>
      <point x="286" y="104"/>
      <point x="291" y="145"/>
      <point x="291" y="203" type="curve" smooth="yes"/>
    </contour>
    <contour>
      <point x="51" y="271" type="line"/>
      <point x="544" y="271" type="line"/>
      <point x="544" y="330" type="line"/>
      <point x="51" y="330" type="line"/>
    </contour>
  </outline>
</glyph>
<glyph name="currency" format="1">
  <advance width="766"/>
  <unicode hex="00A4"/>
  <outline>
    <contour>
      <point x="661" y="361" type="line"/>
      <point x="661" y="441"/>
      <point x="624" y="487"/>
      <point x="508" y="487" type="curve" smooth="yes"/>
      <point x="261" y="487" type="line" smooth="yes"/>
      <point x="145" y="487"/>
      <point x="109" y="441"/>
      <point x="109" y="361" type="curve" smooth="yes"/>
      <point x="109" y="236" type="line" smooth="yes"/>
      <point x="109" y="155"/>
      <point x="145" y="109"/>
      <point x="261" y="109" type="curve" smooth="yes"/>
      <point x="508" y="109" type="line" smooth="yes"/>
      <point x="624" y="109"/>
      <point x="661" y="155"/>
      <point x="661" y="236" type="curve" smooth="yes"/>
    </contour>
    <contour>
      <point x="311" y="168" type="line"/>
      <point x="251" y="168"/>
      <point x="230" y="175"/>
      <point x="230" y="236" type="curve" smooth="yes"/>
      <point x="230" y="349" type="line" smooth="yes"/>
      <point x="230" y="410"/>
      <point x="251" y="428"/>
      <point x="311" y="428" type="curve" smooth="yes"/>
      <point x="459" y="428" type="line" smooth="yes"/>
      <point x="518" y="428"/>
      <point x="539" y="410"/>
      <point x="539" y="349" type="curve" smooth="yes"/>
      <point x="539" y="236" type="line" smooth="yes"/>
      <point x="539" y="175"/>
      <point x="518" y="168"/>
      <point x="459" y="168" type="curve" smooth="yes"/>
    </contour>
    <contour>
      <point x="256" y="448" type="line"/>
      <point x="145" y="557" type="line"/>
      <point x="61" y="471" type="line"/>
      <point x="172" y="362" type="line"/>
    </contour>
    <contour>
      <point x="594" y="362" type="line"/>
      <point x="705" y="471" type="line"/>
      <point x="621" y="557" type="line"/>
      <point x="510" y="448" type="line"/>
    </contour>
    <contour>
      <point x="172" y="233" type="line"/>
      <point x="61" y="125" type="line"/>
      <point x="145" y="40" type="line"/>
      <point x="256" y="148" type="line"/>
    </contour>
    <contour>
      <point x="510" y="148" type="line"/>
      <point x="621" y="40" type="line"/>
      <point x="705" y="125" type="line"/>
      <point x="594" y="233" type="line"/>
    </contour>
  </outline>
</glyph>
<glyph name="yen" format="1">
  <advance width="726"/>
  <unicode hex="00A5"/>
  <outline>
    <contour>
      <point x="288" y="328" type="line"/>
      <point x="87" y="328" type="line"/>
      <point x="87" y="269" type="line"/>
      <point x="288" y="269" type="line"/>
    </contour>
    <contour>
      <point x="648" y="200" type="line"/>
      <point x="87" y="200" type="line"/>
      <point x="87" y="141" type="line"/>
      <point x="648" y="141" type="line"/>
    </contour>
    <contour>
      <point x="439" y="187" type="line"/>
      <point x="696" y="622" type="line"/>
      <point x="537" y="622" type="line"/>
      <point x="368" y="298" type="line"/>
      <point x="190" y="622" type="line"/>
      <point x="30" y="622" type="line"/>
      <point x="299" y="187" type="line"/>
    </contour>
    <contour>
      <point x="289" y="252" type="line"/>
      <point x="289" y="0" type="line"/>
      <point x="450" y="0" type="line"/>
      <point x="450" y="252" type="line"/>
    </contour>
    <contour>
      <point x="447" y="269" type="line"/>
      <point x="648" y="269" type="line"/>
      <point x="648" y="328" type="line"/>
      <point x="447" y="328" type="line"/>
    </contour>
  </outline>
</glyph>
<glyph name="brokenbar" format="1">
  <advance width="302"/>
  <unicode hex="00A6"/>
  <outline>
    <contour>
      <point x="79" y="251" type="line"/>
      <point x="79" y="-143" type="line"/>
      <point x="223" y="-143" type="line"/>
      <point x="223" y="251" type="line"/>
    </contour>
    <contour>
      <point x="223" y="370" type="line"/>
      <point x="223" y="763" type="line"/>
      <point x="79" y="763" type="line"/>
      <point x="79" y="370" type="line"/>
    </contour>
  </outline>
</glyph>
<glyph name="section" format="1">
  <advance width="791"/>
  <unicode hex="00A7"/>
  <outline>
    <contour>
      <point x="612" y="194" type="curve"/>
      <point x="641" y="199"/>
      <point x="668" y="223"/>
      <point x="668" y="272" type="curve" smooth="yes"/>
      <point x="668" y="368" type="line" smooth="yes"/>
      <point x="668" y="421"/>
      <point x="642" y="447"/>
      <point x="589" y="447" type="curve" smooth="yes"/>
      <point x="374" y="447" type="line" smooth="yes"/>
      <point x="348" y="447"/>
      <point x="343" y="452"/>
      <point x="343" y="478" type="curve" smooth="yes"/>
      <point x="343" y="568" type="line" smooth="yes"/>
      <point x="343" y="594"/>
      <point x="348" y="599"/>
      <point x="374" y="599" type="curve" smooth="yes"/>
      <point x="483" y="599" type="line" smooth="yes"/>
      <point x="509" y="599"/>
      <point x="514" y="594"/>
      <point x="514" y="568" type="curve" smooth="yes"/>
      <point x="514" y="518" type="line"/>
      <point x="672" y="518" type="line"/>
      <point x="672" y="579" type="line" smooth="yes"/>
      <point x="672" y="632"/>
      <point x="646" y="658"/>
      <point x="593" y="658" type="curve" smooth="yes"/>
      <point x="264" y="658" type="line" smooth="yes"/>
      <point x="211" y="658"/>
      <point x="185" y="632"/>
      <point x="185" y="579" type="curve" smooth="yes"/>
      <point x="185" y="467" type="line" smooth="yes"/>
      <point x="185" y="432"/>
      <point x="205" y="418"/>
      <point x="219" y="411" type="curve"/>
      <point x="189" y="405"/>
      <point x="164" y="376"/>
      <point x="164" y="328" type="curve" smooth="yes"/>
      <point x="164" y="237" type="line" smooth="yes"/>
      <point x="164" y="184"/>
      <point x="190" y="158"/>
      <point x="243" y="158" type="curve" smooth="yes"/>
      <point x="457" y="158" type="line" smooth="yes"/>
      <point x="483" y="158"/>
      <point x="488" y="153"/>
      <point x="488" y="127" type="curve" smooth="yes"/>
      <point x="488" y="37" type="line" smooth="yes"/>
      <point x="488" y="11"/>
      <point x="483" y="6"/>
      <point x="457" y="6" type="curve" smooth="yes"/>
      <point x="348" y="6" type="line" smooth="yes"/>
      <point x="322" y="6"/>
      <point x="317" y="11"/>
      <point x="317" y="37" type="curve" smooth="yes"/>
      <point x="317" y="87" type="line"/>
      <point x="159" y="87" type="line"/>
      <point x="159" y="26" type="line" smooth="yes"/>
      <point x="159" y="-27"/>
      <point x="185" y="-53"/>
      <point x="238" y="-53" type="curve" smooth="yes"/>
      <point x="567" y="-53" type="line" smooth="yes"/>
      <point x="620" y="-53"/>
      <point x="646" y="-27"/>
      <point x="646" y="26" type="curve" smooth="yes"/>
      <point x="646" y="133" type="line" smooth="yes"/>
      <point x="646" y="168"/>
      <point x="625" y="187"/>
    </contour>
    <contour>
      <point x="478" y="388" type="line"/>
      <point x="504" y="388"/>
      <point x="509" y="383"/>
      <point x="509" y="357" type="curve" smooth="yes"/>
      <point x="509" y="248" type="line" smooth="yes"/>
      <point x="509" y="222"/>
      <point x="504" y="217"/>
      <point x="478" y="217" type="curve" smooth="yes"/>
      <point x="353" y="217" type="line" smooth="yes"/>
      <point x="327" y="217"/>
      <point x="322" y="222"/>
      <point x="322" y="248" type="curve" smooth="yes"/>
      <point x="322" y="357" type="line" smooth="yes"/>
      <point x="322" y="383"/>
      <point x="327" y="388"/>
      <point x="353" y="388" type="curve" smooth="yes"/>
    </contour>
  </outline>
</glyph>
<glyph name="dieresis" format="1">
  <advance width="647"/>
  <unicode hex="00A8"/>
  <outline>
    <contour>
      <point x="379" y="640" type="line"/>
      <point x="379" y="531" type="line"/>
      <point x="554" y="531" type="line"/>
      <point x="554" y="640" type="line"/>
    </contour>
    <contour>
      <point x="93" y="640" type="line"/>
      <point x="93" y="531" type="line"/>
      <point x="267" y="531" type="line"/>
      <point x="267" y="640" type="line"/>
    </contour>
  </outline>
</glyph>
<glyph name="copyright" format="1">
  <advance width="1064"/>
  <unicode hex="00A9"/>
  <outline>
    <contour>
      <point x="995" y="340" type="line"/>
      <point x="995" y="520"/>
      <point x="926" y="622"/>
      <point x="710" y="622" type="curve" smooth="yes"/>
      <point x="354" y="622" type="line" smooth="yes"/>
      <point x="138" y="622"/>
      <point x="69" y="520"/>
      <point x="69" y="340" type="curve" smooth="yes"/>
      <point x="69" y="278" type="line" smooth="yes"/>
      <point x="69" y="97"/>
      <point x="138" y="0"/>
      <point x="354" y="0" type="curve" smooth="yes"/>
      <point x="710" y="0" type="line" smooth="yes"/>
      <point x="926" y="0"/>
      <point x="995" y="97"/>
      <point x="995" y="278" type="curve" smooth="yes"/>
    </contour>
    <contour>
      <point x="378" y="60" type="line"/>
      <point x="246" y="60"/>
      <point x="202" y="132"/>
      <point x="202" y="269" type="curve" smooth="yes"/>
      <point x="202" y="349" type="line" smooth="yes"/>
      <point x="202" y="485"/>
      <point x="246" y="564"/>
      <point x="378" y="564" type="curve" smooth="yes"/>
      <point x="686" y="564" type="line" smooth="yes"/>
      <point x="818" y="564"/>
      <point x="862" y="485"/>
      <point x="862" y="349" type="curve" smooth="yes"/>
      <point x="862" y="269" type="line" smooth="yes"/>
      <point x="862" y="132"/>
      <point x="818" y="60"/>
      <point x="686" y="60" type="curve" smooth="yes"/>
    </contour>
    <contour>
      <point x="613" y="240" type="line"/>
      <point x="613" y="214"/>
      <point x="608" y="209"/>
      <point x="582" y="209" type="curve" smooth="yes"/>
      <point x="484" y="209" type="line" smooth="yes"/>
      <point x="458" y="209"/>
      <point x="453" y="214"/>
      <point x="453" y="240" type="curve" smooth="yes"/>
      <point x="453" y="389" type="line" smooth="yes"/>
      <point x="453" y="415"/>
      <point x="458" y="420"/>
      <point x="484" y="420" type="curve" smooth="yes"/>
      <point x="582" y="420" type="line" smooth="yes"/>
      <point x="608" y="420"/>
      <point x="613" y="415"/>
      <point x="613" y="389" type="curve" smooth="yes"/>
      <point x="613" y="355" type="line"/>
      <point x="730" y="355" type="line"/>
      <point x="730" y="400" type="line" smooth="yes"/>
      <point x="730" y="453"/>
      <point x="704" y="479"/>
      <point x="651" y="479" type="curve" smooth="yes"/>
      <point x="415" y="479" type="line" smooth="yes"/>
      <point x="362" y="479"/>
      <point x="336" y="453"/>
      <point x="336" y="400" type="curve" smooth="yes"/>
      <point x="336" y="229" type="line" smooth="yes"/>
      <point x="336" y="176"/>
      <point x="362" y="150"/>
      <point x="415" y="150" type="curve" smooth="yes"/>
      <point x="651" y="150" type="line" smooth="yes"/>
      <point x="704" y="150"/>
      <point x="730" y="176"/>
      <point x="730" y="229" type="curve" smooth="yes"/>
      <point x="730" y="274" type="line"/>
      <point x="613" y="274" type="line"/>
    </contour>
  </outline>
</glyph>
<glyph name="ordfeminine" format="1">
  <advance width="448"/>
  <unicode hex="00AA"/>
  <outline>
    <contour>
      <point x="158" y="441" type="line"/>
      <point x="158" y="558" type="line" smooth="yes"/>
      <point x="158" y="577"/>
      <point x="161" y="580"/>
      <point x="180" y="580" type="curve" smooth="yes"/>
      <point x="259" y="580" type="line" smooth="yes"/>
      <point x="277" y="580"/>
      <point x="285" y="574"/>
      <point x="285" y="557" type="curve" smooth="yes"/>
      <point x="285" y="538" type="line"/>
      <point x="290" y="538" type="line"/>
      <point x="290" y="568" type="line" smooth="yes"/>
      <point x="290" y="604"/>
      <point x="280" y="622"/>
      <point x="245" y="622" type="curve" smooth="yes"/>
      <point x="105" y="622" type="line" smooth="yes"/>
      <point x="67" y="622"/>
      <point x="49" y="604"/>
      <point x="49" y="566" type="curve" smooth="yes"/>
      <point x="49" y="441" type="line"/>
    </contour>
    <contour>
      <point x="395" y="280" type="line"/>
      <point x="395" y="622" type="line"/>
      <point x="285" y="622" type="line"/>
      <point x="285" y="280" type="line"/>
    </contour>
    <contour>
      <point x="49" y="460" type="line"/>
      <point x="49" y="336" type="line" smooth="yes"/>
      <point x="49" y="298"/>
      <point x="67" y="280"/>
      <point x="105" y="280" type="curve" smooth="yes"/>
      <point x="245" y="280" type="line" smooth="yes"/>
      <point x="280" y="280"/>
      <point x="290" y="298"/>
      <point x="290" y="334" type="curve" smooth="yes"/>
      <point x="290" y="363" type="line"/>
      <point x="285" y="363" type="line"/>
      <point x="285" y="345" type="line" smooth="yes"/>
      <point x="285" y="329"/>
      <point x="277" y="322"/>
      <point x="259" y="322" type="curve" smooth="yes"/>
      <point x="180" y="322" type="line" smooth="yes"/>
      <point x="161" y="322"/>
      <point x="158" y="326"/>
      <point x="158" y="344" type="curve" smooth="yes"/>
      <point x="158" y="460" type="line"/>
    </contour>
  </outline>
</glyph>
<glyph name="guillemotleft" format="1">
  <advance width="643"/>
  <unicode hex="00AB"/>
  <outline>
    <contour>
      <point x="328" y="100" type="line"/>
      <point x="490" y="100" type="line"/>
      <point x="358" y="251" type="line"/>
      <point x="490" y="403" type="line"/>
      <point x="328" y="403" type="line"/>
      <point x="194" y="252" type="line"/>
    </contour>
    <contour>
      <point x="291" y="100" type="line"/>
      <point x="453" y="100" type="line"/>
      <point x="321" y="251" type="line"/>
      <point x="453" y="403" type="line"/>
      <point x="291" y="403" type="line"/>
      <point x="157" y="252" type="line"/>
    </contour>
  </outline>
</glyph>
<glyph name="logicalnot" format="1">
  <advance width="769"/>
  <unicode hex="00AC"/>
  <outline>
    <contour>
      <point x="652" y="400" type="line"/>
      <point x="64" y="400" type="line"/>
      <point x="64" y="281" type="line"/>
      <point x="652" y="281" type="line"/>
    </contour>
    <contour>
      <point x="698" y="137" type="line"/>
      <point x="698" y="400" type="line"/>
      <point x="603" y="400" type="line"/>
      <point x="603" y="137" type="line"/>
    </contour>
  </outline>
</glyph>
<glyph name="softhyphen" format="1">
  <advance width="378"/>
  <unicode hex="00AD"/>
  <outline>
    <contour>
      <point x="55" y="253" type="line"/>
      <point x="323" y="253" type="line"/>
      <point x="323" y="311" type="line"/>
      <point x="55" y="311" type="line"/>
    </contour>
  </outline>
</glyph>
<glyph name="registered" format="1">
  <advance width="639"/>
  <unicode hex="00AE"/>
  <outline>
    <contour>
      <point x="587" y="535" type="line"/>
      <point x="587" y="637"/>
      <point x="547" y="695"/>
      <point x="423" y="695" type="curve" smooth="yes"/>
      <point x="217" y="695" type="line" smooth="yes"/>
      <point x="92" y="695"/>
      <point x="52" y="637"/>
      <point x="52" y="535" type="curve" smooth="yes"/>
      <point x="52" y="500" type="line" smooth="yes"/>
      <point x="52" y="398"/>
      <point x="92" y="341"/>
      <point x="217" y="341" type="curve" smooth="yes"/>
      <point x="423" y="341" type="line" smooth="yes"/>
      <point x="547" y="341"/>
      <point x="587" y="398"/>
      <point x="587" y="500" type="curve" smooth="yes"/>
    </contour>
    <contour>
      <point x="231" y="381" type="line"/>
      <point x="159" y="381"/>
      <point x="134" y="420"/>
      <point x="134" y="495" type="curve" smooth="yes"/>
      <point x="134" y="540" type="line" smooth="yes"/>
      <point x="134" y="615"/>
      <point x="159" y="658"/>
      <point x="231" y="658" type="curve" smooth="yes"/>
      <point x="409" y="658" type="line" smooth="yes"/>
      <point x="481" y="658"/>
      <point x="506" y="615"/>
      <point x="506" y="540" type="curve" smooth="yes"/>
      <point x="506" y="495" type="line" smooth="yes"/>
      <point x="506" y="420"/>
      <point x="481" y="381"/>
      <point x="409" y="381" type="curve" smooth="yes"/>
    </contour>
    <contour>
      <point x="223" y="615" type="line"/>
      <point x="223" y="425" type="line"/>
      <point x="287" y="425" type="line"/>
      <point x="287" y="493" type="line"/>
      <point x="312" y="493" type="line"/>
      <point x="353" y="425" type="line"/>
      <point x="422" y="425" type="line"/>
      <point x="376" y="494" type="line"/>
      <point x="385" y="494" type="line" smooth="yes"/>
      <point x="405" y="494"/>
      <point x="413" y="507"/>
      <point x="413" y="524" type="curve" smooth="yes"/>
      <point x="413" y="586" type="line" smooth="yes"/>
      <point x="413" y="605"/>
      <point x="403" y="615"/>
      <point x="383" y="615" type="curve" smooth="yes"/>
    </contour>
    <contour>
      <point x="349" y="533" type="line"/>
      <point x="349" y="526"/>
      <point x="347" y="523"/>
      <point x="339" y="523" type="curve" smooth="yes"/>
      <point x="288" y="523" type="line"/>
      <point x="288" y="587" type="line"/>
      <point x="339" y="587" type="line"/>
      <point x="347" y="587"/>
      <point x="349" y="585"/>
      <point x="349" y="577" type="curve"/>
    </contour>
  </outline>
</glyph>
<glyph name="degree" format="1">
  <advance width="607"/>
  <unicode hex="00B0"/>
  <outline>
    <contour>
      <point x="549" y="544" type="line"/>
      <point x="549" y="597"/>
      <point x="523" y="622"/>
      <point x="471" y="622" type="curve" smooth="yes"/>
      <point x="137" y="622" type="line" smooth="yes"/>
      <point x="85" y="622"/>
      <point x="59" y="597"/>
      <point x="59" y="544" type="curve" smooth="yes"/>
      <point x="59" y="396" type="line" smooth="yes"/>
      <point x="59" y="343"/>
      <point x="85" y="318"/>
      <point x="137" y="318" type="curve" smooth="yes"/>
      <point x="471" y="318" type="line" smooth="yes"/>
      <point x="523" y="318"/>
      <point x="549" y="343"/>
      <point x="549" y="396" type="curve" smooth="yes"/>
    </contour>
    <contour>
      <point x="403" y="406" type="line"/>
      <point x="403" y="380"/>
      <point x="398" y="375"/>
      <point x="372" y="375" type="curve" smooth="yes"/>
      <point x="238" y="375" type="line" smooth="yes"/>
      <point x="212" y="375"/>
      <point x="207" y="380"/>
      <point x="207" y="406" type="curve" smooth="yes"/>
      <point x="207" y="534" type="line" smooth="yes"/>
      <point x="207" y="560"/>
      <point x="212" y="565"/>
      <point x="238" y="565" type="curve" smooth="yes"/>
      <point x="372" y="565" type="line" smooth="yes"/>
      <point x="398" y="565"/>
      <point x="403" y="560"/>
      <point x="403" y="534" type="curve" smooth="yes"/>
    </contour>
  </outline>
</glyph>
<glyph name="plusminus" format="1">
  <advance width="712"/>
  <unicode hex="00B1"/>
  <outline>
    <contour>
      <point x="60" y="326" type="line"/>
      <point x="642" y="326" type="line"/>
      <point x="642" y="417" type="line"/>
      <point x="60" y="417" type="line"/>
    </contour>
    <contour>
      <point x="281" y="511" type="line"/>
      <point x="281" y="246" type="line"/>
      <point x="421" y="246" type="line"/>
      <point x="421" y="511" type="line"/>
    </contour>
    <contour>
      <point x="60" y="126" type="line"/>
      <point x="642" y="126" type="line"/>
      <point x="642" y="206" type="line"/>
      <point x="60" y="206" type="line"/>
    </contour>
  </outline>
</glyph>
<glyph name="twosuperior" format="1">
  <advance width="388"/>
  <unicode hex="00B2"/>
  <outline>
    <contour>
      <point x="145" y="563" type="line"/>
      <point x="145" y="577"/>
      <point x="148" y="580"/>
      <point x="162" y="580" type="curve" smooth="yes"/>
      <point x="233" y="580" type="line" smooth="yes"/>
      <point x="248" y="580"/>
      <point x="250" y="577"/>
      <point x="250" y="563" type="curve" smooth="yes"/>
      <point x="250" y="535" type="line" smooth="yes"/>
      <point x="250" y="507"/>
      <point x="242" y="486"/>
      <point x="220" y="468" type="curve" smooth="yes"/>
      <point x="51" y="324" type="line"/>
      <point x="51" y="280" type="line"/>
      <point x="347" y="280" type="line"/>
      <point x="347" y="324" type="line"/>
      <point x="175" y="324" type="line"/>
      <point x="309" y="433" type="line" smooth="yes"/>
      <point x="337" y="457"/>
      <point x="349" y="485"/>
      <point x="349" y="535" type="curve" smooth="yes"/>
      <point x="349" y="579" type="line" smooth="yes"/>
      <point x="349" y="608"/>
      <point x="335" y="622"/>
      <point x="306" y="622" type="curve" smooth="yes"/>
      <point x="89" y="622" type="line" smooth="yes"/>
      <point x="60" y="622"/>
      <point x="46" y="608"/>
      <point x="46" y="579" type="curve" smooth="yes"/>
      <point x="46" y="508" type="line"/>
      <point x="145" y="508" type="line"/>
    </contour>
  </outline>
</glyph>
<glyph name="threesuperior" format="1">
  <advance width="405"/>
  <unicode hex="00B3"/>
  <outline>
    <contour>
      <point x="151" y="563" type="line"/>
      <point x="151" y="577"/>
      <point x="154" y="580"/>
      <point x="168" y="580" type="curve" smooth="yes"/>
      <point x="245" y="580" type="line" smooth="yes"/>
      <point x="259" y="580"/>
      <point x="262" y="577"/>
      <point x="262" y="563" type="curve" smooth="yes"/>
      <point x="262" y="492" type="line" smooth="yes"/>
      <point x="262" y="477"/>
      <point x="259" y="475"/>
      <point x="245" y="475" type="curve" smooth="yes"/>
      <point x="165" y="475" type="line"/>
      <point x="165" y="432" type="line"/>
      <point x="245" y="432" type="line" smooth="yes"/>
      <point x="259" y="432"/>
      <point x="262" y="429"/>
      <point x="262" y="415" type="curve" smooth="yes"/>
      <point x="262" y="340" type="line" smooth="yes"/>
      <point x="262" y="325"/>
      <point x="259" y="322"/>
      <point x="245" y="322" type="curve" smooth="yes"/>
      <point x="168" y="322" type="line" smooth="yes"/>
      <point x="154" y="322"/>
      <point x="151" y="325"/>
      <point x="151" y="340" type="curve" smooth="yes"/>
      <point x="151" y="388" type="line"/>
      <point x="52" y="388" type="line"/>
      <point x="52" y="323" type="line" smooth="yes"/>
      <point x="52" y="294"/>
      <point x="67" y="280"/>
      <point x="96" y="280" type="curve" smooth="yes"/>
      <point x="318" y="280" type="line" smooth="yes"/>
      <point x="347" y="280"/>
      <point x="361" y="294"/>
      <point x="361" y="323" type="curve" smooth="yes"/>
      <point x="361" y="420" type="line" smooth="yes"/>
      <point x="361" y="442"/>
      <point x="350" y="453"/>
      <point x="331" y="454" type="curve"/>
      <point x="350" y="455"/>
      <point x="361" y="468"/>
      <point x="361" y="490" type="curve" smooth="yes"/>
      <point x="361" y="579" type="line" smooth="yes"/>
      <point x="361" y="608"/>
      <point x="347" y="622"/>
      <point x="318" y="622" type="curve" smooth="yes"/>
      <point x="96" y="622" type="line" smooth="yes"/>
      <point x="67" y="622"/>
      <point x="52" y="608"/>
      <point x="52" y="579" type="curve" smooth="yes"/>
      <point x="52" y="513" type="line"/>
      <point x="151" y="513" type="line"/>
    </contour>
  </outline>
</glyph>
<glyph name="acute" format="1">
  <advance width="647"/>
  <unicode hex="00B4"/>
  <outline>
    <contour>
      <point x="168" y="506" type="line"/>
      <point x="300" y="506" type="line"/>
      <point x="469" y="654" type="line"/>
      <point x="306" y="654" type="line"/>
    </contour>
  </outline>
</glyph>
<glyph name="mu.math" format="1">
  <advance width="660"/>
  <unicode hex="00B5"/>
  <outline>
    <contour>
      <point x="75" y="485" type="line"/>
      <point x="75" y="79" type="line" smooth="yes"/>
      <point x="75" y="26"/>
      <point x="101" y="0"/>
      <point x="154" y="0" type="curve" smooth="yes"/>
      <point x="374" y="0" type="line" smooth="yes"/>
      <point x="424" y="0"/>
      <point x="438" y="26"/>
      <point x="438" y="76" type="curve" smooth="yes"/>
      <point x="438" y="122" type="line"/>
      <point x="431" y="122" type="line"/>
      <point x="431" y="91" type="line" smooth="yes"/>
      <point x="431" y="68"/>
      <point x="420" y="59"/>
      <point x="395" y="59" type="curve" smooth="yes"/>
      <point x="260" y="59" type="line" smooth="yes"/>
      <point x="234" y="59"/>
      <point x="229" y="64"/>
      <point x="229" y="90" type="curve" smooth="yes"/>
      <point x="229" y="485" type="line"/>
    </contour>
    <contour>
      <point x="431" y="485" type="line"/>
      <point x="431" y="0" type="line"/>
      <point x="585" y="0" type="line"/>
      <point x="585" y="485" type="line"/>
    </contour>
    <contour>
      <point x="75" y="390" type="line"/>
      <point x="75" y="-141" type="line"/>
      <point x="229" y="-141" type="line"/>
      <point x="229" y="390" type="line"/>
    </contour>
  </outline>
</glyph>
<glyph name="paragraph" format="1">
  <advance width="764"/>
  <unicode hex="00B6"/>
  <outline>
    <contour>
      <point x="399" y="622" type="line"/>
      <point x="140" y="622" type="line" smooth="yes"/>
      <point x="87" y="622"/>
      <point x="61" y="596"/>
      <point x="61" y="543" type="curve" smooth="yes"/>
      <point x="61" y="295" type="line" smooth="yes"/>
      <point x="61" y="242"/>
      <point x="87" y="216"/>
      <point x="140" y="216" type="curve" smooth="yes"/>
      <point x="399" y="216" type="line"/>
    </contour>
    <contour>
      <point x="302" y="622" type="line"/>
      <point x="302" y="-141" type="line"/>
      <point x="441" y="-141" type="line"/>
      <point x="441" y="622" type="line"/>
    </contour>
    <contour>
      <point x="548" y="622" type="line"/>
      <point x="548" y="-141" type="line"/>
      <point x="687" y="-141" type="line"/>
      <point x="687" y="622" type="line"/>
    </contour>
  </outline>
</glyph>
<glyph name="periodcentered" format="1">
  <advance width="306"/>
  <unicode hex="00B7"/>
  <outline>
    <contour>
      <point x="72" y="248" type="line"/>
      <point x="240" y="248" type="line"/>
      <point x="240" y="379" type="line"/>
      <point x="72" y="379" type="line"/>
    </contour>
  </outline>
</glyph>
<glyph name="cedilla" format="1">
  <advance width="647"/>
  <unicode hex="00B8"/>
  <outline>
    <contour>
      <point x="312" y="-140" type="line"/>
      <point x="312" y="-166"/>
      <point x="305" y="-174"/>
      <point x="279" y="-174" type="curve" smooth="yes"/>
      <point x="177" y="-174" type="line"/>
      <point x="177" y="-233" type="line"/>
      <point x="373" y="-233" type="line" smooth="yes"/>
      <point x="427" y="-233"/>
      <point x="457" y="-206"/>
      <point x="457" y="-149" type="curve" smooth="yes"/>
      <point x="457" y="-48" type="line"/>
      <point x="312" y="-48" type="line"/>
    </contour>
  </outline>
</glyph>
<glyph name="onesuperior" format="1">
  <advance width="270"/>
  <unicode hex="00B9"/>
  <outline>
    <contour>
      <point x="159" y="622" type="line"/>
      <point x="21" y="622" type="line"/>
      <point x="21" y="580" type="line"/>
      <point x="159" y="580" type="line"/>
    </contour>
    <contour>
      <point x="101" y="622" type="line"/>
      <point x="101" y="280" type="line"/>
      <point x="210" y="280" type="line"/>
      <point x="210" y="622" type="line"/>
    </contour>
  </outline>
</glyph>
<glyph name="ordmasculine" format="1">
  <advance width="446"/>
  <unicode hex="00BA"/>
  <outline>
    <contour>
      <point x="384" y="572" type="line"/>
      <point x="384" y="606"/>
      <point x="368" y="622"/>
      <point x="335" y="622" type="curve" smooth="yes"/>
      <point x="104" y="622" type="line" smooth="yes"/>
      <point x="71" y="622"/>
      <point x="54" y="606"/>
      <point x="54" y="572" type="curve" smooth="yes"/>
      <point x="54" y="330" type="line" smooth="yes"/>
      <point x="54" y="296"/>
      <point x="71" y="280"/>
      <point x="104" y="280" type="curve" smooth="yes"/>
      <point x="335" y="280" type="line" smooth="yes"/>
      <point x="368" y="280"/>
      <point x="384" y="296"/>
      <point x="384" y="330" type="curve" smooth="yes"/>
    </contour>
    <contour>
      <point x="280" y="342" type="line"/>
      <point x="280" y="326"/>
      <point x="277" y="322"/>
      <point x="260" y="322" type="curve" smooth="yes"/>
      <point x="178" y="322" type="line" smooth="yes"/>
      <point x="161" y="322"/>
      <point x="158" y="326"/>
      <point x="158" y="342" type="curve" smooth="yes"/>
      <point x="158" y="561" type="line" smooth="yes"/>
      <point x="158" y="577"/>
      <point x="161" y="580"/>
      <point x="178" y="580" type="curve" smooth="yes"/>
      <point x="260" y="580" type="line" smooth="yes"/>
      <point x="277" y="580"/>
      <point x="280" y="577"/>
      <point x="280" y="561" type="curve" smooth="yes"/>
    </contour>
  </outline>
</glyph>
<glyph name="guillemotright" format="1">
  <advance width="633"/>
  <unicode hex="00BB"/>
  <outline>
    <contour>
      <point x="442" y="252" type="line"/>
      <point x="308" y="403" type="line"/>
      <point x="146" y="403" type="line"/>
      <point x="279" y="251" type="line"/>
      <point x="146" y="100" type="line"/>
      <point x="308" y="100" type="line"/>
    </contour>
    <contour>
      <point x="479" y="252" type="line"/>
      <point x="345" y="403" type="line"/>
      <point x="183" y="403" type="line"/>
      <point x="316" y="251" type="line"/>
      <point x="183" y="100" type="line"/>
      <point x="345" y="100" type="line"/>
    </contour>
  </outline>
</glyph>
<glyph name="onequarter" format="1">
  <advance width="936"/>
  <unicode hex="00BC"/>
  <outline>
    <contour>
      <point x="542" y="56" type="line"/>
      <point x="893" y="56" type="line"/>
      <point x="893" y="94" type="line"/>
      <point x="542" y="94" type="line"/>
    </contour>
    <contour>
      <point x="497" y="56" type="line"/>
      <point x="592" y="56" type="line"/>
      <point x="768" y="343" type="line"/>
      <point x="651" y="343" type="line"/>
      <point x="497" y="98" type="line"/>
    </contour>
    <contour>
      <point x="726" y="181" type="line"/>
      <point x="726" y="0" type="line"/>
      <point x="835" y="0" type="line"/>
      <point x="835" y="181" type="line"/>
    </contour>
    <component base="slash" xOffset="149"/>
    <component base="onesuperior" xOffset="28"/>
  </outline>
</glyph>
<glyph name="threequarters" format="1">
  <advance width="1070"/>
  <unicode hex="00BE"/>
  <outline>
    <contour>
      <point x="675" y="56" type="line"/>
      <point x="1026" y="56" type="line"/>
      <point x="1026" y="94" type="line"/>
      <point x="675" y="94" type="line"/>
    </contour>
    <contour>
      <point x="630" y="56" type="line"/>
      <point x="726" y="56" type="line"/>
      <point x="902" y="343" type="line"/>
      <point x="785" y="343" type="line"/>
      <point x="630" y="98" type="line"/>
    </contour>
    <contour>
      <point x="860" y="181" type="line"/>
      <point x="860" y="0" type="line"/>
      <point x="969" y="0" type="line"/>
      <point x="969" y="181" type="line"/>
    </contour>
    <component base="threesuperior" xOffset="13"/>
    <component base="slash" xOffset="288"/>
  </outline>
</glyph>
<glyph name="questiondown" format="1">
  <advance width="635"/>
  <unicode hex="00BF"/>
  <outline>
    <contour>
      <point x="226" y="115" type="line"/>
      <point x="226" y="139"/>
      <point x="230" y="146"/>
      <point x="256" y="146" type="curve" smooth="yes"/>
      <point x="369" y="146" type="line"/>
      <point x="369" y="210" type="line"/>
      <point x="149" y="210" type="line" smooth="yes"/>
      <point x="94" y="210"/>
      <point x="70" y="181"/>
      <point x="70" y="132" type="curve" smooth="yes"/>
      <point x="70" y="-60" type="line" smooth="yes"/>
      <point x="70" y="-110"/>
      <point x="94" y="-138"/>
      <point x="149" y="-138" type="curve" smooth="yes"/>
      <point x="409" y="-138" type="line"/>
      <point x="409" y="-80" type="line"/>
      <point x="256" y="-80" type="line" smooth="yes"/>
      <point x="230" y="-80"/>
      <point x="226" y="-72"/>
      <point x="226" y="-47" type="curve"/>
    </contour>
    <contour>
      <point x="424" y="146" type="line"/>
      <point x="412" y="278" type="line"/>
      <point x="281" y="278" type="line"/>
      <point x="267" y="146" type="line"/>
    </contour>
    <contour>
      <point x="432" y="484" type="line"/>
      <point x="264" y="484" type="line"/>
      <point x="264" y="353" type="line"/>
      <point x="432" y="353" type="line"/>
    </contour>
    <contour>
      <point x="451" y="-47" type="line"/>
      <point x="451" y="-72"/>
      <point x="447" y="-80"/>
      <point x="421" y="-80" type="curve" smooth="yes"/>
      <point x="278" y="-80" type="line"/>
      <point x="278" y="-138" type="line"/>
      <point x="529" y="-138" type="line" smooth="yes"/>
      <point x="584" y="-138"/>
      <point x="608" y="-110"/>
      <point x="608" y="-60" type="curve" smooth="yes"/>
      <point x="608" y="54" type="line"/>
      <point x="451" y="54" type="line"/>
    </contour>
  </outline>
</glyph>
<glyph name="Agrave" format="1">
  <advance width="719"/>
  <unicode hex="00C0"/>
  <outline>
    <contour>
      <point x="257" y="622" type="line"/>
      <point x="19" y="0" type="line"/>
      <point x="176" y="0" type="line"/>
      <point x="359" y="524" type="line"/>
      <point x="541" y="0" type="line"/>
      <point x="700" y="0" type="line"/>
      <point x="461" y="622" type="line"/>
    </contour>
    <contour>
      <point x="146" y="182" type="line"/>
      <point x="146" y="123" type="line"/>
      <point x="574" y="123" type="line"/>
      <point x="574" y="182" type="line"/>
    </contour>
    <contour>
      <point x="116" y="818" type="line"/>
      <point x="285" y="670" type="line"/>
      <point x="417" y="670" type="line"/>
      <point x="278" y="818" type="line"/>
    </contour>
  </outline>
</glyph>
<glyph name="Adieresis" format="1">
  <advance width="719"/>
  <unicode hex="00C4"/>
  <outline>
    <contour>
      <point x="257" y="622" type="line"/>
      <point x="19" y="0" type="line"/>
      <point x="176" y="0" type="line"/>
      <point x="359" y="524" type="line"/>
      <point x="541" y="0" type="line"/>
      <point x="700" y="0" type="line"/>
      <point x="461" y="622" type="line"/>
    </contour>
    <contour>
      <point x="130" y="778" type="line"/>
      <point x="130" y="669" type="line"/>
      <point x="305" y="669" type="line"/>
      <point x="305" y="778" type="line"/>
    </contour>
    <contour>
      <point x="146" y="182" type="line"/>
      <point x="146" y="123" type="line"/>
      <point x="574" y="123" type="line"/>
      <point x="574" y="182" type="line"/>
    </contour>
    <contour>
      <point x="416" y="778" type="line"/>
      <point x="416" y="669" type="line"/>
      <point x="591" y="669" type="line"/>
      <point x="591" y="778" type="line"/>
    </contour>
  </outline>
</glyph>
<glyph name="AE" format="1">
  <advance width="1054"/>
  <unicode hex="00C6"/>
  <outline>
    <contour>
      <point x="588" y="622" type="line"/>
      <point x="430" y="622" type="line"/>
      <point x="18" y="0" type="line"/>
      <point x="188" y="0" type="line"/>
    </contour>
    <contour>
      <point x="577" y="194" type="line"/>
      <point x="185" y="194" type="line"/>
      <point x="185" y="135" type="line"/>
      <point x="577" y="135" type="line"/>
    </contour>
    <contour>
      <point x="529" y="622" type="line"/>
      <point x="529" y="0" type="line"/>
      <point x="691" y="0" type="line"/>
      <point x="691" y="622" type="line"/>
    </contour>
    <contour>
      <point x="1008" y="59" type="line"/>
      <point x="590" y="59" type="line"/>
      <point x="590" y="0" type="line"/>
      <point x="1008" y="0" type="line"/>
    </contour>
    <contour>
      <point x="960" y="348" type="line"/>
      <point x="599" y="348" type="line"/>
      <point x="599" y="289" type="line"/>
      <point x="960" y="289" type="line"/>
    </contour>
    <contour>
      <point x="995" y="622" type="line"/>
      <point x="590" y="622" type="line"/>
      <point x="590" y="563" type="line"/>
      <point x="995" y="563" type="line"/>
    </contour>
  </outline>
</glyph>
<glyph name="Edieresis" format="1">
  <advance width="640"/>
  <unicode hex="00CB"/>
  <outline>
    <contour>
      <point x="376" y="778" type="line"/>
      <point x="376" y="669" type="line"/>
      <point x="550" y="669" type="line"/>
      <point x="550" y="778" type="line"/>
    </contour>
    <contour>
      <point x="89" y="778" type="line"/>
      <point x="89" y="669" type="line"/>
      <point x="264" y="669" type="line"/>
      <point x="264" y="778" type="line"/>
    </contour>
    <contour>
      <point x="80" y="622" type="line"/>
      <point x="80" y="0" type="line"/>
      <point x="247" y="0" type="line"/>
      <point x="247" y="622" type="line"/>
    </contour>
    <contour>
      <point x="516" y="348" type="line"/>
      <point x="156" y="348" type="line"/>
      <point x="156" y="289" type="line"/>
      <point x="516" y="289" type="line"/>
    </contour>
    <contour>
      <point x="557" y="622" type="line"/>
      <point x="147" y="622" type="line"/>
      <point x="147" y="563" type="line"/>
      <point x="557" y="563" type="line"/>
    </contour>
    <contour>
      <point x="570" y="59" type="line"/>
      <point x="147" y="59" type="line"/>
      <point x="147" y="0" type="line"/>
      <point x="570" y="0" type="line"/>
    </contour>
  </outline>
</glyph>
<glyph name="Idieresis" format="1">
  <advance width="331"/>
  <unicode hex="00CF"/>
  <outline>
    <contour>
      <point x="86" y="622" type="line"/>
      <point x="86" y="0" type="line"/>
      <point x="252" y="0" type="line"/>
      <point x="252" y="622" type="line"/>
    </contour>
    <contour>
      <point x="-60" y="777" type="line"/>
      <point x="-60" y="669" type="line"/>
      <point x="114" y="669" type="line"/>
      <point x="114" y="777" type="line"/>
    </contour>
    <contour>
      <point x="226" y="777" type="line"/>
      <point x="226" y="669" type="line"/>
      <point x="401" y="669" type="line"/>
      <point x="401" y="777" type="line"/>
    </contour>
  </outline>
</glyph>
<glyph name="Eth" format="1">
  <advance width="726"/>
  <unicode hex="00D0"/>
  <outline>
    <contour>
      <point x="493" y="380" type="line"/>
      <point x="655" y="380" type="line"/>
      <point x="655" y="543" type="line" smooth="yes"/>
      <point x="655" y="596"/>
      <point x="629" y="622"/>
      <point x="576" y="622" type="curve" smooth="yes"/>
      <point x="159" y="622" type="line"/>
      <point x="159" y="563" type="line"/>
      <point x="462" y="563" type="line" smooth="yes"/>
      <point x="488" y="563"/>
      <point x="493" y="558"/>
      <point x="493" y="532" type="curve" smooth="yes"/>
    </contour>
    <contour>
      <point x="493" y="90" type="line"/>
      <point x="493" y="64"/>
      <point x="488" y="59"/>
      <point x="462" y="59" type="curve" smooth="yes"/>
      <point x="159" y="59" type="line"/>
      <point x="159" y="0" type="line"/>
      <point x="576" y="0" type="line" smooth="yes"/>
      <point x="629" y="0"/>
      <point x="655" y="26"/>
      <point x="655" y="79" type="curve" smooth="yes"/>
      <point x="655" y="398" type="line"/>
      <point x="493" y="398" type="line"/>
    </contour>
    <contour>
      <point x="98" y="622" type="line"/>
      <point x="98" y="0" type="line"/>
      <point x="260" y="0" type="line"/>
      <point x="260" y="622" type="line"/>
    </contour>
    <contour>
      <point x="406" y="345" type="line"/>
      <point x="35" y="345" type="line"/>
      <point x="35" y="283" type="line"/>
      <point x="406" y="283" type="line"/>
    </contour>
  </outline>
</glyph>
<glyph name="Odieresis" format="1">
  <advance width="683"/>
  <unicode hex="00D6"/>
  <outline>
    <contour>
      <point x="620" y="543" type="line"/>
      <point x="620" y="596"/>
      <point x="594" y="622"/>
      <point x="541" y="622" type="curve" smooth="yes"/>
      <point x="152" y="622" type="line" smooth="yes"/>
      <point x="99" y="622"/>
      <point x="73" y="596"/>
      <point x="73" y="543" type="curve" smooth="yes"/>
      <point x="73" y="79" type="line" smooth="yes"/>
      <point x="73" y="26"/>
      <point x="99" y="0"/>
      <point x="152" y="0" type="curve" smooth="yes"/>
      <point x="541" y="0" type="line" smooth="yes"/>
      <point x="594" y="0"/>
      <point x="620" y="26"/>
      <point x="620" y="79" type="curve" smooth="yes"/>
    </contour>
    <contour>
      <point x="459" y="90" type="line"/>
      <point x="459" y="64"/>
      <point x="454" y="59"/>
      <point x="428" y="59" type="curve" smooth="yes"/>
      <point x="265" y="59" type="line" smooth="yes"/>
      <point x="239" y="59"/>
      <point x="234" y="64"/>
      <point x="234" y="90" type="curve" smooth="yes"/>
      <point x="234" y="532" type="line" smooth="yes"/>
      <point x="234" y="558"/>
      <point x="239" y="563"/>
      <point x="265" y="563" type="curve" smooth="yes"/>
      <point x="428" y="563" type="line" smooth="yes"/>
      <point x="454" y="563"/>
      <point x="459" y="558"/>
      <point x="459" y="532" type="curve" smooth="yes"/>
    </contour>
    <contour>
      <point x="403" y="778" type="line"/>
      <point x="403" y="669" type="line"/>
      <point x="578" y="669" type="line"/>
      <point x="578" y="778" type="line"/>
    </contour>
    <contour>
      <point x="117" y="778" type="line"/>
      <point x="117" y="669" type="line"/>
      <point x="292" y="669" type="line"/>
      <point x="292" y="778" type="line"/>
    </contour>
  </outline>
</glyph>
<glyph name="multiply" format="1">
  <advance width="667"/>
  <unicode hex="00D7"/>
  <outline>
    <contour>
      <point x="602" y="192" type="line"/>
      <point x="151" y="514" type="line"/>
      <point x="81" y="436" type="line"/>
      <point x="533" y="115" type="line"/>
    </contour>
    <contour>
      <point x="535" y="514" type="line"/>
      <point x="84" y="192" type="line"/>
      <point x="153" y="115" type="line"/>
      <point x="605" y="437" type="line"/>
    </contour>
  </outline>
</glyph>
<glyph name="Oslash" format="1">
  <advance width="714"/>
  <unicode hex="00D8"/>
  <outline>
    <contour>
      <point x="634" y="543" type="line"/>
      <point x="634" y="596"/>
      <point x="608" y="622"/>
      <point x="555" y="622" type="curve" smooth="yes"/>
      <point x="158" y="622" type="line" smooth="yes"/>
      <point x="105" y="622"/>
      <point x="79" y="596"/>
      <point x="79" y="543" type="curve" smooth="yes"/>
      <point x="79" y="79" type="line" smooth="yes"/>
      <point x="79" y="26"/>
      <point x="105" y="0"/>
      <point x="158" y="0" type="curve" smooth="yes"/>
      <point x="555" y="0" type="line" smooth="yes"/>
      <point x="608" y="0"/>
      <point x="634" y="26"/>
      <point x="634" y="79" type="curve" smooth="yes"/>
    </contour>
    <contour>
      <point x="479" y="88" type="line"/>
      <point x="479" y="62"/>
      <point x="474" y="57"/>
      <point x="447" y="57" type="curve" smooth="yes"/>
      <point x="265" y="57" type="line" smooth="yes"/>
      <point x="239" y="57"/>
      <point x="234" y="62"/>
      <point x="234" y="88" type="curve" smooth="yes"/>
      <point x="234" y="534" type="line" smooth="yes"/>
      <point x="234" y="560"/>
      <point x="239" y="565"/>
      <point x="265" y="565" type="curve" smooth="yes"/>
      <point x="447" y="565" type="line" smooth="yes"/>
      <point x="474" y="565"/>
      <point x="479" y="560"/>
      <point x="479" y="534" type="curve" smooth="yes"/>
    </contour>
    <contour>
      <point x="575" y="652" type="line"/>
      <point x="60" y="-30" type="line"/>
      <point x="143" y="-30" type="line"/>
      <point x="657" y="652" type="line"/>
    </contour>
  </outline>
</glyph>
<glyph name="Udieresis" format="1">
  <advance width="707"/>
  <unicode hex="00DC"/>
  <outline>
    <contour>
      <point x="471" y="622" type="line"/>
      <point x="471" y="90" type="line" smooth="yes"/>
      <point x="471" y="64"/>
      <point x="466" y="59"/>
      <point x="440" y="59" type="curve" smooth="yes"/>
      <point x="267" y="59" type="line" smooth="yes"/>
      <point x="241" y="59"/>
      <point x="236" y="64"/>
      <point x="236" y="90" type="curve" smooth="yes"/>
      <point x="236" y="622" type="line"/>
      <point x="75" y="622" type="line"/>
      <point x="75" y="79" type="line" smooth="yes"/>
      <point x="75" y="26"/>
      <point x="101" y="0"/>
      <point x="154" y="0" type="curve" smooth="yes"/>
      <point x="552" y="0" type="line" smooth="yes"/>
      <point x="605" y="0"/>
      <point x="631" y="26"/>
      <point x="631" y="79" type="curve" smooth="yes"/>
      <point x="631" y="622" type="line"/>
    </contour>
    <contour>
      <point x="120" y="778" type="line"/>
      <point x="120" y="669" type="line"/>
      <point x="294" y="669" type="line"/>
      <point x="294" y="778" type="line"/>
    </contour>
    <contour>
      <point x="406" y="778" type="line"/>
      <point x="406" y="669" type="line"/>
      <point x="581" y="669" type="line"/>
      <point x="581" y="778" type="line"/>
    </contour>
  </outline>
</glyph>
<glyph name="Thorn" format="1">
  <advance width="688"/>
  <unicode hex="00DE"/>
  <outline>
    <contour>
      <point x="472" y="192" type="line"/>
      <point x="472" y="166"/>
      <point x="467" y="161"/>
      <point x="441" y="161" type="curve" smooth="yes"/>
      <point x="145" y="161" type="line"/>
      <point x="145" y="102" type="line"/>
      <point x="554" y="102" type="line" smooth="yes"/>
      <point x="607" y="102"/>
      <point x="633" y="128"/>
      <point x="633" y="181" type="curve" smooth="yes"/>
      <point x="633" y="441" type="line" smooth="yes"/>
      <point x="633" y="494"/>
      <point x="607" y="520"/>
      <point x="554" y="520" type="curve" smooth="yes"/>
      <point x="139" y="520" type="line"/>
      <point x="139" y="461" type="line"/>
      <point x="441" y="461" type="line" smooth="yes"/>
      <point x="467" y="461"/>
      <point x="472" y="456"/>
      <point x="472" y="430" type="curve" smooth="yes"/>
    </contour>
    <contour>
      <point x="84" y="622" type="line"/>
      <point x="84" y="0" type="line"/>
      <point x="245" y="0" type="line"/>
      <point x="245" y="622" type="line"/>
    </contour>
  </outline>
</glyph>
<glyph name="germandbls" format="1">
  <advance width="875"/>
  <unicode hex="00DF"/>
  <outline>
    <contour>
      <point x="340" y="157" type="line"/>
      <point x="340" y="79" type="line" smooth="yes"/>
      <point x="340" y="26"/>
      <point x="366" y="0"/>
      <point x="419" y="0" type="curve" smooth="yes"/>
      <point x="755" y="0" type="line" smooth="yes"/>
      <point x="808" y="0"/>
      <point x="834" y="26"/>
      <point x="834" y="79" type="curve" smooth="yes"/>
      <point x="834" y="211" type="line" smooth="yes"/>
      <point x="834" y="264"/>
      <point x="808" y="290"/>
      <point x="755" y="290" type="curve" smooth="yes"/>
      <point x="523" y="290" type="line" smooth="yes"/>
      <point x="497" y="290"/>
      <point x="492" y="295"/>
      <point x="492" y="321" type="curve" smooth="yes"/>
      <point x="492" y="372" type="line" smooth="yes"/>
      <point x="492" y="398"/>
      <point x="497" y="403"/>
      <point x="523" y="403" type="curve" smooth="yes"/>
      <point x="709" y="403" type="line" smooth="yes"/>
      <point x="757" y="403"/>
      <point x="783" y="427"/>
      <point x="783" y="475" type="curve" smooth="yes"/>
      <point x="783" y="543" type="line" smooth="yes"/>
      <point x="783" y="596"/>
      <point x="757" y="622"/>
      <point x="704" y="622" type="curve" smooth="yes"/>
      <point x="163" y="622" type="line" smooth="yes"/>
      <point x="110" y="622"/>
      <point x="84" y="596"/>
      <point x="84" y="543" type="curve" smooth="yes"/>
      <point x="84" y="0" type="line"/>
      <point x="241" y="0" type="line"/>
      <point x="241" y="530" type="line" smooth="yes"/>
      <point x="241" y="556"/>
      <point x="247" y="562"/>
      <point x="273" y="562" type="curve" smooth="yes"/>
      <point x="588" y="562" type="line" smooth="yes"/>
      <point x="614" y="562"/>
      <point x="619" y="556"/>
      <point x="619" y="530" type="curve" smooth="yes"/>
      <point x="619" y="489" type="line" smooth="yes"/>
      <point x="619" y="466"/>
      <point x="614" y="461"/>
      <point x="586" y="461" type="curve" smooth="yes"/>
      <point x="418" y="461" type="line" smooth="yes"/>
      <point x="368" y="461"/>
      <point x="341" y="436"/>
      <point x="341" y="382" type="curve" smooth="yes"/>
      <point x="341" y="311" type="line" smooth="yes"/>
      <point x="341" y="258"/>
      <point x="367" y="232"/>
      <point x="420" y="232" type="curve" smooth="yes"/>
      <point x="649" y="232" type="line" smooth="yes"/>
      <point x="675" y="232"/>
      <point x="680" y="227"/>
      <point x="680" y="201" type="curve" smooth="yes"/>
      <point x="680" y="90" type="line" smooth="yes"/>
      <point x="680" y="64"/>
      <point x="675" y="59"/>
      <point x="649" y="59" type="curve" smooth="yes"/>
      <point x="524" y="59" type="line" smooth="yes"/>
      <point x="498" y="59"/>
      <point x="493" y="64"/>
      <point x="493" y="90" type="curve" smooth="yes"/>
      <point x="493" y="157" type="line"/>
    </contour>
  </outline>
</glyph>
<glyph name="ae" format="1">
  <advance width="997"/>
  <unicode hex="00E6"/>
  <outline>
    <contour>
      <point x="449" y="288" type="line"/>
      <point x="66" y="201" type="line"/>
      <point x="221" y="172" type="line"/>
      <point x="475" y="230" type="line"/>
    </contour>
    <contour>
      <point x="66" y="201" type="line"/>
      <point x="66" y="79" type="line" smooth="yes"/>
      <point x="66" y="26"/>
      <point x="92" y="0"/>
      <point x="145" y="0" type="curve" smooth="yes"/>
      <point x="392" y="0" type="line" smooth="yes"/>
      <point x="456" y="0"/>
      <point x="478" y="15"/>
      <point x="486" y="37" type="curve"/>
      <point x="492" y="15"/>
      <point x="508" y="0"/>
      <point x="571" y="0" type="curve" smooth="yes"/>
      <point x="843" y="0" type="line" smooth="yes"/>
      <point x="896" y="0"/>
      <point x="922" y="26"/>
      <point x="922" y="79" type="curve" smooth="yes"/>
      <point x="922" y="148" type="line"/>
      <point x="771" y="148" type="line"/>
      <point x="771" y="90" type="line" smooth="yes"/>
      <point x="771" y="64"/>
      <point x="766" y="59"/>
      <point x="740" y="59" type="curve" smooth="yes"/>
      <point x="593" y="59" type="line" smooth="yes"/>
      <point x="567" y="59"/>
      <point x="562" y="64"/>
      <point x="562" y="90" type="curve" smooth="yes"/>
      <point x="562" y="395" type="line" smooth="yes"/>
      <point x="562" y="421"/>
      <point x="567" y="426"/>
      <point x="593" y="426" type="curve" smooth="yes"/>
      <point x="742" y="426" type="line" smooth="yes"/>
      <point x="768" y="426"/>
      <point x="773" y="421"/>
      <point x="773" y="395" type="curve" smooth="yes"/>
      <point x="773" y="222" type="line"/>
      <point x="924" y="222" type="line"/>
      <point x="924" y="406" type="line" smooth="yes"/>
      <point x="924" y="459"/>
      <point x="898" y="485"/>
      <point x="845" y="485" type="curve" smooth="yes"/>
      <point x="571" y="485" type="line" smooth="yes"/>
      <point x="508" y="485"/>
      <point x="492" y="470"/>
      <point x="486" y="448" type="curve"/>
      <point x="478" y="470"/>
      <point x="456" y="485"/>
      <point x="392" y="485" type="curve" smooth="yes"/>
      <point x="145" y="485" type="line" smooth="yes"/>
      <point x="92" y="485"/>
      <point x="66" y="459"/>
      <point x="66" y="406" type="curve" smooth="yes"/>
      <point x="66" y="306" type="line"/>
      <point x="221" y="306" type="line"/>
      <point x="221" y="396" type="line" smooth="yes"/>
      <point x="221" y="422"/>
      <point x="226" y="427"/>
      <point x="252" y="427" type="curve" smooth="yes"/>
      <point x="378" y="427" type="line" smooth="yes"/>
      <point x="402" y="427"/>
      <point x="410" y="421"/>
      <point x="410" y="396" type="curve" smooth="yes"/>
      <point x="410" y="89" type="line" smooth="yes"/>
      <point x="410" y="65"/>
      <point x="402" y="59"/>
      <point x="378" y="59" type="curve" smooth="yes"/>
      <point x="252" y="59" type="line" smooth="yes"/>
      <point x="226" y="59"/>
      <point x="221" y="64"/>
      <point x="221" y="90" type="curve" smooth="yes"/>
      <point x="221" y="172" type="line"/>
    </contour>
    <contour>
      <point x="918" y="278" type="line"/>
      <point x="486" y="278" type="line"/>
      <point x="486" y="219" type="line"/>
      <point x="918" y="219" type="line"/>
    </contour>
  </outline>
</glyph>
<glyph name="edieresis" format="1">
  <advance width="638"/>
  <unicode hex="00EB"/>
  <outline>
    <contour>
      <point x="269" y="641" type="line"/>
      <point x="95" y="641" type="line"/>
      <point x="95" y="532" type="line"/>
      <point x="269" y="532" type="line"/>
    </contour>
    <contour>
      <point x="556" y="641" type="line"/>
      <point x="381" y="641" type="line"/>
      <point x="381" y="532" type="line"/>
      <point x="556" y="532" type="line"/>
    </contour>
    <contour>
      <point x="142" y="485" type="line"/>
      <point x="89" y="485"/>
      <point x="63" y="459"/>
      <point x="63" y="406" type="curve" smooth="yes"/>
      <point x="63" y="79" type="line" smooth="yes"/>
      <point x="63" y="26"/>
      <point x="89" y="0"/>
      <point x="142" y="0" type="curve" smooth="yes"/>
      <point x="503" y="0" type="line" smooth="yes"/>
      <point x="556" y="0"/>
      <point x="582" y="26"/>
      <point x="582" y="79" type="curve" smooth="yes"/>
      <point x="582" y="149" type="line"/>
      <point x="431" y="149" type="line"/>
      <point x="431" y="90" type="line" smooth="yes"/>
      <point x="431" y="64"/>
      <point x="426" y="59"/>
      <point x="400" y="59" type="curve" smooth="yes"/>
      <point x="249" y="59" type="line" smooth="yes"/>
      <point x="223" y="59"/>
      <point x="218" y="64"/>
      <point x="218" y="90" type="curve" smooth="yes"/>
      <point x="218" y="219" type="line"/>
      <point x="583" y="219" type="line"/>
      <point x="583" y="406" type="line" smooth="yes"/>
      <point x="583" y="459"/>
      <point x="557" y="485"/>
      <point x="504" y="485" type="curve" smooth="yes"/>
    </contour>
    <contour>
      <point x="218" y="278" type="line"/>
      <point x="218" y="395" type="line" smooth="yes"/>
      <point x="218" y="421"/>
      <point x="223" y="426"/>
      <point x="249" y="426" type="curve" smooth="yes"/>
      <point x="402" y="426" type="line" smooth="yes"/>
      <point x="428" y="426"/>
      <point x="433" y="421"/>
      <point x="433" y="395" type="curve" smooth="yes"/>
      <point x="433" y="278" type="line"/>
    </contour>
  </outline>
</glyph>
<glyph name="igrave" format="1">
  <advance width="315"/>
  <unicode hex="00EC"/>
  <outline>
    <contour>
      <point x="235" y="0" type="line"/>
      <point x="235" y="485" type="line"/>
      <point x="80" y="485" type="line"/>
      <point x="80" y="0" type="line"/>
    </contour>
    <component base="grave" xOffset="-248" yOffset="26"/>
  </outline>
</glyph>
<glyph name="iacute" format="1">
  <advance width="315"/>
  <unicode hex="00ED"/>
  <outline>
    <contour>
      <point x="235" y="0" type="line"/>
      <point x="235" y="485" type="line"/>
      <point x="80" y="485" type="line"/>
      <point x="80" y="0" type="line"/>
    </contour>
    <component base="acute" xOffset="-70" yOffset="26"/>
  </outline>
</glyph>
<glyph name="icircumflex" format="1">
  <advance width="315"/>
  <unicode hex="00EE"/>
  <outline>
    <contour>
      <point x="235" y="0" type="line"/>
      <point x="235" y="485" type="line"/>
      <point x="80" y="485" type="line"/>
      <point x="80" y="0" type="line"/>
    </contour>
    <component base="circumflex" xOffset="-164" yOffset="26"/>
  </outline>
</glyph>
<glyph name="idieresis" format="1">
  <advance width="315"/>
  <unicode hex="00EF"/>
  <outline>
    <contour>
      <point x="235" y="0" type="line"/>
      <point x="235" y="485" type="line"/>
      <point x="80" y="485" type="line"/>
      <point x="80" y="0" type="line"/>
    </contour>
    <component base="dieresis" xOffset="-164" yOffset="2"/>
  </outline>
</glyph>
<glyph name="eth" format="1">
  <advance width="691"/>
  <unicode hex="00F0"/>
  <outline>
    <contour>
      <point x="230" y="90" type="line"/>
      <point x="230" y="64"/>
      <point x="235" y="59"/>
      <point x="261" y="59" type="curve" smooth="yes"/>
      <point x="402" y="59" type="line"/>
      <point x="402" y="0" type="line"/>
      <point x="154" y="0" type="line" smooth="yes"/>
      <point x="101" y="0"/>
      <point x="75" y="26"/>
      <point x="75" y="79" type="curve" smooth="yes"/>
      <point x="75" y="297" type="line" smooth="yes"/>
      <point x="75" y="350"/>
      <point x="101" y="376"/>
      <point x="154" y="376" type="curve" smooth="yes"/>
      <point x="492" y="376" type="line"/>
      <point x="492" y="317" type="line"/>
      <point x="261" y="317" type="line" smooth="yes"/>
      <point x="235" y="317"/>
      <point x="230" y="312"/>
      <point x="230" y="286" type="curve" smooth="yes"/>
    </contour>
    <contour>
      <point x="456" y="312" type="line"/>
      <point x="456" y="471"/>
      <point x="271" y="575"/>
      <point x="186" y="622" type="curve"/>
      <point x="398" y="622" type="line"/>
      <point x="467" y="578"/>
      <point x="611" y="469"/>
      <point x="611" y="309" type="curve" smooth="yes"/>
      <point x="611" y="79" type="line" smooth="yes"/>
      <point x="611" y="26"/>
      <point x="585" y="0"/>
      <point x="532" y="0" type="curve" smooth="yes"/>
      <point x="391" y="0" type="line"/>
      <point x="391" y="59" type="line"/>
      <point x="425" y="59" type="line" smooth="yes"/>
      <point x="451" y="59"/>
      <point x="456" y="64"/>
      <point x="456" y="90" type="curve" smooth="yes"/>
    </contour>
    <contour>
      <point x="223" y="435" type="line"/>
      <point x="223" y="495" type="line"/>
      <point x="598" y="586" type="line"/>
      <point x="598" y="526" type="line"/>
    </contour>
  </outline>
</glyph>
<glyph name="odieresis" format="1">
  <advance width="646"/>
  <unicode hex="00F6"/>
  <outline>
    <contour>
      <point x="145" y="485" type="line"/>
      <point x="92" y="485"/>
      <point x="66" y="459"/>
      <point x="66" y="406" type="curve" smooth="yes"/>
      <point x="66" y="79" type="line" smooth="yes"/>
      <point x="66" y="26"/>
      <point x="92" y="0"/>
      <point x="145" y="0" type="curve" smooth="yes"/>
      <point x="501" y="0" type="line" smooth="yes"/>
      <point x="554" y="0"/>
      <point x="580" y="26"/>
      <point x="580" y="79" type="curve" smooth="yes"/>
      <point x="580" y="406" type="line" smooth="yes"/>
      <point x="580" y="459"/>
      <point x="554" y="485"/>
      <point x="501" y="485" type="curve" smooth="yes"/>
    </contour>
    <contour>
      <point x="426" y="395" type="curve" smooth="yes"/>
      <point x="426" y="90" type="line" smooth="yes"/>
      <point x="426" y="64"/>
      <point x="421" y="59"/>
      <point x="395" y="59" type="curve" smooth="yes"/>
      <point x="251" y="59" type="line" smooth="yes"/>
      <point x="225" y="59"/>
      <point x="220" y="64"/>
      <point x="220" y="90" type="curve" smooth="yes"/>
      <point x="220" y="395" type="line" smooth="yes"/>
      <point x="220" y="421"/>
      <point x="225" y="426"/>
      <point x="251" y="426" type="curve" smooth="yes"/>
      <point x="395" y="426" type="line" smooth="yes"/>
      <point x="421" y="426"/>
      <point x="426" y="421"/>
    </contour>
    <contour>
      <point x="96" y="641" type="line"/>
      <point x="96" y="532" type="line"/>
      <point x="270" y="532" type="line"/>
      <point x="270" y="641" type="line"/>
    </contour>
    <contour>
      <point x="382" y="641" type="line"/>
      <point x="382" y="532" type="line"/>
      <point x="557" y="532" type="line"/>
      <point x="557" y="641" type="line"/>
    </contour>
  </outline>
</glyph>
<glyph name="divide" format="1">
  <advance width="690"/>
  <unicode hex="00F7"/>
  <outline>
    <contour>
      <point x="47" y="260" type="line"/>
      <point x="630" y="260" type="line"/>
      <point x="630" y="361" type="line"/>
      <point x="47" y="361" type="line"/>
    </contour>
    <contour>
      <point x="259" y="511" type="line"/>
      <point x="259" y="421" type="line"/>
      <point x="419" y="421" type="line"/>
      <point x="419" y="511" type="line"/>
    </contour>
    <contour>
      <point x="259" y="200" type="line"/>
      <point x="259" y="110" type="line"/>
      <point x="419" y="110" type="line"/>
      <point x="419" y="200" type="line"/>
    </contour>
  </outline>
</glyph>
<glyph name="oslash" format="1">
  <advance width="657"/>
  <unicode hex="00F8"/>
  <outline>
    <contour>
      <point x="585" y="406" type="line"/>
      <point x="585" y="459"/>
      <point x="559" y="485"/>
      <point x="506" y="485" type="curve" smooth="yes"/>
      <point x="151" y="485" type="line" smooth="yes"/>
      <point x="98" y="485"/>
      <point x="72" y="459"/>
      <point x="72" y="406" type="curve" smooth="yes"/>
      <point x="72" y="79" type="line" smooth="yes"/>
      <point x="72" y="26"/>
      <point x="98" y="0"/>
      <point x="151" y="0" type="curve" smooth="yes"/>
      <point x="506" y="0" type="line" smooth="yes"/>
      <point x="559" y="0"/>
      <point x="585" y="26"/>
      <point x="585" y="79" type="curve" smooth="yes"/>
    </contour>
    <contour>
      <point x="437" y="88" type="line"/>
      <point x="437" y="61"/>
      <point x="432" y="56"/>
      <point x="406" y="56" type="curve" smooth="yes"/>
      <point x="252" y="56" type="line" smooth="yes"/>
      <point x="225" y="56"/>
      <point x="220" y="61"/>
      <point x="220" y="88" type="curve" smooth="yes"/>
      <point x="220" y="398" type="line" smooth="yes"/>
      <point x="220" y="424"/>
      <point x="225" y="429"/>
      <point x="252" y="429" type="curve" smooth="yes"/>
      <point x="406" y="429" type="line" smooth="yes"/>
      <point x="432" y="429"/>
      <point x="437" y="424"/>
      <point x="437" y="398" type="curve" smooth="yes"/>
    </contour>
    <contour>
      <point x="529" y="514" type="line"/>
      <point x="52" y="-30" type="line"/>
      <point x="134" y="-30" type="line"/>
      <point x="611" y="514" type="line"/>
    </contour>
  </outline>
</glyph>
<glyph name="udieresis" format="1">
  <advance width="662"/>
  <unicode hex="00FC"/>
  <outline>
    <contour>
      <point x="66" y="485" type="line"/>
      <point x="66" y="79" type="line" smooth="yes"/>
      <point x="66" y="26"/>
      <point x="92" y="0"/>
      <point x="145" y="0" type="curve" smooth="yes"/>
      <point x="366" y="0" type="line" smooth="yes"/>
      <point x="415" y="0"/>
      <point x="429" y="26"/>
      <point x="429" y="76" type="curve" smooth="yes"/>
      <point x="429" y="122" type="line"/>
      <point x="422" y="122" type="line"/>
      <point x="422" y="91" type="line" smooth="yes"/>
      <point x="422" y="68"/>
      <point x="411" y="59"/>
      <point x="386" y="59" type="curve" smooth="yes"/>
      <point x="252" y="59" type="line" smooth="yes"/>
      <point x="226" y="59"/>
      <point x="221" y="64"/>
      <point x="221" y="90" type="curve" smooth="yes"/>
      <point x="221" y="485" type="line"/>
    </contour>
    <contour>
      <point x="422" y="485" type="line"/>
      <point x="422" y="0" type="line"/>
      <point x="577" y="0" type="line"/>
      <point x="577" y="485" type="line"/>
    </contour>
    <contour>
      <point x="91" y="641" type="line"/>
      <point x="91" y="532" type="line"/>
      <point x="266" y="532" type="line"/>
      <point x="266" y="641" type="line"/>
    </contour>
    <contour>
      <point x="377" y="641" type="line"/>
      <point x="377" y="532" type="line"/>
      <point x="552" y="532" type="line"/>
      <point x="552" y="641" type="line"/>
    </contour>
  </outline>
</glyph>
<glyph name="thorn" format="1">
  <advance width="651"/>
  <unicode hex="00FE"/>
  <outline>
    <contour>
      <point x="584" y="238" type="line"/>
      <point x="584" y="415" type="line" smooth="yes"/>
      <point x="584" y="468"/>
      <point x="558" y="494"/>
      <point x="505" y="494" type="curve" smooth="yes"/>
      <point x="285" y="494" type="line" smooth="yes"/>
      <point x="236" y="494"/>
      <point x="222" y="468"/>
      <point x="222" y="418" type="curve" smooth="yes"/>
      <point x="222" y="372" type="line"/>
      <point x="229" y="372" type="line"/>
      <point x="229" y="403" type="line" smooth="yes"/>
      <point x="229" y="426"/>
      <point x="240" y="435"/>
      <point x="265" y="435" type="curve" smooth="yes"/>
      <point x="399" y="435" type="line" smooth="yes"/>
      <point x="425" y="435"/>
      <point x="430" y="430"/>
      <point x="430" y="404" type="curve" smooth="yes"/>
      <point x="430" y="238" type="line"/>
    </contour>
    <contour>
      <point x="229" y="-141" type="line"/>
      <point x="229" y="413" type="line"/>
      <point x="227" y="419" type="line"/>
      <point x="227" y="669" type="line"/>
      <point x="74" y="669" type="line"/>
      <point x="74" y="-141" type="line"/>
    </contour>
    <contour>
      <point x="430" y="266" type="line"/>
      <point x="430" y="100" type="line" smooth="yes"/>
      <point x="430" y="74"/>
      <point x="425" y="69"/>
      <point x="399" y="69" type="curve" smooth="yes"/>
      <point x="265" y="69" type="line" smooth="yes"/>
      <point x="240" y="69"/>
      <point x="229" y="78"/>
      <point x="229" y="101" type="curve" smooth="yes"/>
      <point x="229" y="126" type="line"/>
      <point x="222" y="126" type="line"/>
      <point x="222" y="86" type="line" smooth="yes"/>
      <point x="222" y="36"/>
      <point x="236" y="10"/>
      <point x="285" y="10" type="curve" smooth="yes"/>
      <point x="505" y="10" type="line" smooth="yes"/>
      <point x="558" y="10"/>
      <point x="584" y="36"/>
      <point x="584" y="89" type="curve" smooth="yes"/>
      <point x="584" y="266" type="line"/>
    </contour>
  </outline>
</glyph>
<glyph name="ydieresis" format="1">
  <advance width="634"/>
  <unicode hex="00FF"/>
  <outline>
    <contour>
      <point x="20" y="485" type="line"/>
      <point x="218" y="0" type="line"/>
      <point x="276" y="0" type="line"/>
      <point x="259" y="-37" type="line" smooth="yes"/>
      <point x="245" y="-69"/>
      <point x="224" y="-82"/>
      <point x="178" y="-82" type="curve" smooth="yes"/>
      <point x="112" y="-82" type="line"/>
      <point x="112" y="-141" type="line"/>
      <point x="229" y="-141" type="line" smooth="yes"/>
      <point x="338" y="-141"/>
      <point x="368" y="-100"/>
      <point x="396" y="-27" type="curve" smooth="yes"/>
      <point x="607" y="485" type="line"/>
      <point x="452" y="485" type="line"/>
      <point x="316" y="101" type="line"/>
      <point x="180" y="485" type="line"/>
    </contour>
    <contour>
      <point x="376" y="640" type="line"/>
      <point x="376" y="532" type="line"/>
      <point x="551" y="532" type="line"/>
      <point x="551" y="640" type="line"/>
    </contour>
    <contour>
      <point x="90" y="640" type="line"/>
      <point x="90" y="532" type="line"/>
      <point x="264" y="532" type="line"/>
      <point x="264" y="640" type="line"/>
    </contour>
  </outline>
</glyph>
<glyph name="dcaron" format="1">
  <advance width="674"/>
  <unicode hex="010F"/>
  <outline>
    <contour>
      <point x="419" y="456" type="line"/>
      <point x="410" y="476"/>
      <point x="392" y="485"/>
      <point x="363" y="485" type="curve" smooth="yes"/>
      <point x="142" y="485" type="line" smooth="yes"/>
      <point x="89" y="485"/>
      <point x="63" y="459"/>
      <point x="63" y="406" type="curve" smooth="yes"/>
      <point x="63" y="79" type="line" smooth="yes"/>
      <point x="63" y="26"/>
      <point x="89" y="0"/>
      <point x="142" y="0" type="curve" smooth="yes"/>
      <point x="363" y="0" type="line" smooth="yes"/>
      <point x="392" y="0"/>
      <point x="410" y="9"/>
      <point x="419" y="29" type="curve"/>
      <point x="419" y="0" type="line"/>
      <point x="573" y="0" type="line"/>
      <point x="573" y="669" type="line"/>
      <point x="419" y="669" type="line"/>
    </contour>
    <contour>
      <point x="651" y="669" type="line"/>
      <point x="651" y="484" type="line"/>
      <point x="694" y="484" type="line"/>
      <point x="777" y="612" type="line"/>
      <point x="777" y="669" type="line"/>
    </contour>
    <contour>
      <point x="249" y="59" type="line"/>
      <point x="223" y="59"/>
      <point x="218" y="64"/>
      <point x="218" y="90" type="curve" smooth="yes"/>
      <point x="218" y="395" type="line" smooth="yes"/>
      <point x="218" y="421"/>
      <point x="223" y="426"/>
      <point x="249" y="426" type="curve" smooth="yes"/>
      <point x="383" y="426" type="line" smooth="yes"/>
      <point x="408" y="426"/>
      <point x="419" y="417"/>
      <point x="419" y="394" type="curve" smooth="yes"/>
      <point x="419" y="91" type="line" smooth="yes"/>
      <point x="419" y="68"/>
      <point x="408" y="59"/>
      <point x="383" y="59" type="curve" smooth="yes"/>
    </contour>
  </outline>
</glyph>
<glyph name="Dcroat" format="1">
  <advance width="756"/>
  <unicode hex="0110"/>
  <outline>
    <contour>
      <point x="516" y="380" type="line"/>
      <point x="678" y="380" type="line"/>
      <point x="678" y="543" type="line" smooth="yes"/>
      <point x="678" y="596"/>
      <point x="652" y="622"/>
      <point x="599" y="622" type="curve" smooth="yes"/>
      <point x="182" y="622" type="line"/>
      <point x="182" y="563" type="line"/>
      <point x="485" y="563" type="line" smooth="yes"/>
      <point x="511" y="563"/>
      <point x="516" y="558"/>
      <point x="516" y="532" type="curve" smooth="yes"/>
    </contour>
    <contour>
      <point x="516" y="90" type="line"/>
      <point x="516" y="64"/>
      <point x="511" y="59"/>
      <point x="485" y="59" type="curve" smooth="yes"/>
      <point x="182" y="59" type="line"/>
      <point x="182" y="0" type="line"/>
      <point x="599" y="0" type="line" smooth="yes"/>
      <point x="652" y="0"/>
      <point x="678" y="26"/>
      <point x="678" y="79" type="curve" smooth="yes"/>
      <point x="678" y="398" type="line"/>
      <point x="516" y="398" type="line"/>
    </contour>
    <contour>
      <point x="121" y="622" type="line"/>
      <point x="121" y="0" type="line"/>
      <point x="283" y="0" type="line"/>
      <point x="283" y="622" type="line"/>
    </contour>
    <contour>
      <point x="429" y="345" type="line"/>
      <point x="58" y="345" type="line"/>
      <point x="58" y="283" type="line"/>
      <point x="429" y="283" type="line"/>
    </contour>
  </outline>
</glyph>
<glyph name="dcroat" format="1">
  <advance width="651"/>
  <unicode hex="0111"/>
  <outline>
    <contour>
      <point x="221" y="229" type="line"/>
      <point x="221" y="395" type="line" smooth="yes"/>
      <point x="221" y="421"/>
      <point x="226" y="426"/>
      <point x="252" y="426" type="curve" smooth="yes"/>
      <point x="386" y="426" type="line" smooth="yes"/>
      <point x="411" y="426"/>
      <point x="422" y="417"/>
      <point x="422" y="394" type="curve" smooth="yes"/>
      <point x="422" y="364" type="line"/>
      <point x="429" y="364" type="line"/>
      <point x="429" y="409" type="line" smooth="yes"/>
      <point x="429" y="459"/>
      <point x="415" y="485"/>
      <point x="366" y="485" type="curve" smooth="yes"/>
      <point x="145" y="485" type="line" smooth="yes"/>
      <point x="92" y="485"/>
      <point x="66" y="459"/>
      <point x="66" y="406" type="curve" smooth="yes"/>
      <point x="66" y="229" type="line"/>
    </contour>
    <contour>
      <point x="422" y="669" type="line"/>
      <point x="422" y="0" type="line"/>
      <point x="577" y="0" type="line"/>
      <point x="577" y="669" type="line"/>
    </contour>
    <contour>
      <point x="66" y="257" type="line"/>
      <point x="66" y="79" type="line" smooth="yes"/>
      <point x="66" y="26"/>
      <point x="92" y="0"/>
      <point x="145" y="0" type="curve" smooth="yes"/>
      <point x="366" y="0" type="line" smooth="yes"/>
      <point x="415" y="0"/>
      <point x="429" y="26"/>
      <point x="429" y="76" type="curve" smooth="yes"/>
      <point x="429" y="116" type="line"/>
      <point x="422" y="116" type="line"/>
      <point x="422" y="91" type="line" smooth="yes"/>
      <point x="422" y="68"/>
      <point x="411" y="59"/>
      <point x="386" y="59" type="curve" smooth="yes"/>
      <point x="252" y="59" type="line" smooth="yes"/>
      <point x="226" y="59"/>
      <point x="221" y="64"/>
      <point x="221" y="90" type="curve" smooth="yes"/>
      <point x="221" y="257" type="line"/>
    </contour>
    <contour>
      <point x="646" y="599" type="line"/>
      <point x="238" y="599" type="line"/>
      <point x="238" y="540" type="line"/>
      <point x="646" y="540" type="line"/>
    </contour>
  </outline>
</glyph>
<glyph name="gcommaaccent" format="1">
  <advance width="643"/>
  <unicode hex="0123"/>
  <outline>
    <contour>
      <point x="378" y="734" type="line"/>
      <point x="270" y="593" type="line"/>
      <point x="270" y="531" type="line"/>
      <point x="428" y="531" type="line"/>
      <point x="428" y="734" type="line"/>
    </contour>
    <component base="g"/>
  </outline>
</glyph>
<glyph name="Idotaccent" format="1">
  <advance width="319"/>
  <unicode hex="0130"/>
  <outline>
    <contour>
      <point x="80" y="546" type="line"/>
      <point x="80" y="0" type="line"/>
      <point x="246" y="0" type="line"/>
      <point x="246" y="546" type="line"/>
    </contour>
    <contour>
      <point x="79" y="706" type="line"/>
      <point x="79" y="593" type="line"/>
      <point x="245" y="593" type="line"/>
      <point x="245" y="706" type="line"/>
    </contour>
  </outline>
</glyph>
<glyph name="dotlessi" format="1">
  <advance width="315"/>
  <unicode hex="0131"/>
  <outline>
    <contour>
      <point x="80" y="485" type="line"/>
      <point x="80" y="0" type="line"/>
      <point x="235" y="0" type="line"/>
      <point x="235" y="485" type="line"/>
    </contour>
  </outline>
</glyph>
<glyph name="Lcaron" format="1">
  <advance width="559"/>
  <unicode hex="013D"/>
  <outline>
    <contour>
      <point x="320" y="622" type="line"/>
      <point x="320" y="437" type="line"/>
      <point x="363" y="437" type="line"/>
      <point x="446" y="565" type="line"/>
      <point x="446" y="622" type="line"/>
    </contour>
    <component base="L" xOffset="-2"/>
  </outline>
</glyph>
<glyph name="lcaron" format="1">
  <advance width="347"/>
  <unicode hex="013E"/>
  <outline>
    <contour>
      <point x="80" y="669" type="line"/>
      <point x="80" y="0" type="line"/>
      <point x="235" y="0" type="line"/>
      <point x="235" y="669" type="line"/>
    </contour>
    <contour>
      <point x="313" y="668" type="line"/>
      <point x="313" y="483" type="line"/>
      <point x="356" y="483" type="line"/>
      <point x="439" y="611" type="line"/>
      <point x="439" y="668" type="line"/>
    </contour>
  </outline>
</glyph>
<glyph name="Lslash" format="1">
  <advance width="571"/>
  <unicode hex="0141"/>
  <outline>
    <contour>
      <point x="408" y="412" type="line"/>
      <point x="-36" y="264" type="line"/>
      <point x="-36" y="199" type="line"/>
      <point x="408" y="347" type="line"/>
    </contour>
    <component base="L" xOffset="4"/>
  </outline>
</glyph>
<glyph name="lslash" format="1">
  <advance width="322"/>
  <unicode hex="0142"/>
  <outline>
    <contour>
      <point x="369" y="446" type="line"/>
      <point x="-41" y="309" type="line"/>
      <point x="-41" y="244" type="line"/>
      <point x="369" y="381" type="line"/>
    </contour>
    <component base="l" xOffset="1"/>
  </outline>
</glyph>
<glyph name="Ohungarumlaut" format="1">
  <advance width="683"/>
  <unicode hex="0150"/>
  <outline>
    <contour>
      <point x="152" y="622" type="line"/>
      <point x="99" y="622"/>
      <point x="73" y="596"/>
      <point x="73" y="543" type="curve" smooth="yes"/>
      <point x="73" y="79" type="line" smooth="yes"/>
      <point x="73" y="26"/>
      <point x="99" y="0"/>
      <point x="152" y="0" type="curve" smooth="yes"/>
      <point x="541" y="0" type="line" smooth="yes"/>
      <point x="594" y="0"/>
      <point x="620" y="26"/>
      <point x="620" y="79" type="curve" smooth="yes"/>
      <point x="620" y="543" type="line" smooth="yes"/>
      <point x="620" y="596"/>
      <point x="594" y="622"/>
      <point x="541" y="622" type="curve" smooth="yes"/>
    </contour>
    <contour>
      <point x="459" y="532" type="curve" smooth="yes"/>
      <point x="459" y="90" type="line" smooth="yes"/>
      <point x="459" y="64"/>
      <point x="454" y="59"/>
      <point x="428" y="59" type="curve" smooth="yes"/>
      <point x="265" y="59" type="line" smooth="yes"/>
      <point x="239" y="59"/>
      <point x="234" y="64"/>
      <point x="234" y="90" type="curve" smooth="yes"/>
      <point x="234" y="532" type="line" smooth="yes"/>
      <point x="234" y="558"/>
      <point x="239" y="563"/>
      <point x="265" y="563" type="curve" smooth="yes"/>
      <point x="428" y="563" type="line" smooth="yes"/>
      <point x="454" y="563"/>
      <point x="459" y="558"/>
    </contour>
    <contour>
      <point x="329" y="829" type="line"/>
      <point x="185" y="669" type="line"/>
      <point x="302" y="669" type="line"/>
      <point x="477" y="829" type="line"/>
    </contour>
    <contour>
      <point x="564" y="829" type="line"/>
      <point x="416" y="669" type="line"/>
      <point x="533" y="669" type="line"/>
      <point x="712" y="829" type="line"/>
    </contour>
  </outline>
</glyph>
<glyph name="OE" format="1">
  <advance width="979"/>
  <unicode hex="0152"/>
  <outline>
    <contour>
      <point x="552" y="523" type="line"/>
      <point x="552" y="581"/>
      <point x="522" y="622"/>
      <point x="445" y="622" type="curve" smooth="yes"/>
      <point x="153" y="622" type="line" smooth="yes"/>
      <point x="100" y="622"/>
      <point x="74" y="596"/>
      <point x="74" y="543" type="curve" smooth="yes"/>
      <point x="74" y="79" type="line" smooth="yes"/>
      <point x="74" y="26"/>
      <point x="100" y="0"/>
      <point x="153" y="0" type="curve" smooth="yes"/>
      <point x="445" y="0" type="line" smooth="yes"/>
      <point x="523" y="0"/>
      <point x="552" y="41"/>
      <point x="552" y="99" type="curve" smooth="yes"/>
    </contour>
    <contour>
      <point x="466" y="90" type="line"/>
      <point x="466" y="64"/>
      <point x="461" y="59"/>
      <point x="435" y="59" type="curve" smooth="yes"/>
      <point x="267" y="59" type="line" smooth="yes"/>
      <point x="241" y="59"/>
      <point x="236" y="64"/>
      <point x="236" y="90" type="curve" smooth="yes"/>
      <point x="236" y="532" type="line" smooth="yes"/>
      <point x="236" y="558"/>
      <point x="241" y="563"/>
      <point x="267" y="563" type="curve" smooth="yes"/>
      <point x="435" y="563" type="line" smooth="yes"/>
      <point x="461" y="563"/>
      <point x="466" y="558"/>
      <point x="466" y="532" type="curve" smooth="yes"/>
    </contour>
    <contour>
      <point x="508" y="622" type="line"/>
      <point x="508" y="0" type="line"/>
      <point x="630" y="0" type="line"/>
      <point x="630" y="622" type="line"/>
    </contour>
    <contour>
      <point x="884" y="348" type="line"/>
      <point x="558" y="348" type="line"/>
      <point x="558" y="289" type="line"/>
      <point x="884" y="289" type="line"/>
    </contour>
    <contour>
      <point x="920" y="622" type="line"/>
      <point x="529" y="622" type="line"/>
      <point x="529" y="563" type="line"/>
      <point x="920" y="563" type="line"/>
    </contour>
    <contour>
      <point x="933" y="59" type="line"/>
      <point x="529" y="59" type="line"/>
      <point x="529" y="0" type="line"/>
      <point x="933" y="0" type="line"/>
    </contour>
  </outline>
</glyph>
<glyph name="oe" format="1">
  <advance width="984"/>
  <unicode hex="0153"/>
  <outline>
    <contour>
      <point x="67" y="79" type="line"/>
      <point x="67" y="26"/>
      <point x="93" y="0"/>
      <point x="146" y="0" type="curve" smooth="yes"/>
      <point x="397" y="0" type="line" smooth="yes"/>
      <point x="461" y="0"/>
      <point x="483" y="15"/>
      <point x="490" y="37" type="curve"/>
      <point x="497" y="15"/>
      <point x="512" y="0"/>
      <point x="575" y="0" type="curve" smooth="yes"/>
      <point x="847" y="0" type="line" smooth="yes"/>
      <point x="900" y="0"/>
      <point x="926" y="26"/>
      <point x="926" y="79" type="curve" smooth="yes"/>
      <point x="926" y="149" type="line"/>
      <point x="775" y="149" type="line"/>
      <point x="775" y="90" type="line" smooth="yes"/>
      <point x="775" y="64"/>
      <point x="770" y="59"/>
      <point x="744" y="59" type="curve" smooth="yes"/>
      <point x="604" y="59" type="line" smooth="yes"/>
      <point x="578" y="59"/>
      <point x="573" y="64"/>
      <point x="573" y="90" type="curve" smooth="yes"/>
      <point x="573" y="395" type="line" smooth="yes"/>
      <point x="573" y="421"/>
      <point x="578" y="426"/>
      <point x="604" y="426" type="curve" smooth="yes"/>
      <point x="746" y="426" type="line" smooth="yes"/>
      <point x="772" y="426"/>
      <point x="777" y="421"/>
      <point x="777" y="395" type="curve" smooth="yes"/>
      <point x="777" y="238" type="line"/>
      <point x="927" y="238" type="line"/>
      <point x="927" y="406" type="line" smooth="yes"/>
      <point x="927" y="459"/>
      <point x="901" y="485"/>
      <point x="848" y="485" type="curve" smooth="yes"/>
      <point x="576" y="485" type="line" smooth="yes"/>
      <point x="513" y="485"/>
      <point x="498" y="470"/>
      <point x="491" y="448" type="curve"/>
      <point x="484" y="470"/>
      <point x="462" y="485"/>
      <point x="397" y="485" type="curve" smooth="yes"/>
      <point x="146" y="485" type="line" smooth="yes"/>
      <point x="93" y="485"/>
      <point x="67" y="459"/>
      <point x="67" y="406" type="curve" smooth="yes"/>
    </contour>
    <contour>
      <point x="222" y="395" type="line"/>
      <point x="222" y="421"/>
      <point x="227" y="426"/>
      <point x="253" y="426" type="curve" smooth="yes"/>
      <point x="386" y="426" type="line" smooth="yes"/>
      <point x="410" y="426"/>
      <point x="418" y="419"/>
      <point x="418" y="396" type="curve" smooth="yes"/>
      <point x="418" y="89" type="line" smooth="yes"/>
      <point x="418" y="65"/>
      <point x="410" y="59"/>
      <point x="386" y="59" type="curve" smooth="yes"/>
      <point x="253" y="59" type="line" smooth="yes"/>
      <point x="227" y="59"/>
      <point x="222" y="64"/>
      <point x="222" y="90" type="curve" smooth="yes"/>
    </contour>
    <contour>
      <point x="927" y="278" type="line"/>
      <point x="493" y="278" type="line"/>
      <point x="493" y="219" type="line"/>
      <point x="927" y="219" type="line"/>
    </contour>
  </outline>
</glyph>
<glyph name="tcaron" format="1">
  <advance width="393"/>
  <unicode hex="0165"/>
  <outline>
    <contour>
      <point x="103" y="588" type="line"/>
      <point x="103" y="79" type="line" smooth="yes"/>
      <point x="103" y="26"/>
      <point x="129" y="0"/>
      <point x="182" y="0" type="curve" smooth="yes"/>
      <point x="364" y="0" type="line"/>
      <point x="364" y="62" type="line"/>
      <point x="289" y="62" type="line" smooth="yes"/>
      <point x="263" y="62"/>
      <point x="258" y="67"/>
      <point x="258" y="93" type="curve" smooth="yes"/>
      <point x="258" y="588" type="line"/>
    </contour>
    <contour>
      <point x="25" y="485" type="line"/>
      <point x="25" y="426" type="line"/>
      <point x="365" y="426" type="line"/>
      <point x="365" y="485" type="line"/>
    </contour>
    <contour>
      <point x="317" y="730" type="line"/>
      <point x="317" y="552" type="line"/>
      <point x="359" y="552" type="line"/>
      <point x="443" y="672" type="line"/>
      <point x="443" y="730" type="line"/>
    </contour>
  </outline>
</glyph>
<glyph name="Uhungarumlaut" format="1">
  <advance width="693"/>
  <unicode hex="0170"/>
  <outline>
    <contour>
      <point x="236" y="622" type="line"/>
      <point x="75" y="622" type="line"/>
      <point x="75" y="79" type="line" smooth="yes"/>
      <point x="75" y="26"/>
      <point x="101" y="0"/>
      <point x="154" y="0" type="curve" smooth="yes"/>
      <point x="552" y="0" type="line" smooth="yes"/>
      <point x="605" y="0"/>
      <point x="631" y="26"/>
      <point x="631" y="79" type="curve" smooth="yes"/>
      <point x="631" y="622" type="line"/>
      <point x="471" y="622" type="line"/>
      <point x="471" y="90" type="line" smooth="yes"/>
      <point x="471" y="64"/>
      <point x="466" y="59"/>
      <point x="440" y="59" type="curve" smooth="yes"/>
      <point x="267" y="59" type="line" smooth="yes"/>
      <point x="241" y="59"/>
      <point x="236" y="64"/>
      <point x="236" y="90" type="curve" smooth="yes"/>
    </contour>
    <contour>
      <point x="562" y="827" type="line"/>
      <point x="414" y="667" type="line"/>
      <point x="531" y="667" type="line"/>
      <point x="710" y="827" type="line"/>
    </contour>
    <contour>
      <point x="327" y="827" type="line"/>
      <point x="183" y="667" type="line"/>
      <point x="300" y="667" type="line"/>
      <point x="475" y="827" type="line"/>
    </contour>
  </outline>
</glyph>
